<?xml version="1.0" standalone="no"?>
<!DOCTYPE svg PUBLIC "-//W3C//DTD SVG 1.1//EN" "http://www.w3.org/Graphics/SVG/1.1/DTD/svg11.dtd" >
<svg>
<metadata>
Created by FontForge 20090914 at Sat Dec 24 06:36:57 2022
 By www-data
Copyright &#194;&#169; 1993 Bigelow &#38; Holmes Inc. All rights reserved.
</metadata>
<defs>
<font id="LucidaConsole" horiz-adv-x="1234" >
  <font-face 
    font-family="Lucida Console"
    font-weight="400"
    font-stretch="semi-condensed"
    units-per-em="2048"
    panose-1="2 11 6 9 4 5 4 2 2 4"
    ascent="1638"
    descent="-410"
    x-height="1086"
    cap-height="1283"
    bbox="-0.000976562 -432.002 1234 1616"
    underline-thickness="102"
    underline-position="-154"
    unicode-range="U+0020-U+FB02"
  />
<missing-glyph 
d="M256 0v1280h722v-1280h-722zM320 64h594v1152h-594v-1152z" />
    <glyph glyph-name=".notdef" 
d="M256 0v1280h722v-1280h-722zM320 64h594v1152h-594v-1152z" />
    <glyph glyph-name="space" unicode=" " 
 />
    <glyph glyph-name="exclam" unicode="!" 
d="M542 419l-24 765v296h197v-296l-25 -765h-148zM493 0v222h247v-222h-247z" />
    <glyph glyph-name="quotedbl" unicode="&#x22;" 
d="M296 1036l-49 543h247l-50 -543h-148zM790 1036l-50 543h247l-49 -543h-148z" />
    <glyph glyph-name="numbersign" unicode="#" 
d="M170 0l112 450h-230l29 148h238l72 293h-251l29 148h259l110 441h152l-109 -441h232l109 441h153l-110 -441h228l-29 -148h-238l-72 -293h251l-29 -148h-259l-109 -450h-153l109 450h-232l-109 -450h-153zM471 598h230l73 293h-230z" />
    <glyph glyph-name="dollar" unicode="$" 
d="M583 -123v122.999c-108 0 -230.333 26.333 -367 79v169c142 -68.667 264.333 -103 367 -103v537l-73 48c-176.667 118.667 -265 247 -265 385c0 99.333 32.333 182.833 97 250.5s149 105.834 253 114.501v124h123v-124c98.667 -6 199.667 -27.667 303 -65v-162
c-96.667 48 -197.667 77.667 -303 89v-529l67 -40c182.667 -107.333 274 -234.333 274 -381c0 -104.667 -32 -192.5 -96 -263.5s-149.667 -113.833 -257 -128.5v-123h-123zM706 147.999c115.333 25.333 173 99.333 173 222c0 79.333 -42.667 148.333 -128 207l-45 32v-461z
M595 890.999l-0.000976562 439.999c-49.333 -6 -89.666 -28.667 -120.999 -68s-47 -86.666 -47 -141.999c0 -72 42 -138.667 126 -200z" />
    <glyph glyph-name="percent" unicode="%" 
d="M0 -37l1083 1554h151l-1084 -1554h-150zM303 802c-88 0 -160.333 31.833 -217 95.5s-85 144.834 -85 243.501c0 99.333 28.333 180.666 85 243.999s129 95 217 95c88.667 0 161.334 -31.667 218.001 -95s85 -144.666 85 -243.999
c0 -98.667 -28.333 -179.834 -85 -243.501s-129.334 -95.5 -218.001 -95.5zM303 901c46 0 83.333 22.167 112 66.5s43 102.166 43 173.499c0 72 -14.333 130.167 -43 174.5s-66 66.5 -112 66.5s-83.167 -22.167 -111.5 -66.5s-42.5 -102.5 -42.5 -174.5
c0 -71.333 14.167 -129.166 42.5 -173.499s65.5 -66.5 111.5 -66.5zM931 0c-88 0 -160.333 31.833 -217 95.5s-85 144.834 -85 243.501c0 99.333 28.333 180.833 85 244.5s129 95.5 217 95.5c88.667 0 161.334 -31.833 218.001 -95.5s85 -145.167 85 -244.5
c0 -98.667 -28.333 -179.834 -85 -243.501s-129.334 -95.5 -218.001 -95.5zM931 99c46 0 83.333 22.167 112 66.5s43 102.166 43 173.499c0 72 -14.333 130.167 -43 174.5s-66 66.5 -112 66.5s-83.167 -22.167 -111.5 -66.5s-42.5 -102.5 -42.5 -174.5
c0 -71.333 14.167 -129.166 42.5 -173.499s65.5 -66.5 111.5 -66.5z" />
    <glyph glyph-name="ampersand" unicode="&#x26;" 
d="M962 0l-74.001 89.0029c-108.667 -84 -236 -126 -382 -126c-139.333 0 -254.5 44.167 -345.5 132.5s-136.5 199.833 -136.5 334.5c0 105.333 27.333 193.166 82 263.499s144.334 132.166 269.001 185.499c-59.333 130 -89 234.667 -89 314c0 96 30.167 174 90.5 234
s138.833 90 235.5 90c92 0 167 -26.5 225 -79.5s87 -121.833 87 -206.5c0 -148.667 -104.333 -282.334 -313 -401.001c76.667 -149.333 188 -312.666 334 -489.999c62 92.667 93 216.667 93 372l-2 76h198c-14 -246.667 -80 -435.334 -198 -566.001
c62.667 -74.667 128.667 -148.667 198 -222h-272zM800.999 203.003c-157.333 191.333 -279.668 375.667 -367.001 553c-136.667 -67.333 -205 -162.333 -205 -285c0 -100 30.333 -185 91 -255s134.334 -105 221.001 -105c84 0 170.667 30.667 260 92zM551.997 961.004
c126.667 60 190 145.332 190 255.999c0 44.667 -11.833 81.167 -35.5 109.5s-54.167 42.5 -91.5 42.5c-36.667 0 -68 -15.167 -94 -45.5s-39 -67.166 -39 -110.499c0 -62 23.333 -146 70 -252z" />
    <glyph glyph-name="quotesingle" unicode="'" 
d="M543 962l-74 617h296l-74 -617h-148z" />
    <glyph glyph-name="parenleft" unicode="(" 
d="M1085 -296c-216.667 24 -394.167 123.499 -532.5 298.499s-207.5 388.167 -207.5 639.5c0 250.667 69.167 463.5 207.5 638.5s315.833 274.5 532.5 298.5v-136c-174 -35.333 -308 -122.166 -402 -260.499s-141 -318.5 -141 -540.5s47 -402.333 141 -541
s228 -225.667 402 -261v-136z" />
    <glyph glyph-name="parenright" unicode=")" 
d="M148 1579c217.333 -24 395.001 -123.499 533.001 -298.499s207 -388.167 207 -639.5c0 -250.667 -69.167 -463.5 -207.5 -638.5s-315.833 -274.5 -532.5 -298.5v136c174 35.333 308 122.166 402 260.499s141 318.833 141 541.5c0 221.333 -46.833 401.333 -140.5 540
s-227.834 225.667 -402.501 261v136z" />
    <glyph glyph-name="asterisk" unicode="*" 
d="M703 1129l306 139.001l61 -188l-328 -68v14c0 35.333 -13 69.666 -39 102.999zM732 983.001l226 -248l-160 -116l-166 291c42 12 75.333 36.333 100 73zM601 910.001l-165 -291l-160 116l226 248c24.667 -36.667 57.667 -61 99 -73zM492 1012l-328 68l61 188l305 -139
c-25.333 -33.333 -38 -68 -38 -104v-13zM555 1147l-37 333h198l-37 -333c-23.333 8.66699 -44 13 -62 13s-38.667 -4.33301 -62 -13z" />
    <glyph glyph-name="plus" unicode="+" 
d="M542 0v456h-456v149h456v456h149v-456h456v-149h-456v-456h-149z" />
    <glyph glyph-name="comma" unicode="," 
d="M469 -321v99c68 9.33301 107.667 68.333 119 177l4 45h-123v296h296v-179c0 -281.333 -98.667 -427.333 -296 -438z" />
    <glyph glyph-name="hyphen" unicode="-" 
d="M210 543v148h814v-148h-814z" />
    <glyph glyph-name="period" unicode="." 
d="M469 0v296h296v-296h-296z" />
    <glyph glyph-name="slash" unicode="/" 
d="M1160 1579l-920 -1875h-165l920 1875h165z" />
    <glyph glyph-name="zero" unicode="0" 
d="M617 -37c-154 0 -276.833 70.333 -368.5 211s-137.5 329.667 -137.5 567c0 236.667 45.833 425.167 137.5 565.5s214.5 210.5 368.5 210.5s276.833 -70.167 368.5 -210.5s137.5 -328.833 137.5 -565.5c0 -237.333 -45.833 -426.333 -137.5 -567s-214.5 -211 -368.5 -211z
M617 111c197.333 0 296 210 296 630c0 418.667 -98.667 628 -296 628s-296 -209.333 -296 -628c0 -420 98.667 -630 296 -630z" />
    <glyph glyph-name="one" unicode="1" 
d="M185 0v148h395v1151l-395 -89v122l592 185v-1369h395v-148h-987z" />
    <glyph glyph-name="two" unicode="2" 
d="M168 0l0.00195312 173.002c81.333 157.333 202.666 316 363.999 476l89 89c122.667 122 184 245 184 369c0 79.333 -23.5 142.833 -70.5 190.5s-109.833 71.5 -188.5 71.5c-95.333 0 -209 -34.667 -341 -104v174c122.667 52 242.667 78 360 78
c135.333 0 244.166 -36.833 326.499 -110.5s123.5 -170.834 123.5 -291.501c0 -78 -19 -151.333 -57 -220s-102.333 -145.334 -193 -230.001l-84 -79c-154.667 -144 -247.667 -281.667 -279 -413h605v-173h-839z" />
    <glyph glyph-name="three" unicode="3" 
d="M234 7l0.00195312 174c134 -46.667 237 -70 309 -70c89.333 0 161.333 27.5 216 82.5s82 127.167 82 216.5c0 100 -32.5 177 -97.5 231s-157.5 81 -277.5 81h-96v142h57c87.333 0 151.166 5.5 191.499 16.5s77.166 32.833 110.499 65.5c52.667 52 79 119 79 201
c0 68.667 -21 122.834 -63 162.501s-99 59.5 -171 59.5c-100.667 0 -207 -27 -319 -81v173c108.667 38 218.667 57 330 57c132 0 235.167 -29.833 309.5 -89.5s111.5 -142.5 111.5 -248.5c0 -165.333 -89 -289.333 -267 -372c208 -71.333 312 -204 312 -398
c0 -136.667 -46.167 -245.334 -138.5 -326.001s-216.833 -121 -373.5 -121c-97.333 0 -199 14.667 -305 44z" />
    <glyph glyph-name="four" unicode="4" 
d="M728 0v395h-617v166l617 919h185v-937h197v-148h-197v-395h-185zM277 543h451v672z" />
    <glyph glyph-name="five" unicode="5" 
d="M270 8l0.000976562 169c112.667 -44 203 -66 271 -66c81.333 0 148.166 31.5 200.499 94.5s78.5 143.5 78.5 241.5c0 220.667 -144.667 331 -434 331c-24.667 0 -54 -1.33301 -88 -4v706h694v-172h-528v-384c174.667 0 312.667 -44 414 -132s152 -207.667 152 -359
c0 -134.667 -46 -246.667 -138 -336s-207.333 -134 -346 -134c-78 0 -170 15 -276 45z" />
    <glyph glyph-name="six" unicode="6" 
d="M1042 1462l0.000976562 -169.001c-118 51.333 -212 77 -282 77c-124.667 0 -221 -53.333 -289 -160s-102 -257.667 -102 -453c87.333 126.667 200 190 338 190c116 0 214.333 -44.833 295 -134.5s121 -199.167 121 -328.5c0 -151.333 -43.667 -276 -131 -374
s-198.666 -147 -333.999 -147c-160.667 0 -283.5 64 -368.5 192s-127.5 313.333 -127.5 556c0 244.667 52.667 440.334 158 587.001s245.666 220 420.999 220c81.333 0 181.666 -18.667 300.999 -56zM682.001 110.999c73.333 0 133.167 31.002 179.5 93.002
s69.5 142.333 69.5 241c0 107.333 -24.833 194.166 -74.5 260.499s-114.834 99.5 -195.501 99.5c-81.333 0 -146.166 -29 -194.499 -87s-72.5 -135.333 -72.5 -232c0 -114.667 26 -205.834 78 -273.501s122 -101.5 210 -101.5z" />
    <glyph glyph-name="seven" unicode="7" 
d="M281 0c12 106.667 35.667 202 71 286s117 239 245 465l309 544h-705v185h892v-166l-48 -80c-318 -536 -494.333 -947.333 -529 -1234h-235z" />
    <glyph glyph-name="eight" unicode="8" 
d="M437 806c-134.667 98.667 -202 212.001 -202 340.001c0 112.667 38.5 202.667 115.5 270s179.833 101 308.5 101c121.333 0 215.5 -27.833 282.5 -83.5s100.5 -134.167 100.5 -235.5c0 -150.667 -86.333 -278.334 -259 -383.001c119.333 -72 202.333 -139.167 249 -201.5
s70 -136.833 70 -223.5c0 -124 -45.333 -226.167 -136 -306.5s-206 -120.5 -346 -120.5c-136.667 0 -247.5 37.833 -332.5 113.5s-127.5 174.167 -127.5 295.5c0 177.333 92.333 322 277 434zM542 726.001c-125.333 -102.667 -188 -211.999 -188 -327.999
c0 -85.333 26.167 -154.5 78.5 -207.5s120.833 -79.5 205.5 -79.5c75.333 0 138.5 22.667 189.5 68s76.5 101.666 76.5 168.999c0 108.667 -76.667 208.667 -230 300zM672 882.002c128.667 81.333 192.999 175.999 192.999 283.999c0 61.333 -20.5 110.5 -61.5 147.5
s-95.167 55.5 -162.5 55.5s-121.166 -17.667 -161.499 -53s-60.5 -82.666 -60.5 -141.999c0 -93.333 66.333 -180 199 -260z" />
    <glyph glyph-name="nine" unicode="9" 
d="M230 15v169.001c124 -48.667 218.667 -73 284 -73c123.333 0 219 53.5 287 160.5s102 257.833 102 452.5c-87.333 -126.667 -200.333 -190 -339 -190c-116 0 -214.167 44.833 -294.5 134.5s-120.5 198.834 -120.5 327.501c0 151.333 43.667 276 131 374
s198.666 147 333.999 147c160.667 0 283.334 -63.833 368.001 -191.5s127 -312.834 127 -555.501c0 -244.667 -52.5 -440.334 -157.5 -587.001s-244.5 -220 -418.5 -220c-78 0 -179 17.333 -303 52zM590 1369c-73.333 0 -133.335 -31 -180.002 -93s-70 -142 -70 -240
c0 -108 25 -195 75 -261s115.333 -99 196 -99s145.334 29 194.001 87s73 135.333 73 232c0 114 -26.167 204.833 -78.5 272.5s-122.166 101.5 -209.499 101.5z" />
    <glyph glyph-name="colon" unicode=":" 
d="M469 790v296h296v-296h-296zM469 0v296h296v-296h-296z" />
    <glyph glyph-name="semicolon" unicode=";" 
d="M469 -321v99c74 8.66699 115 82.667 123 222h-123v296h296v-179c0 -281.333 -98.667 -427.333 -296 -438zM469 790v296h296v-296h-296z" />
    <glyph glyph-name="less" unicode="&#x3c;" 
d="M1147 0l-1061 530l1061 531v-166l-730 -365l730 -364v-166z" />
    <glyph glyph-name="equal" unicode="=" 
d="M86 284v148h1061v-148h-1061zM86 654v148h1061v-148h-1061z" />
    <glyph glyph-name="greater" unicode="&#x3e;" 
d="M86 1061l1061 -531l-1061 -530v166l730 364l-730 365v166z" />
    <glyph glyph-name="question" unicode="?" 
d="M419 0v222h246v-222h-246zM443 419l0.000976562 28c0 87.333 17 163.166 51 227.499s91 129.833 171 196.5l70 58c96 79.333 144 157.333 144 234c0 138 -112.333 207 -337 207c-74.667 0 -151.334 -10 -230.001 -30v-170h-148v289c135.333 38.667 272.666 58 411.999 58
c164.667 0 290.834 -28 378.501 -84s131.5 -136.667 131.5 -242c0 -113.333 -64 -222 -192 -326l-99 -80c-57.333 -46.667 -97.333 -91.667 -120 -135s-34 -96.666 -34 -159.999v-71h-198z" />
    <glyph glyph-name="at" unicode="@" 
d="M963 33c-122 -46.667 -228.001 -69.999 -318.001 -69.999c-168.667 0 -306 67.833 -412 203.5s-159 311.167 -159 526.5c0 241.333 59.833 439.166 179.5 593.499s273.167 231.5 460.5 231.5c264.667 0 397 -147.667 397 -443v-656h123v-123h-271v332
c-76.667 -229.333 -172.334 -344 -287.001 -344c-64.667 0 -117.334 34.667 -158.001 104s-61 158.666 -61 267.999c0 150.667 36.5 278.334 109.5 383.001s162.5 157 268.5 157c36.667 0 79.334 -10.667 128.001 -32c-25.333 153.333 -111.666 230 -258.999 230
c-135.333 0 -249.5 -67.833 -342.5 -203.5s-139.5 -302.167 -139.5 -499.5c0 -176.667 41.333 -321.667 124 -435s188.334 -170 317.001 -170c86.667 0 186.667 27.667 300 83v-136zM962.999 876.001l-0.000976562 173.001c-42 27.333 -81 41 -117 41
c-74 0 -132.667 -37 -176 -111s-65 -174.333 -65 -301c0 -168.667 30.333 -251.334 91 -248.001c38 2 82.333 45.333 133 130s95.334 190 134.001 316z" />
    <glyph glyph-name="A" unicode="A" 
d="M12 0l506 1283h197l506 -1283h-209l-121 321h-586l-123 -321h-170zM364 469h468l-235 613z" />
    <glyph glyph-name="B" unicode="B" 
d="M185 0l0.000976562 1283h414c300 0 450 -99.333 450 -298c0 -76 -25.833 -141.5 -77.5 -196.5s-123.834 -94.167 -216.501 -117.5c238 -48.667 357 -161.667 357 -339c0 -101.333 -35 -180.666 -105 -237.999c-45.333 -38 -97 -63.167 -155 -75.5
s-151.333 -18.5 -280 -18.5h-387zM382.001 727.999h68.999c265.333 0 398 74 398 222c0 72.667 -25.667 121.667 -77 147s-150.666 38 -297.999 38h-92v-407zM382 147.999l178 -0.000976562c130 0 219.5 13.333 268.5 40s73.5 75.667 73.5 147
c0 82.667 -40.167 148.334 -120.5 197.001s-189.5 73 -327.5 73h-72v-457z" />
    <glyph glyph-name="C" unicode="C" 
d="M1155 40c-132 -47.333 -256.331 -70.999 -372.998 -70.999c-204 0 -368.333 61.167 -493 183.5s-187 283.166 -187 482.499c0 202 62 365.667 186 491s286 188 486 188c113.333 0 234.666 -19.333 363.999 -58v-181c-132 60.667 -255.333 91 -370 91
c-132.667 0 -241.834 -48.667 -327.501 -146s-128.5 -221.333 -128.5 -372c0 -152 48.333 -276.333 145 -373s221 -145 373 -145c92 0 200.333 24 325 72v-162z" />
    <glyph glyph-name="D" unicode="D" 
d="M130 0v1283h387c426.667 0 640 -205.333 640 -616c0 -190 -46.333 -343.667 -139 -461c-58 -74 -129.5 -126.833 -214.5 -158.5s-198.167 -47.5 -339.5 -47.5h-334zM327 148h99c188 0 321.833 37.333 401.5 112s119.5 200 119.5 376c0 178.667 -36 306.5 -108 383.5
s-192 115.5 -360 115.5h-152v-987z" />
    <glyph glyph-name="E" unicode="E" 
d="M216 0v1283h867v-148h-670v-389h568v-148h-568v-450h716v-148h-913z" />
    <glyph glyph-name="F" unicode="F" 
d="M247 0v1283h913v-148h-716v-442h611v-148h-611v-545h-197z" />
    <glyph glyph-name="G" unicode="G" 
d="M1113 1256l0.00195312 -180.999c-132 60.667 -255.333 91 -370 91c-132.667 0 -241.834 -48.667 -327.501 -146s-128.5 -221.333 -128.5 -372c0 -151.333 48.333 -275.5 145 -372.5s220 -145.5 370 -145.5c34 0 77.333 4 130 12v339h-241v148h438v-596
c-134 -42.667 -261 -64 -381 -64c-198.667 0 -360.167 61.667 -484.5 185s-186.5 283.666 -186.5 480.999c0 202 62 365.667 186 491s286 188 486 188c113.333 0 234.666 -19.333 363.999 -58z" />
    <glyph glyph-name="H" unicode="H" 
d="M148 0v1283h197v-561h543v561h198v-1283h-198v574h-543v-574h-197z" />
    <glyph glyph-name="I" unicode="I" 
d="M173 0v148h345v987h-345v148h888v-148h-345v-987h345v-148h-888z" />
    <glyph glyph-name="J" unicode="J" 
d="M197 17v167l66 -22c91.333 -30 163.666 -45 216.999 -45c94 0 159.833 24.333 197.5 73s56.5 134.667 56.5 258v687h-444v148h641v-730c0 -130 -7.66699 -226.667 -23 -290s-44.666 -119 -87.999 -167c-76 -84.667 -184.667 -127 -326 -127
c-76.667 0 -175.667 16 -297 48z" />
    <glyph glyph-name="K" unicode="K" 
d="M170 0v1283h197v-629l537 629h199l-518 -605l617 -678h-236l-599 654v-654h-197z" />
    <glyph glyph-name="L" unicode="L" 
d="M222 0v1283h197v-1135h691v-148h-888z" />
    <glyph glyph-name="M" unicode="M" 
d="M94 0v1283h237l282 -790h2l277 790h247v-1283h-161v1101h-2l-289 -830h-166l-288 807h-2v-1078h-137z" />
    <glyph glyph-name="N" unicode="N" 
d="M148 0v1287h186l589 -933h2v929h161v-1283h-182l-593 940h-3v-940h-160z" />
    <glyph glyph-name="O" unicode="O" 
d="M62 642c0 204.667 50.167 367.834 150.5 489.501s235.166 182.5 404.499 182.5s304.166 -60.833 404.499 -182.5s150.5 -284.834 150.5 -489.501c0 -205.333 -50.167 -368.833 -150.5 -490.5s-235.166 -182.5 -404.499 -182.5s-304.166 60.833 -404.499 182.5
s-150.5 285.167 -150.5 490.5zM272 642c0 -168 29.833 -297.5 89.5 -388.5s144.834 -136.5 255.501 -136.5s196 45.5 256 136.5s90 220.5 90 388.5c0 167.333 -30 296.5 -90 387.5s-145.333 136.5 -256 136.5s-195.834 -45.5 -255.501 -136.5s-89.5 -220.167 -89.5 -387.5z
" />
    <glyph glyph-name="P" unicode="P" 
d="M228 0l-0.000976562 1283h417c148.667 0 254.667 -13.333 318 -40c129.333 -56 194 -164 194 -324c0 -134.667 -52.167 -240.334 -156.5 -317.001s-248.166 -115 -431.499 -115h-144v-487h-197zM424.999 635.001h122.999c266.667 0 400 93.333 400 280
c0 78.667 -25.167 135 -75.5 169s-134.166 51 -251.499 51h-196v-500z" />
    <glyph glyph-name="Q" unicode="Q" 
d="M855 18c112 -78.667 238.335 -134.333 379.002 -167l-104 -172c-171.333 67.333 -322.333 165 -453 293c-33.333 -2 -59 -3 -77 -3c-160 0 -289.667 62 -389 186s-149 286 -149 486c0 205.333 50.167 368.833 150.5 490.5s235.166 182.5 404.499 182.5
s304.166 -60.833 404.499 -182.5s150.5 -285.167 150.5 -490.5c0 -148 -27.167 -275.5 -81.5 -382.5s-132.833 -187.167 -235.5 -240.5zM272.002 642.001c0 -168 29.833 -297.5 89.5 -388.5s144.834 -136.5 255.501 -136.5s196 45.5 256 136.5s90 220.5 90 388.5
c0 167.333 -30 296.5 -90 387.5s-145.333 136.5 -256 136.5s-195.834 -45.5 -255.501 -136.5s-89.5 -220.167 -89.5 -387.5z" />
    <glyph glyph-name="R" unicode="R" 
d="M184 0l0.000976562 1283h359c149.333 0 253 -12.333 311 -37c124 -51.333 186 -142 186 -272c0 -89.333 -22.333 -163.833 -67 -223.5s-119.334 -115.167 -224.001 -166.5l454 -584h-239l-405 534h-178v-534h-197zM381.001 683h104c106 0 190 23.333 252 70
s93 109.667 93 189c0 74 -23.333 124.667 -70 152s-132.667 41 -258 41h-121v-452z" />
    <glyph glyph-name="S" unicode="S" 
d="M1010 1253v-170.997c-144.667 56 -273.334 84 -386.001 84c-178 0 -267 -60 -267 -180c0 -48.667 16.667 -87.834 50 -117.501s95 -60.167 185 -91.5l126 -44l120 -41c186 -65.333 279 -176 279 -332c0 -118.667 -47.5 -213.5 -142.5 -284.5
s-222.167 -106.5 -381.5 -106.5c-110.667 0 -253.667 23.667 -429 71v195c174.667 -78.667 319.667 -118 435 -118c97.333 0 175 19.167 233 57.5s87 89.833 87 154.5c0 49.333 -17.167 88.333 -51.5 117s-105.166 62.667 -212.499 102l-132 48
c-131.333 48.667 -222.5 98.667 -273.5 150s-76.5 119.666 -76.5 204.999c0 115.333 39.167 204.666 117.5 267.999s188.5 95 330.5 95c115.333 0 245 -20.333 389 -61z" />
    <glyph glyph-name="T" unicode="T" 
d="M518 0v1135h-493v148h1184v-148h-493v-1135h-198z" />
    <glyph glyph-name="U" unicode="U" 
d="M153 1283h197v-779c0 -136 21.5 -234.5 64.5 -295.5s112.5 -91.5 208.5 -91.5c101.333 0 174.333 30.5 219 91.5s67 161.167 67 300.5v774h172v-745c0 -160.667 -19 -276 -57 -346c-80.667 -148.667 -213.667 -223 -399 -223c-160.667 0 -279.5 44 -356.5 132
s-115.5 223.333 -115.5 406v776z" />
    <glyph glyph-name="V" unicode="V" 
d="M512 0l-498 1283h208l410 -1020l419 1020h168l-509 -1283h-198z" />
    <glyph glyph-name="W" unicode="W" 
d="M207 0l-191 1283h168l156 -1066h3l185 795h190l182 -783h2l165 1054h150l-211 -1283h-214l-177 753h-2l-178 -753h-228z" />
    <glyph glyph-name="X" unicode="X" 
d="M11 0l503 653l-460 630h233l347 -475l367 475h192l-466 -602l492 -681h-234l-379 522l-403 -522h-192z" />
    <glyph glyph-name="Y" unicode="Y" 
d="M519 0v525l-487 758h227l373 -592l408 592h187l-511 -758v-525h-197z" />
    <glyph glyph-name="Z" unicode="Z" 
d="M99 0v148l805 987h-756v148h979v-148l-804 -987h812v-148h-1036z" />
    <glyph glyph-name="bracketleft" unicode="[" 
d="M444 -296v1875h617v-148h-444v-1579h444v-148h-617z" />
    <glyph glyph-name="backslash" unicode="\" 
d="M994 -296l-920 1875h165l920 -1875h-165z" />
    <glyph glyph-name="bracketright" unicode="]" 
d="M790 1579v-1875h-617v148h444v1579h-444v148h617z" />
    <glyph glyph-name="asciicircum" unicode="^" 
d="M86 296l530 1184l531 -1184h-166l-365 815l-364 -815h-166z" />
    <glyph glyph-name="underscore" unicode="_" 
d="M0 -148v148h1234v-148h-1234z" />
    <glyph glyph-name="grave" unicode="`" 
d="M863 1394h-160l-333 222h271z" />
    <glyph glyph-name="a" unicode="a" 
d="M835 131c-119.333 -100 -238.335 -150.003 -357.002 -150.003c-99.333 0 -181.166 28.333 -245.499 85s-96.5 128.334 -96.5 215.001c0 112.667 50 203.334 150 272.001s232 103 396 103h122v93c0 76.667 -17 131.334 -51 164.001s-90.333 49 -169 49
c-114 0 -232 -32 -354 -96v169c140 50 271.333 75 394 75c138 0 235.5 -27.333 292.5 -82s85.5 -149 85.5 -283v-455c0 -65.333 7 -109.833 21 -133.5s40.333 -35.5 79 -35.5c12.667 0 33.334 3.33301 62.001 10l18 -118c-66 -21.333 -116 -32 -150 -32
c-97.333 0 -163 50 -197 150zM803.998 258.997v274h-59c-270 0 -405 -73 -405 -219c0 -52.667 17.333 -95 52 -127s80.667 -48 138 -48c86 0 177.333 40 274 120z" />
    <glyph glyph-name="b" unicode="b" 
d="M173 -12l0.000976562 1591h197v-697c95.333 152 213.666 228 354.999 228c123.333 0 220.5 -47.5 291.5 -142.5s106.5 -224.5 106.5 -388.5c0 -180 -42 -325.667 -126 -437s-194 -167 -330 -167c-116.667 0 -215.667 49.333 -297 148l-49 -135h-148zM370.001 271
c91.333 -98.667 181.332 -147.999 269.999 -147.999c86.667 0 153.834 38.167 201.501 114.5s71.5 183.166 71.5 320.499c0 256 -76.333 384 -229 384c-111.333 0 -216 -69.333 -314 -208v-463z" />
    <glyph glyph-name="c" unicode="c" 
d="M1103 35c-116.667 -40 -232.998 -60.001 -348.998 -60.001c-189.333 0 -335.166 49.333 -437.499 148s-153.5 238.667 -153.5 420c0 178 50.5 317 151.5 417s241.5 150 421.5 150c114.667 0 230.334 -17.333 347.001 -52v-165c-128.667 46 -238.334 69 -329.001 69
c-118.667 0 -211.834 -37.333 -279.501 -112s-101.5 -177 -101.5 -307c0 -131.333 36.167 -234.166 108.5 -308.499s172.166 -111.5 299.499 -111.5c95.333 0 202.666 22.333 321.999 67v-155z" />
    <glyph glyph-name="d" unicode="d" 
d="M880 0v204c-96 -152.667 -214.667 -229 -356 -229c-122.667 0 -219.5 47.667 -290.5 143s-106.5 225 -106.5 389c0 180 42 325.5 126 436.5s194 166.5 330 166.5c116.667 0 215.667 -49.333 297 -148v617h197v-1579h-197zM880 814c-92 98.667 -181.999 148 -269.999 148
c-86.667 0 -153.834 -38 -201.501 -114s-71.5 -183 -71.5 -321c0 -255.333 76.333 -383 229 -383c111.333 0 216 69.333 314 208v462z" />
    <glyph glyph-name="e" unicode="e" 
d="M1098 43c-136.667 -45.333 -262.001 -68.001 -376.001 -68.001c-186.667 0 -330.167 48 -430.5 144s-150.5 233.333 -150.5 412c0 168.667 48.167 307.334 144.5 416.001s218.833 163 367.5 163c150 0 260.5 -45 331.5 -135s106.5 -230 106.5 -420v-63h-740
c14.667 -246 147.334 -369 398.001 -369c106 0 222.333 25.333 349 76v-156zM356.999 639.999h524v28c0 196 -81.667 294 -245 294c-78.667 0 -142.5 -28.333 -191.5 -85s-78.167 -135.667 -87.5 -237z" />
    <glyph glyph-name="f" unicode="f" 
d="M444 0v913h-296v148h296v115c0 152 35.333 261.333 106 328s186.667 100 348 100c106.667 0 207.667 -14.333 303 -43v-156c-97.333 34 -193.333 51 -288 51c-100.667 0 -171.167 -19.167 -211.5 -57.5s-60.5 -105.5 -60.5 -201.5v-136h519v-148h-519v-913h-197z" />
    <glyph glyph-name="g" unicode="g" 
d="M212 -363l21.001 166c118 -50 227.667 -75 329 -75c210.667 0 316 100.333 316 301l9 196c-82.667 -150 -202.334 -225 -359.001 -225c-124 0 -222.5 47.167 -295.5 141.5s-109.5 221.5 -109.5 381.5c0 174 42.333 315.5 127 424.5s194.667 163.5 330 163.5
c106 0 210.333 -49.667 313 -149v124h185v-869c0 -140.667 -9.33301 -246.5 -28 -317.5s-53.667 -133.833 -105 -188.5c-82 -87.333 -210.333 -131 -385 -131c-102.667 0 -218.667 19 -348 57zM881.001 385l0.000976562 427.001c-88.667 100 -180.334 150 -275.001 150
c-86 0 -153 -37.333 -201 -112s-72 -179.334 -72 -314.001c0 -114 21 -203.167 63 -267.5s100.667 -96.5 176 -96.5c116.667 0 219.667 71 309 213z" />
    <glyph glyph-name="h" unicode="h" 
d="M182 0v1579h197v-493v-204c90.667 152 214 228 370 228c206 0 309 -122.333 309 -367v-743h-197v689c0 84.667 -13.167 144.834 -39.5 180.501s-70.5 53.5 -132.5 53.5c-98.667 0 -202 -71 -310 -213v-710h-197z" />
    <glyph glyph-name="i" unicode="i" 
d="M568 0v938h-395v148h592v-1086h-197zM543 1332v247h247v-247h-247z" />
    <glyph glyph-name="j" unicode="j" 
d="M148 -367v165.001c102.667 -46.667 204.334 -70 305.001 -70c84 0 141.5 21.167 172.5 63.5s46.5 120.833 46.5 235.5v911h-444v148h641v-1019c0 -168.667 -33.167 -291.834 -99.5 -369.501s-171.833 -116.5 -316.5 -116.5c-94.667 0 -196.334 17.333 -305.001 52z
M647 1332v247h247v-247h-247z" />
    <glyph glyph-name="k" unicode="k" 
d="M213 0v1579h197v-1011l456 518h213l-429 -489l538 -597h-266l-512 568v-568h-197z" />
    <glyph glyph-name="l" unicode="l" 
d="M592 0v1431h-419v148h617v-1579h-198z" />
    <glyph glyph-name="m" unicode="m" 
d="M93 0l0.000976562 1086h173v-204c84.667 152 165.334 228 242.001 228c98 0 161 -76 189 -228h7c69.333 152 150.666 228 243.999 228c68 0 117.333 -24.833 148 -74.5s46 -129.834 46 -240.501v-795h-173v787c0 59.333 -4.33301 99.666 -13 120.999s-25 32 -49 32
c-62.667 0 -130.334 -79.667 -203.001 -239v-701h-173v751c0 74.667 -4.33301 124.5 -13 149.5s-26 37.5 -52 37.5c-28 0 -61.167 -22.833 -99.5 -68.5s-71.833 -102.5 -100.5 -170.5v-699h-173z" />
    <glyph glyph-name="n" unicode="n" 
d="M182 0v1086h197v-204c90.667 152 214 228 370 228c206 0 309 -122.333 309 -367v-743h-197v689c0 84.667 -13.167 144.834 -39.5 180.501s-70.5 53.5 -132.5 53.5c-98.667 0 -202 -71 -310 -213v-710h-197z" />
    <glyph glyph-name="o" unicode="o" 
d="M617 -25c-159.333 0 -284.5 50.5 -375.5 151.5s-136.5 239.833 -136.5 416.5c0 176 45.667 314.5 137 415.5s216.333 151.5 375 151.5c159.333 0 284.5 -50.5 375.5 -151.5s136.5 -239.5 136.5 -415.5c0 -176.667 -45.5 -315.5 -136.5 -416.5
s-216.167 -151.5 -375.5 -151.5zM617 123c94.667 0 168.667 37 222 111s80 177 80 309c0 131.333 -26.667 234 -80 308s-127.333 111 -222 111s-168.667 -37 -222 -111s-80 -176.667 -80 -308c0 -132 26.667 -235 80 -309s127.333 -111 222 -111z" />
    <glyph glyph-name="p" unicode="p" 
d="M179 -395l0.000976562 1481h197v-204c95.333 152 213.666 228 354.999 228c123.333 0 220.5 -47.5 291.5 -142.5s106.5 -224.5 106.5 -388.5c0 -180 -42 -325.667 -126 -437s-194 -167 -330 -167c-116.667 0 -215.667 49.333 -297 148v-518h-197zM376.001 271
c91.333 -98.667 181.332 -147.999 269.999 -147.999c86.667 0 153.834 38.167 201.501 114.5s71.5 183.166 71.5 320.499c0 256 -76.333 384 -229 384c-111.333 0 -216 -69.333 -314 -208v-463z" />
    <glyph glyph-name="q" unicode="q" 
d="M1061 1086v-1481h-197v599c-96 -152.667 -214.667 -229 -356 -229c-122.667 0 -219.5 47.667 -290.5 143s-106.5 225 -106.5 389c0 180 42 325.5 126 436.5s194 166.5 330 166.5c116.667 0 215.667 -49.333 297 -148h6l31 124h160zM864 814
c-92 98.667 -181.999 148 -269.999 148c-86.667 0 -153.834 -38 -201.501 -114s-71.5 -183 -71.5 -321c0 -255.333 76.333 -383 229 -383c111.333 0 216 69.333 314 208v462z" />
    <glyph glyph-name="r" unicode="r" 
d="M308 0l0.000976562 1086h197v-204c100 152 234.333 228 403 228c59.333 0 126.666 -8.33301 201.999 -25v-308h-148v151c-29.333 6.66699 -56 10 -80 10c-75.333 0 -141.5 -17.5 -198.5 -52.5s-116.5 -94.5 -178.5 -178.5v-707h-197z" />
    <glyph glyph-name="s" unicode="s" 
d="M187 44v178.001c152.667 -66 284.667 -99 396 -99c80 0 146.167 16.167 198.5 48.5s78.5 73.166 78.5 122.499c0 63.333 -62.333 115 -187 155l-211 69c-164.667 53.333 -247 147.333 -247 282c0 98.667 37.167 175 111.5 229s179.5 81 315.5 81
c102 0 220.333 -15.667 355 -47v-160c-130 39.333 -248.667 59 -356 59c-72 0 -129.5 -13 -172.5 -39s-64.5 -61 -64.5 -105c0 -54 49 -98 147 -132l249 -87c90.667 -32 155.834 -70.167 195.501 -114.5s59.5 -101.833 59.5 -172.5c0 -102.667 -42.333 -184.5 -127 -245.5
s-198.334 -91.5 -341.001 -91.5c-124.667 0 -258 23 -400 69z" />
    <glyph glyph-name="t" unicode="t" 
d="M1102 1c-98.667 -17.333 -194 -26.002 -286 -26.002c-160.667 0 -270 28.833 -328 86.5s-87 166.834 -87 327.501v524h-271v148h271v234h198v-234h481v-148h-481v-556c0 -62 3.83301 -104.667 11.5 -128s24.167 -43.666 49.5 -60.999c45.333 -30 111.333 -45 198 -45
c82 0 163.333 9.33301 244 28v-150z" />
    <glyph glyph-name="u" unicode="u" 
d="M1052 1086l0.000976562 -1086h-197v204c-90.667 -152.667 -214.334 -229 -371.001 -229c-205.333 0 -308 122.667 -308 368v743h197v-689c0 -85.333 13 -145.833 39 -181.5s70.333 -53.5 133 -53.5c98.667 0 202 71.333 310 214v710h197z" />
    <glyph glyph-name="v" unicode="v" 
d="M512 0l-450 1086h202l361 -870l372 870h175l-462 -1086h-198z" />
    <glyph glyph-name="w" unicode="w" 
d="M210 0l-198 1086h182l144 -850h2l193 751h191l183 -780h3l160 879h151l-217 -1086h-194l-191 812h-2l-211 -812h-196z" />
    <glyph glyph-name="x" unicode="x" 
d="M93 0l404 549l-402 537h247l300 -401l275 401h195l-369 -536l411 -550h-246l-311 415l-305 -415h-199z" />
    <glyph glyph-name="y" unicode="y" 
d="M142 -395l-0.000976562 148h80c74.667 0 129 12 163 36s69.667 75.667 107 155l49 104l-456 1038h204l355 -813l358 813h177l-547 -1225c-42.667 -95.333 -93.667 -161.833 -153 -199.5s-143.666 -56.5 -252.999 -56.5h-84z" />
    <glyph glyph-name="z" unicode="z" 
d="M136 0v148l711 790h-686v148h919v-148l-712 -790h730v-148h-962z" />
    <glyph glyph-name="braceleft" unicode="{" 
d="M1024 1579v-147.999h-79c-99.333 0 -169.333 -12.167 -210 -36.5s-61 -66.5 -61 -126.5c0 -22 3.33301 -52.667 10 -92l23 -139c8 -46.667 12 -85.334 12 -116.001c0 -143.333 -66 -236.333 -198 -279c131.333 -43.333 197 -137.666 197 -282.999
c0 -30 -3.66699 -67.667 -11 -113l-23 -138c-6.66699 -40 -10 -71 -10 -93c0 -60 20.333 -102.167 61 -126.5s110.667 -36.5 210 -36.5h79v-148h-109c-136 0 -240.167 24.667 -312.5 74s-108.5 120.666 -108.5 213.999c0 40 4.66699 85 14 135l34 178
c4.66699 26.667 7 53 7 79c0 122.667 -74.667 184 -224 184h-91v148h91c149.333 0 224 61 224 183c0 26 -2.33301 52.333 -7 79l-34 178c-9.33301 50 -14 95 -14 135c0 192 140.333 288 421 288h109z" />
    <glyph glyph-name="bar" unicode="|" 
d="M543 -296v1875h148v-1875h-148z" />
    <glyph glyph-name="braceright" unicode="}" 
d="M210 -296v147.999h78c100 0 170.333 12.167 211 36.5s61 66.5 61 126.5c0 22 -3.33301 53 -10 93l-23 138c-8 46.667 -12 85.334 -12 116.001c0 143.333 65.667 236.666 197 279.999c-131.333 42.667 -197 136 -197 280c0 30 4 68.333 12 115l23 139
c6.66699 39.333 10 70 10 92c0 60 -20.5 102.167 -61.5 126.5s-111.167 36.5 -210.5 36.5h-78v148h108c136.667 0 241 -24.667 313 -74s108 -120.666 108 -213.999c0 -40 -4.66699 -85 -14 -135l-33 -178c-5.33301 -26.667 -8 -53 -8 -79c0 -122 75 -183 225 -183h91v-148
h-91c-150 0 -225 -61.333 -225 -184c0 -26 2.66699 -52.333 8 -79l33 -178c9.33301 -49.333 14 -94.333 14 -135c0 -192 -140.333 -288 -421 -288h-108z" />
    <glyph glyph-name="asciitilde" unicode="~" 
d="M86 382c0 98 25.167 177.5 75.5 238.5s115.833 91.5 196.5 91.5c62.667 0 132.667 -21.667 210 -65l147 -82c74.667 -42.667 132.334 -64 173.001 -64c76.667 0 117.667 59.333 123 178h136c0 -98 -25.167 -177.5 -75.5 -238.5s-115.833 -91.5 -196.5 -91.5
c-62.667 0 -132.667 21.667 -210 65l-147 82c-74.667 42.667 -132.334 64 -173.001 64c-76.667 0 -117.667 -59.333 -123 -178h-136z" />
    <glyph glyph-name="nbspace" unicode="&#xa0;" 
 />
    <glyph glyph-name="exclamdown" unicode="&#xa1;" 
d="M690 666l25 -765v-296h-197v296l24 765h148zM493 864v222h247v-222h-247z" />
    <glyph glyph-name="cent" unicode="&#xa2;" 
d="M634 0v182c-139.333 18.667 -247 76.667 -323 174s-114 225.666 -114 384.999c0 157.333 37.5 284.5 112.5 381.5s183.167 158.5 324.5 184.5v173h123v-173c73.333 -6.66699 159 -22 257 -46v-168c-94 34.667 -179.667 57.334 -257 68.001v-837
c94 9.33301 180.333 32.666 259 69.999v-152c-74 -29.333 -160.333 -50.666 -259 -63.999v-178h-123zM634 341v811c-151.333 -34 -227 -170.333 -227 -409c0 -214.667 75.667 -348.667 227 -402z" />
    <glyph glyph-name="sterling" unicode="&#xa3;" 
d="M251 0v172.999c132.667 50.667 199 153.667 199 309v234h-173v148h173v215c0 143.333 33 252.166 99 326.499s162.333 111.5 289 111.5c63.333 0 134.666 -9.66699 213.999 -29v-168c-89.333 32.667 -162.666 49 -219.999 49c-123.333 0 -185 -70.667 -185 -212v-293h198
v-148h-198v-142c0 -91.333 -11 -163.166 -33 -215.499s-67.667 -114.166 -137 -185.499h590v-173h-816z" />
    <glyph glyph-name="currency" unicode="&#xa4;" 
d="M385 423l-185 -187v0l-89 90l187 185c-44 72.667 -66 149.667 -66 231s22 158.333 66 231l-187 186l89 89l185 -187c81.333 52 158.666 78 231.999 78c74 0 151.333 -26 232 -78l186 187l89 -89l-188 -186c44 -72.667 66 -149.667 66 -231s-22 -158.333 -66 -231
l188 -185l-89 -90v0l-186 187c-80.667 -52 -158 -78 -232 -78c-73.333 0 -150.666 26 -231.999 78zM617 493c65.333 0 121.333 24.5 168 73.5s70 107.5 70 175.5c0 68.667 -23.333 127.334 -70 176.001s-102.667 73 -168 73c-64.667 0 -120.334 -24.333 -167.001 -73
s-70 -107.334 -70 -176.001c0 -68 23.333 -126.5 70 -175.5s102.334 -73.5 167.001 -73.5z" />
    <glyph glyph-name="yen" unicode="&#xa5;" 
d="M516 0v265h-296v136h296v204h-296v135h293l-463 740h236l364 -580l389 580h170l-488 -740h288v-135h-296v-204h296v-136h-296v-265h-197z" />
    <glyph glyph-name="brokenbar" unicode="&#xa6;" 
d="M543 -296v740h148v-740h-148zM543 839v740h148v-740h-148z" />
    <glyph glyph-name="section" unicode="&#xa7;" 
d="M217 -255l-0.00195312 180.996c154.667 -74 286.334 -111 395.001 -111c66.667 0 122.5 17 167.5 51s67.5 76 67.5 126c0 46 -17.5 87.167 -52.5 123.5s-95.167 75.833 -180.5 118.5l-117 59c-176.667 89.333 -265 197 -265 323c0 48.667 9.33301 92.834 28 132.501
s56.667 96.167 114 169.5c-94.667 72 -142 154.667 -142 248c0 102.667 41.833 186.834 125.5 252.501s191.167 98.5 322.5 98.5c95.333 0 193 -13.667 293 -41v-167c-106 40 -207 60 -303 60c-77.333 0 -140.166 -16 -188.499 -48s-72.5 -74 -72.5 -126
c0 -36 11.167 -66.167 33.5 -90.5s64.5 -51.833 126.5 -82.5l130 -65c205.333 -102 308 -219 308 -351c0 -97.333 -49 -199.666 -147 -306.999c111.333 -81.333 167 -175.666 167 -282.999c0 -98.667 -40.833 -180.5 -122.5 -245.5s-184.167 -97.5 -307.5 -97.5
c-108 0 -234.667 24 -380 72zM766.998 360.996c48 74.667 72.001 136.001 72.001 184.001c0 48.667 -15.333 90.5 -46 125.5s-84.334 72.167 -161.001 111.5l-75 38l-46 22l-33 17c-46 -66.667 -69 -127.667 -69 -183c0 -47.333 14 -87.833 42 -121.5
s77.333 -68.834 148 -105.501l78 -41l50 -25c8 -4 21.333 -11.333 40 -22z" />
    <glyph glyph-name="dieresis" unicode="&#xa8;" 
d="M284 1443v173h173v-173h-173zM777 1443v173h173v-173h-173z" />
    <glyph glyph-name="copyright" unicode="&#xa9;" 
d="M617 -37c-370 0 -555.001 258.667 -555.001 776c0 518.667 185 778 555 778c182 0 320 -64.5 414 -193.5s141 -318.167 141 -567.5c0 -267.333 -45.667 -466.333 -137 -597s-230.666 -196 -417.999 -196zM616.999 74c288 0 432 221.667 432 665
c0 444.667 -144 667 -432 667s-432 -222.333 -432 -667c0 -443.333 144 -665 432 -665zM889.999 360c-82 -40 -160.334 -60 -235.001 -60c-114 0 -205.333 40.333 -274 121s-103 187.667 -103 321c0 138.667 34.333 247 103 325s163.334 117 284.001 117
c69.333 0 144 -13.333 224 -40v-144c-72 42.667 -147.667 64 -227 64c-74.667 0 -132.5 -27.333 -173.5 -82s-61.5 -131.667 -61.5 -231c0 -98.667 23.333 -176.5 70 -233.5s110.667 -85.5 192 -85.5c55.333 0 122.333 19.333 201 58v-130z" />
    <glyph glyph-name="ordfeminine" unicode="&#xaa;" 
d="M756 825c-102.667 -72.667 -195.333 -109 -278 -109c-68.667 0 -126 21.5 -172 64.5s-69 96.833 -69 161.5c0 88.667 37.333 156.5 112 203.5s182.334 70.5 323.001 70.5h70v29c0 99.333 -56.667 149 -170 149c-90.667 0 -189.334 -29.667 -296.001 -89v146
c100 44 207.333 66 322 66s196.167 -19.833 244.5 -59.5s72.5 -106.5 72.5 -200.5v-288c0 -76 24 -114 72 -114c14 0 29.667 3.66699 47 11v-115c-43.333 -23.333 -87 -35 -131 -35c-72 0 -121 36.333 -147 109zM742.001 938l-0.000976562 155h-51
c-189.333 0 -284 -47 -284 -141c0 -30 10.833 -54.833 32.5 -74.5s48.834 -29.5 81.501 -29.5c77.333 0 151 30 221 90z" />
    <glyph glyph-name="guillemotleft" unicode="&#xab;" 
d="M560 993l96 -82l-315 -374l313 -371l-91 -80l-446 451zM998 993l96 -82l-315 -374l313 -371l-91 -80l-446 451z" />
    <glyph glyph-name="logicalnot" unicode="&#xac;" 
d="M86 642v148h1061v-494h-148v346h-913z" />
    <glyph glyph-name="sfthyphen" unicode="&#xad;" 
d="M210 543v148h814v-148h-814z" />
    <glyph glyph-name="registered" unicode="&#xae;" 
d="M617 629c-122.667 0 -227.334 43.333 -314.001 130s-130 191.334 -130 314.001c0 123.333 43.333 228.166 130 314.499s191.334 129.5 314.001 129.5s227.334 -43.167 314.001 -129.5s130 -191.166 130 -314.499c0 -122.667 -43.333 -227.334 -130 -314.001
s-191.334 -130 -314.001 -130zM617 728c94.667 0 176 33.833 244 101.5s102 148.834 102 243.501s-34 176 -102 244s-149.333 102 -244 102s-175.834 -34 -243.501 -102s-101.5 -149.333 -101.5 -244s33.833 -175.834 101.5 -243.501s148.834 -101.5 243.501 -101.5z
M444 814v531h147c132.667 0 199 -47.667 199 -143c0 -66.667 -33.667 -117.667 -101 -153l124 -235h-111l-114 215h-45v-215h-99zM543 1104h34c73.333 0 110 28.667 110 86c0 52 -33 78 -99 78h-45v-164z" />
    <glyph glyph-name="overscore" unicode="&#xaf;" 
d="M0 1468v148h1234v-148h-1234z" />
    <glyph glyph-name="degree" unicode="&#xb0;" 
d="M614 1073c-62 0 -114.5 21.667 -157.5 65s-64.5 96 -64.5 158s21.5 114.333 64.5 157s95.5 64 157.5 64s114.5 -21.5 157.5 -64.5s64.5 -95.167 64.5 -156.5c0 -62 -21.5 -114.667 -64.5 -158s-95.5 -65 -157.5 -65zM614 1172c33.333 0 62.166 12.333 86.499 37
s36.5 53.334 36.5 86.001c0 33.333 -12.167 62.333 -36.5 87s-53.166 37 -86.499 37c-32.667 0 -61.334 -12.333 -86.001 -37s-37 -53.667 -37 -87c0 -32.667 12.333 -61.334 37 -86.001s53.334 -37 86.001 -37z" />
    <glyph glyph-name="plusminus" unicode="&#xb1;" 
d="M86 0v148h1061v-148h-1061zM542 296v309h-456v148h456v308h149v-308h456v-148h-456v-309h-149z" />
    <glyph glyph-name="twosuperior" unicode="&#xb2;" 
d="M302 740v140.999c44 64.667 117.333 128 220 190l74 44c76 46 123.667 78.667 143 98s29 44.333 29 75c0 70.667 -60.333 106 -181 106c-92 0 -187 -23.667 -285 -71v137c103.333 38 209.333 57 318 57c106.667 0 188.5 -19.167 245.5 -57.5s85.5 -93.5 85.5 -165.5
c0 -54 -16 -98.167 -48 -132.5s-97.333 -77.5 -196 -129.5l-78 -41c-70.667 -37.333 -119 -75.666 -145 -114.999h484v-136h-666z" />
    <glyph glyph-name="threesuperior" unicode="&#xb3;" 
d="M313 758l0.000976562 139c127.333 -38.667 221.666 -58 282.999 -58c51.333 0 92.666 9.66699 123.999 29s47 45 47 77c0 82.667 -94.667 124 -284 124h-59v123h61c188 0 282 39.333 282 118c0 56 -47 84 -141 84c-82.667 0 -187 -24 -313 -72v137
c108 38.667 220 58 336 58c198 0 297 -61.333 297 -184c0 -86 -65 -151.667 -195 -197c134.667 -38 202 -103.667 202 -197c0 -70 -30.167 -124.667 -90.5 -164s-143.166 -59 -248.499 -59c-82.667 0 -183 14 -301 42z" />
    <glyph glyph-name="acute" unicode="&#xb4;" 
d="M370 1394l222 222h271l-333 -222h-160z" />
    <glyph glyph-name="micro" unicode="&#xb5;" 
d="M182 -419l0.00195312 1505h197v-553c0 -88 6.16699 -152.333 18.5 -193s36.166 -77 71.499 -109c47.333 -43.333 101.666 -65 162.999 -65c84 0 162.333 71.333 235 214v706h197v-751c0 -144.667 20 -256.334 60 -335.001h-216c-14 38.667 -26.333 96.334 -37 173.001
c-0.666992 6.66699 -2 16.667 -4 30c-34 -84 -69.333 -143 -106 -177s-83 -51 -139 -51c-49.333 0 -91.833 10.5 -127.5 31.5s-74.167 58.5 -115.5 112.5v-14v-524h-197z" />
    <glyph glyph-name="paragraph" unicode="&#xb6;" 
d="M507 -296l0.000976562 1036c-254.667 57.333 -382 195.333 -382 414c0 106 28.333 187 85 243c55.333 55.333 162.666 83 321.999 83h469v-1776h-123v1653h-247v-1653h-124z" />
    <glyph glyph-name="middot" unicode="&#xb7;" 
d="M493 419v247h247v-247h-247z" />
    <glyph glyph-name="cedilla" unicode="&#xb8;" 
d="M611 0h97l-60 -109c51.333 0 96.5 -15.833 135.5 -47.5s58.5 -68.5 58.5 -110.5c0 -46 -19.5 -85 -58.5 -117s-86.5 -48 -142.5 -48c-48 0 -96.667 7 -146 21v81c30.667 -10 65.667 -15 105 -15c68.667 0 103 24.667 103 74c0 64 -62.333 96 -187 96z" />
    <glyph glyph-name="onesuperior" unicode="&#xb9;" 
d="M528 740v617h-185v123l358 37v-777h-173z" />
    <glyph glyph-name="ordmasculine" unicode="&#xba;" 
d="M617 716c-126.667 0 -224.169 34.667 -292.502 104s-102.5 168.333 -102.5 297c0 126.667 33.833 225 101.5 295s162.834 105 285.501 105c130.667 0 230.334 -34.333 299.001 -103s103 -167.667 103 -297c0 -128.667 -34.167 -227.667 -102.5 -297
s-165.5 -104 -291.5 -104zM616.998 839c139.333 0 209 90.667 209 272c0 188.667 -69.667 283 -209 283c-140 0 -210 -94.333 -210 -283c0 -181.333 70 -272 210 -272z" />
    <glyph glyph-name="guillemotright" unicode="&#xbb;" 
d="M236 86l-96 82l315 375l-313 371l91 79l446 -450zM674 86l-96 82l315 375l-313 371l91 79l446 -450z" />
    <glyph glyph-name="onequarter" unicode="&#xbc;" 
d="M136 740v617h-136v123l308 37v-777h-172zM40 -37l812 1554h167l-812 -1554h-167zM925 0v197h-377v141l359 427h191v-457h123v-111h-123v-197h-173zM649 308h276v330z" />
    <glyph glyph-name="onehalf" unicode="&#xbd;" 
d="M136 740v617h-136v123l308 37v-777h-172zM7 -37l812 1554h167l-812 -1554h-167zM664 0v139c50.667 91.333 126 176 226 254l43 34c51.333 40.667 77 81.667 77 123c0 69.333 -44.333 104 -133 104c-65.333 0 -136.333 -18.667 -213 -56v135c86 30 163.333 45 232 45
c88 0 159.167 -20 213.5 -60s81.5 -92.667 81.5 -158c0 -83.333 -54.333 -161 -163 -233l-55 -37l-40 -26c-48.667 -34 -83.667 -76.667 -105 -128h381v-136h-545z" />
    <glyph glyph-name="threequarters" unicode="&#xbe;" 
d="M42 880c81.333 -25.333 148.336 -38 201.003 -38c44.667 0 80.5 9.16699 107.5 27.5s40.5 42.5 40.5 72.5c0 87.333 -89.667 131 -269 131v122h30c160.667 0 241 39.667 241 119c0 58 -44.333 87 -133 87c-62.667 0 -135.334 -14 -218.001 -42v128
c81.333 20 160.666 30 237.999 30c90.667 0 162 -16.333 214 -49s78 -77.667 78 -135c0 -94 -77 -160.667 -231 -200c156 -27.333 234 -92.333 234 -195c0 -70 -29.5 -123.833 -88.5 -161.5s-143.5 -56.5 -253.5 -56.5c-62.667 0 -126.334 9.66699 -191.001 29v131z
M42.0029 -37l1017 1554h175l-1017 -1554h-175zM938.003 0v197h-377v141l358 427h192v-457h123v-111h-123v-197h-173zM662.003 308h276v330z" />
    <glyph glyph-name="questiondown" unicode="&#xbf;" 
d="M568 864v222h247v-222h-247zM790 666l-0.000976562 -14.999c0 -87.333 -16.667 -163 -50 -227s-90.333 -129.667 -171 -197l-70 -58c-96 -80 -144 -158 -144 -234c0 -137.333 112.333 -206 337 -206c74.667 0 151.334 9.66699 230.001 29v170h148v-289
c-135.333 -38.667 -272.666 -58 -411.999 -58c-164.667 0 -290.834 28 -378.501 84s-131.5 136.667 -131.5 242c0 113.333 63.667 222 191 326l100 80c57.333 46.667 97.333 91.667 120 135s34 96.666 34 159.999v58h197z" />
    <glyph glyph-name="Agrave" unicode="&#xc0;" 
d="M12 0l506 1283h197l506 -1283h-209l-121 321h-586l-123 -321h-170zM364 469h468l-235 613zM757 1394h-160l-333 222h271z" />
    <glyph glyph-name="Aacute" unicode="&#xc1;" 
d="M12 0l506 1283h197l506 -1283h-209l-121 321h-586l-123 -321h-170zM364 469h468l-235 613zM437 1394l222 222h271l-333 -222h-160z" />
    <glyph glyph-name="Acircumflex" unicode="&#xc2;" 
d="M12 0l506 1283h197l506 -1283h-209l-121 321h-586l-123 -321h-170zM364 469h468l-235 613zM616 1526l-197 -132h-160l222 222h271l222 -222h-160z" />
    <glyph glyph-name="Atilde" unicode="&#xc3;" 
d="M12 0l506 1283h197l506 -1283h-209l-121 321h-586l-123 -321h-170zM364 469h468l-235 613zM281 1394c7.33301 148 71.334 222 192.001 222c45.333 0 89.666 -11.667 132.999 -35l59 -34c36.667 -20 64.667 -30 84 -30c46 0 71 33 75 99h123
c-8 -148 -71.667 -222 -191 -222c-46 0 -90.333 12 -133 36l-60 33c-36 20 -66 30 -90 30c-42 0 -64.667 -33 -68 -99h-124z" />
    <glyph glyph-name="Adieresis" unicode="&#xc4;" 
d="M12 0l506 1283h197l506 -1283h-209l-121 321h-586l-123 -321h-170zM364 469h468l-235 613zM283 1443v173h173v-173h-173zM776 1443v173h173v-173h-173z" />
    <glyph glyph-name="Aring" unicode="&#xc5;" 
d="M715 1283l506 -1283h-209l-115 321h-592l-123 -321h-170l506 1283h1c-55.333 38.667 -83 89.334 -83 152.001c0 50.667 17.5 93.5 52.5 128.5s77.5 52.5 127.5 52.5s92.667 -17.5 128 -52.5s53 -77.833 53 -128.5c0 -62 -27.667 -112.667 -83 -152h1zM366 468.999h476
l-245 613zM616 1329c29.333 0 54.5 10.5 75.5 31.5s31.5 46.167 31.5 75.5s-10.5 54.333 -31.5 75s-46.167 31 -75.5 31s-54.333 -10.333 -75 -31s-31 -45.667 -31 -75s10.333 -54.5 31 -75.5s45.667 -31.5 75 -31.5z" />
    <glyph glyph-name="AE" unicode="&#xc6;" 
d="M0 0l565 1283h582v-148h-333v-438h266v-148h-266v-401h383v-148h-568v265h-340l-117 -265h-172zM355 413h274v624z" />
    <glyph glyph-name="Ccedilla" unicode="&#xc7;" 
d="M1155 40c-132 -47.333 -256.331 -70.999 -372.998 -70.999c-204 0 -368.333 61.167 -493 183.5s-187 283.166 -187 482.499c0 202 62 365.667 186 491s286 188 486 188c113.333 0 234.666 -19.333 363.999 -58v-181c-132 60.667 -255.333 91 -370 91
c-132.667 0 -241.834 -48.667 -327.501 -146s-128.5 -221.333 -128.5 -372c0 -152 48.333 -276.333 145 -373s221 -145 373 -145c92 0 200.333 24 325 72v-162zM700.002 0.000976562h97l-60 -109c51.333 0 96.5 -15.833 135.5 -47.5s58.5 -68.5 58.5 -110.5
c0 -46 -19.5 -85 -58.5 -117s-86.5 -48 -142.5 -48c-48 0 -96.667 7 -146 21v81c30.667 -10 65.667 -15 105 -15c68.667 0 103 24.667 103 74c0 64 -62.333 96 -187 96z" />
    <glyph glyph-name="Egrave" unicode="&#xc8;" 
d="M216 0v1283h867v-148h-670v-389h568v-148h-568v-450h716v-148h-913zM833 1394h-160l-333 222h271z" />
    <glyph glyph-name="Eacute" unicode="&#xc9;" 
d="M216 0v1283h867v-148h-670v-389h568v-148h-568v-450h716v-148h-913zM512 1394l222 222h271l-333 -222h-160z" />
    <glyph glyph-name="Ecircumflex" unicode="&#xca;" 
d="M216 0v1283h867v-148h-670v-389h568v-148h-568v-450h716v-148h-913zM675 1526l-197 -132h-160l222 222h271l222 -222h-160z" />
    <glyph glyph-name="Edieresis" unicode="&#xcb;" 
d="M216 0v1283h867v-148h-670v-389h568v-148h-568v-450h716v-148h-913zM339 1443v173h173v-173h-173zM832 1443v173h173v-173h-173z" />
    <glyph glyph-name="Igrave" unicode="&#xcc;" 
d="M173 0v148h345v987h-345v148h888v-148h-345v-987h345v-148h-888zM777 1394h-160l-333 222h271z" />
    <glyph glyph-name="Iacute" unicode="&#xcd;" 
d="M173 0v148h345v987h-345v148h888v-148h-345v-987h345v-148h-888zM457 1394l222 222h271l-333 -222h-160z" />
    <glyph glyph-name="Icircumflex" unicode="&#xce;" 
d="M173 0v148h345v987h-345v148h888v-148h-345v-987h345v-148h-888zM616 1526l-197 -132h-160l222 222h271l222 -222h-160z" />
    <glyph glyph-name="Idieresis" unicode="&#xcf;" 
d="M173 0v148h345v987h-345v148h888v-148h-345v-987h345v-148h-888zM284 1443v173h173v-173h-173zM777 1443v173h173v-173h-173z" />
    <glyph glyph-name="Eth" unicode="&#xd0;" 
d="M129 1283h387c426.667 0 640 -205.333 640 -616c0 -190 -46.333 -343.667 -139 -461c-58 -74 -129.5 -126.833 -214.5 -158.5s-198.167 -47.5 -339.5 -47.5h-334v598h-123v148h123v537zM326 148h99c188 0 321.833 37.333 401.5 112s119.5 200 119.5 376
c0 178.667 -36 306.5 -108 383.5s-192 115.5 -360 115.5h-152v-389h247v-148h-247v-450z" />
    <glyph glyph-name="Ntilde" unicode="&#xd1;" 
d="M148 0v1287h186l589 -933h2v929h161v-1283h-182l-593 940h-3v-940h-160zM295 1394c7.33301 148 71.334 222 192.001 222c45.333 0 89.666 -11.667 132.999 -35l59 -34c36.667 -20 64.667 -30 84 -30c46 0 71 33 75 99h123c-8 -148 -71.667 -222 -191 -222
c-46 0 -90.333 12 -133 36l-60 33c-36 20 -66 30 -90 30c-42 0 -64.667 -33 -68 -99h-124z" />
    <glyph glyph-name="Ograve" unicode="&#xd2;" 
d="M62 642c0 204.667 50.167 367.834 150.5 489.501s235.166 182.5 404.499 182.5s304.166 -60.833 404.499 -182.5s150.5 -284.834 150.5 -489.501c0 -205.333 -50.167 -368.833 -150.5 -490.5s-235.166 -182.5 -404.499 -182.5s-304.166 60.833 -404.499 182.5
s-150.5 285.167 -150.5 490.5zM272 642c0 -168 29.833 -297.5 89.5 -388.5s144.834 -136.5 255.501 -136.5s196 45.5 256 136.5s90 220.5 90 388.5c0 167.333 -30 296.5 -90 387.5s-145.333 136.5 -256 136.5s-195.834 -45.5 -255.501 -136.5s-89.5 -220.167 -89.5 -387.5z
M777 1394h-160l-333 222h271z" />
    <glyph glyph-name="Oacute" unicode="&#xd3;" 
d="M62 642c0 204.667 50.167 367.834 150.5 489.501s235.166 182.5 404.499 182.5s304.166 -60.833 404.499 -182.5s150.5 -284.834 150.5 -489.501c0 -205.333 -50.167 -368.833 -150.5 -490.5s-235.166 -182.5 -404.499 -182.5s-304.166 60.833 -404.499 182.5
s-150.5 285.167 -150.5 490.5zM272 642c0 -168 29.833 -297.5 89.5 -388.5s144.834 -136.5 255.501 -136.5s196 45.5 256 136.5s90 220.5 90 388.5c0 167.333 -30 296.5 -90 387.5s-145.333 136.5 -256 136.5s-195.834 -45.5 -255.501 -136.5s-89.5 -220.167 -89.5 -387.5z
M457 1394l222 222h271l-333 -222h-160z" />
    <glyph glyph-name="Ocircumflex" unicode="&#xd4;" 
d="M62 642c0 204.667 50.167 367.834 150.5 489.501s235.166 182.5 404.499 182.5s304.166 -60.833 404.499 -182.5s150.5 -284.834 150.5 -489.501c0 -205.333 -50.167 -368.833 -150.5 -490.5s-235.166 -182.5 -404.499 -182.5s-304.166 60.833 -404.499 182.5
s-150.5 285.167 -150.5 490.5zM272 642c0 -168 29.833 -297.5 89.5 -388.5s144.834 -136.5 255.501 -136.5s196 45.5 256 136.5s90 220.5 90 388.5c0 167.333 -30 296.5 -90 387.5s-145.333 136.5 -256 136.5s-195.834 -45.5 -255.501 -136.5s-89.5 -220.167 -89.5 -387.5z
M616 1526l-197 -132h-160l222 222h271l222 -222h-160z" />
    <glyph glyph-name="Otilde" unicode="&#xd5;" 
d="M62 642c0 204.667 50.167 367.834 150.5 489.501s235.166 182.5 404.499 182.5s304.166 -60.833 404.499 -182.5s150.5 -284.834 150.5 -489.501c0 -205.333 -50.167 -368.833 -150.5 -490.5s-235.166 -182.5 -404.499 -182.5s-304.166 60.833 -404.499 182.5
s-150.5 285.167 -150.5 490.5zM272 642c0 -168 29.833 -297.5 89.5 -388.5s144.834 -136.5 255.501 -136.5s196 45.5 256 136.5s90 220.5 90 388.5c0 167.333 -30 296.5 -90 387.5s-145.333 136.5 -256 136.5s-195.834 -45.5 -255.501 -136.5s-89.5 -220.167 -89.5 -387.5z
M288 1394c7.33301 148 71.334 222 192.001 222c45.333 0 89.666 -11.667 132.999 -35l59 -34c36.667 -20 64.667 -30 84 -30c46 0 71 33 75 99h123c-8 -148 -71.667 -222 -191 -222c-46 0 -90.333 12 -133 36l-60 33c-36 20 -66 30 -90 30c-42 0 -64.667 -33 -68 -99h-124z
" />
    <glyph glyph-name="Odieresis" unicode="&#xd6;" 
d="M62 642c0 204.667 50.167 367.834 150.5 489.501s235.166 182.5 404.499 182.5s304.166 -60.833 404.499 -182.5s150.5 -284.834 150.5 -489.501c0 -205.333 -50.167 -368.833 -150.5 -490.5s-235.166 -182.5 -404.499 -182.5s-304.166 60.833 -404.499 182.5
s-150.5 285.167 -150.5 490.5zM272 642c0 -168 29.833 -297.5 89.5 -388.5s144.834 -136.5 255.501 -136.5s196 45.5 256 136.5s90 220.5 90 388.5c0 167.333 -30 296.5 -90 387.5s-145.333 136.5 -256 136.5s-195.834 -45.5 -255.501 -136.5s-89.5 -220.167 -89.5 -387.5z
M284 1443v173h173v-173h-173zM777 1443v173h173v-173h-173z" />
    <glyph glyph-name="multiply" unicode="&#xd7;" 
d="M76 105l436 436l-436 436l104 105l436 -436l437 436l104 -105l-436 -436l436 -436l-104 -105l-436 436l-437 -436z" />
    <glyph glyph-name="Oslash" unicode="&#xd8;" 
d="M62 -31l140.999 197c-94 136.667 -141 295 -141 475c0 204.667 50.167 368 150.5 490s234.5 183 402.5 183c130 0 240 -35.667 330 -107l76 107h151l-140 -197c93.333 -138 140 -296.667 140 -476c0 -204 -50.167 -367 -150.5 -489s-234.166 -183 -401.499 -183
c-128 0 -238.667 35.333 -332 106l-76 -106h-150zM321.999 333l523.001 733.999c-60.667 66 -136.334 99 -227.001 99c-110 0 -195.167 -45 -255.5 -135s-90.5 -216.333 -90.5 -379c0 -119.333 16.667 -225.666 50 -318.999zM913 949.999l-525 -734
c61.333 -66 138.333 -99 231 -99c110 0 194.833 45.667 254.5 137s89.5 221.333 89.5 390c0 108 -16.667 210 -50 306z" />
    <glyph glyph-name="Ugrave" unicode="&#xd9;" 
d="M153 1283h197v-779c0 -136 21.5 -234.5 64.5 -295.5s112.5 -91.5 208.5 -91.5c101.333 0 174.333 30.5 219 91.5s67 161.167 67 300.5v774h172v-745c0 -160.667 -19 -276 -57 -346c-80.667 -148.667 -213.667 -223 -399 -223c-160.667 0 -279.5 44 -356.5 132
s-115.5 223.333 -115.5 406v776zM790 1394h-160l-333 222h271z" />
    <glyph glyph-name="Uacute" unicode="&#xda;" 
d="M153 1283h197v-779c0 -136 21.5 -234.5 64.5 -295.5s112.5 -91.5 208.5 -91.5c101.333 0 174.333 30.5 219 91.5s67 161.167 67 300.5v774h172v-745c0 -160.667 -19 -276 -57 -346c-80.667 -148.667 -213.667 -223 -399 -223c-160.667 0 -279.5 44 -356.5 132
s-115.5 223.333 -115.5 406v776zM469 1394l222 222h271l-333 -222h-160z" />
    <glyph glyph-name="Ucircumflex" unicode="&#xdb;" 
d="M153 1283h197v-779c0 -136 21.5 -234.5 64.5 -295.5s112.5 -91.5 208.5 -91.5c101.333 0 174.333 30.5 219 91.5s67 161.167 67 300.5v774h172v-745c0 -160.667 -19 -276 -57 -346c-80.667 -148.667 -213.667 -223 -399 -223c-160.667 0 -279.5 44 -356.5 132
s-115.5 223.333 -115.5 406v776zM629 1526l-197 -132h-160l222 222h271l222 -222h-160z" />
    <glyph glyph-name="Udieresis" unicode="&#xdc;" 
d="M153 1283h197v-779c0 -136 21.5 -234.5 64.5 -295.5s112.5 -91.5 208.5 -91.5c101.333 0 174.333 30.5 219 91.5s67 161.167 67 300.5v774h172v-745c0 -160.667 -19 -276 -57 -346c-80.667 -148.667 -213.667 -223 -399 -223c-160.667 0 -279.5 44 -356.5 132
s-115.5 223.333 -115.5 406v776zM324 1443v173h173v-173h-173zM817 1443v173h173v-173h-173z" />
    <glyph glyph-name="Yacute" unicode="&#xdd;" 
d="M519 0v525l-487 758h227l373 -592l408 592h187l-511 -758v-525h-197zM472 1394l222 222h271l-333 -222h-160z" />
    <glyph glyph-name="Thorn" unicode="&#xde;" 
d="M228 0l-0.000976562 1283h197v-234h220c148.667 0 254.667 -13.667 318 -41c129.333 -55.333 194 -163.333 194 -324c0 -134 -52.167 -239.333 -156.5 -316s-248.166 -115 -431.499 -115h-144v-253h-197zM424.999 401h122.999c266.667 0 400 93 400 279
c0 79.333 -25.167 136 -75.5 170s-134.166 51 -251.499 51h-196v-500z" />
    <glyph glyph-name="germandbls" unicode="&#xdf;" 
d="M191 0l0.000976562 1160c0 164.667 28.5 279.834 85.5 345.501s156.833 98.5 299.5 98.5c113.333 0 202.833 -23.667 268.5 -71s98.5 -112 98.5 -194c0 -82.667 -38.333 -174 -115 -274l-45 -58c-31.333 -40.667 -47 -75.667 -47 -105c0 -38 20.333 -74.333 61 -109
l208 -178c114 -98 171 -202.333 171 -313c0 -98 -31 -177 -93 -237s-143.667 -90 -245 -90c-96.667 0 -198.667 19 -306 57v171c122 -53.333 215 -80 279 -80c120 0 180 52.333 180 157c0 36 -7.83301 66.333 -23.5 91s-47.834 58 -96.501 100l-193 167
c-78.667 67.333 -118 136 -118 206c0 65.333 32.667 144.333 98 237l34 50c36 51.333 54 108.666 54 171.999c0 102 -59.667 153 -179 153s-179 -74 -179 -222v-1234h-197z" />
    <glyph glyph-name="agrave" unicode="&#xe0;" 
d="M835 131c-119.333 -100 -238.335 -150.003 -357.002 -150.003c-99.333 0 -181.166 28.333 -245.499 85s-96.5 128.334 -96.5 215.001c0 112.667 50 203.334 150 272.001s232 103 396 103h122v93c0 76.667 -17 131.334 -51 164.001s-90.333 49 -169 49
c-114 0 -232 -32 -354 -96v169c140 50 271.333 75 394 75c138 0 235.5 -27.333 292.5 -82s85.5 -149 85.5 -283v-455c0 -65.333 7 -109.833 21 -133.5s40.333 -35.5 79 -35.5c12.667 0 33.334 3.33301 62.001 10l18 -118c-66 -21.333 -116 -32 -150 -32
c-97.333 0 -163 50 -197 150zM803.998 258.997v274h-59c-270 0 -405 -73 -405 -219c0 -52.667 17.333 -95 52 -127s80.667 -48 138 -48c86 0 177.333 40 274 120zM779.998 1283h-148l-321 321h228z" />
    <glyph glyph-name="aacute" unicode="&#xe1;" 
d="M835 131c-119.333 -100 -238.335 -150.003 -357.002 -150.003c-99.333 0 -181.166 28.333 -245.499 85s-96.5 128.334 -96.5 215.001c0 112.667 50 203.334 150 272.001s232 103 396 103h122v93c0 76.667 -17 131.334 -51 164.001s-90.333 49 -169 49
c-114 0 -232 -32 -354 -96v169c140 50 271.333 75 394 75c138 0 235.5 -27.333 292.5 -82s85.5 -149 85.5 -283v-455c0 -65.333 7 -109.833 21 -133.5s40.333 -35.5 79 -35.5c12.667 0 33.334 3.33301 62.001 10l18 -118c-66 -21.333 -116 -32 -150 -32
c-97.333 0 -163 50 -197 150zM803.998 258.997v274h-59c-270 0 -405 -73 -405 -219c0 -52.667 17.333 -95 52 -127s80.667 -48 138 -48c86 0 177.333 40 274 120zM483.998 1283l241 321h228l-321 -321h-148z" />
    <glyph glyph-name="acircumflex" unicode="&#xe2;" 
d="M835 131c-119.333 -100 -238.335 -150.003 -357.002 -150.003c-99.333 0 -181.166 28.333 -245.499 85s-96.5 128.334 -96.5 215.001c0 112.667 50 203.334 150 272.001s232 103 396 103h122v93c0 76.667 -17 131.334 -51 164.001s-90.333 49 -169 49
c-114 0 -232 -32 -354 -96v169c140 50 271.333 75 394 75c138 0 235.5 -27.333 292.5 -82s85.5 -149 85.5 -283v-455c0 -65.333 7 -109.833 21 -133.5s40.333 -35.5 79 -35.5c12.667 0 33.334 3.33301 62.001 10l18 -118c-66 -21.333 -116 -32 -150 -32
c-97.333 0 -163 50 -197 150zM803.998 258.997v274h-59c-270 0 -405 -73 -405 -219c0 -52.667 17.333 -95 52 -127s80.667 -48 138 -48c86 0 177.333 40 274 120zM281.998 1283l241 321h218l241 -321h-148l-201 202h-2l-201 -202h-148z" />
    <glyph glyph-name="atilde" unicode="&#xe3;" 
d="M835 131c-119.333 -100 -238.335 -150.003 -357.002 -150.003c-99.333 0 -181.166 28.333 -245.499 85s-96.5 128.334 -96.5 215.001c0 112.667 50 203.334 150 272.001s232 103 396 103h122v93c0 76.667 -17 131.334 -51 164.001s-90.333 49 -169 49
c-114 0 -232 -32 -354 -96v169c140 50 271.333 75 394 75c138 0 235.5 -27.333 292.5 -82s85.5 -149 85.5 -283v-455c0 -65.333 7 -109.833 21 -133.5s40.333 -35.5 79 -35.5c12.667 0 33.334 3.33301 62.001 10l18 -118c-66 -21.333 -116 -32 -150 -32
c-97.333 0 -163 50 -197 150zM803.998 258.997v274h-59c-270 0 -405 -73 -405 -219c0 -52.667 17.333 -95 52 -127s80.667 -48 138 -48c86 0 177.333 40 274 120zM266.998 1283c7.33301 156 69 234 185 234c48.667 0 93.667 -12.667 135 -38l60 -37
c37.333 -23.333 65.666 -35 84.999 -35c46 0 72 36.667 78 110h123c-7.33301 -156 -69 -234 -185 -234c-48.667 0 -93.667 13 -135 39l-60 37c-37.333 22.667 -65.666 34 -84.999 34c-46 0 -72 -36.667 -78 -110h-123z" />
    <glyph glyph-name="adieresis" unicode="&#xe4;" 
d="M835 131c-119.333 -100 -238.335 -150.003 -357.002 -150.003c-99.333 0 -181.166 28.333 -245.499 85s-96.5 128.334 -96.5 215.001c0 112.667 50 203.334 150 272.001s232 103 396 103h122v93c0 76.667 -17 131.334 -51 164.001s-90.333 49 -169 49
c-114 0 -232 -32 -354 -96v169c140 50 271.333 75 394 75c138 0 235.5 -27.333 292.5 -82s85.5 -149 85.5 -283v-455c0 -65.333 7 -109.833 21 -133.5s40.333 -35.5 79 -35.5c12.667 0 33.334 3.33301 62.001 10l18 -118c-66 -21.333 -116 -32 -150 -32
c-97.333 0 -163 50 -197 150zM803.998 258.997v274h-59c-270 0 -405 -73 -405 -219c0 -52.667 17.333 -95 52 -127s80.667 -48 138 -48c86 0 177.333 40 274 120zM374.998 1283v173h173v-173h-173zM769.998 1283v173h173v-173h-173z" />
    <glyph glyph-name="aring" unicode="&#xe5;" 
d="M835 131c-119.333 -100 -238.335 -150.003 -357.002 -150.003c-99.333 0 -181.166 28.333 -245.499 85s-96.5 128.334 -96.5 215.001c0 112.667 50 203.334 150 272.001s232 103 396 103h122v93c0 76.667 -17 131.334 -51 164.001s-90.333 49 -169 49
c-114 0 -232 -32 -354 -96v169c140 50 271.333 75 394 75c138 0 235.5 -27.333 292.5 -82s85.5 -149 85.5 -283v-455c0 -65.333 7 -109.833 21 -133.5s40.333 -35.5 79 -35.5c12.667 0 33.334 3.33301 62.001 10l18 -118c-66 -21.333 -116 -32 -150 -32
c-97.333 0 -163 50 -197 150zM803.998 258.997v274h-59c-270 0 -405 -73 -405 -219c0 -52.667 17.333 -95 52 -127s80.667 -48 138 -48c86 0 177.333 40 274 120zM631.998 1246c-51.333 0 -95 18 -131 54s-54 79.667 -54 131s18 95 54 131s79.667 54 131 54s95 -18 131 -54
s54 -79.667 54 -131s-18 -95 -54 -131s-79.667 -54 -131 -54zM631.998 1320c30.667 0 56.834 10.833 78.501 32.5s32.5 47.834 32.5 78.501s-10.833 56.834 -32.5 78.501s-47.834 32.5 -78.501 32.5s-56.834 -10.833 -78.501 -32.5s-32.5 -47.834 -32.5 -78.501
s10.833 -56.834 32.5 -78.501s47.834 -32.5 78.501 -32.5z" />
    <glyph glyph-name="ae" unicode="&#xe6;" 
d="M593 126c-78.667 -100.667 -163.667 -151 -255 -151c-84 0 -153.167 29.5 -207.5 88.5s-81.5 133.833 -81.5 224.5c0 102.667 39 189 117 259s174.667 105 290 105h66v116c0 129.333 -53.667 194 -161 194c-64 0 -137 -17.667 -219 -53v150
c90.667 34 181.334 51 272.001 51c113.333 0 194.666 -39.667 243.999 -119c62.667 79.333 136 119 220 119c217.333 0 326 -175.333 326 -526v-68h-496c0 -136.667 17.333 -234.667 52 -294s92 -89 172 -89s168.667 21.333 266 64v-156c-138 -44 -241.333 -66 -310 -66
c-70 0 -127.333 11.5 -172 34.5s-85.667 61.833 -123 116.5zM522 225l0.000976562 304h-48c-68.667 0 -125.834 -20.667 -171.501 -62s-68.5 -93 -68.5 -155c0 -50 14 -90.667 42 -122s64.667 -47 110 -47c37.333 0 75.333 19.667 114 59zM708.001 652h311v47
c0 96 -11 163.833 -33 203.5s-59.667 59.5 -113 59.5c-50.667 0 -90.667 -23.667 -120 -71s-44 -112 -44 -194z" />
    <glyph glyph-name="ccedilla" unicode="&#xe7;" 
d="M1103 35c-116.667 -40 -232.998 -60.001 -348.998 -60.001c-189.333 0 -335.166 49.333 -437.499 148s-153.5 238.667 -153.5 420c0 178 50.5 317 151.5 417s241.5 150 421.5 150c114.667 0 230.334 -17.333 347.001 -52v-165c-128.667 46 -238.334 69 -329.001 69
c-118.667 0 -211.834 -37.333 -279.501 -112s-101.5 -177 -101.5 -307c0 -131.333 36.167 -234.166 108.5 -308.499s172.166 -111.5 299.499 -111.5c95.333 0 202.666 22.333 321.999 67v-155zM627.002 -0.000976562h97l-60 -109c51.333 0 96.5 -15.833 135.5 -47.5
s58.5 -68.5 58.5 -110.5c0 -46 -19.5 -85 -58.5 -117s-86.5 -48 -142.5 -48c-48 0 -96.667 7 -146 21v81c30.667 -10 65.667 -15 105 -15c68.667 0 103 24.667 103 74c0 64 -62.333 96 -187 96z" />
    <glyph glyph-name="egrave" unicode="&#xe8;" 
d="M1098 43c-136.667 -45.333 -262.001 -68.001 -376.001 -68.001c-186.667 0 -330.167 48 -430.5 144s-150.5 233.333 -150.5 412c0 168.667 48.167 307.334 144.5 416.001s218.833 163 367.5 163c150 0 260.5 -45 331.5 -135s106.5 -230 106.5 -420v-63h-740
c14.667 -246 147.334 -369 398.001 -369c106 0 222.333 25.333 349 76v-156zM356.999 639.999h524v28c0 196 -81.667 294 -245 294c-78.667 0 -142.5 -28.333 -191.5 -85s-78.167 -135.667 -87.5 -237zM802.999 1283h-148l-321 321h228z" />
    <glyph glyph-name="eacute" unicode="&#xe9;" 
d="M1098 43c-136.667 -45.333 -262.001 -68.001 -376.001 -68.001c-186.667 0 -330.167 48 -430.5 144s-150.5 233.333 -150.5 412c0 168.667 48.167 307.334 144.5 416.001s218.833 163 367.5 163c150 0 260.5 -45 331.5 -135s106.5 -230 106.5 -420v-63h-740
c14.667 -246 147.334 -369 398.001 -369c106 0 222.333 25.333 349 76v-156zM356.999 639.999h524v28c0 196 -81.667 294 -245 294c-78.667 0 -142.5 -28.333 -191.5 -85s-78.167 -135.667 -87.5 -237zM505.999 1283l241 321h228l-321 -321h-148z" />
    <glyph glyph-name="ecircumflex" unicode="&#xea;" 
d="M1098 43c-136.667 -45.333 -262.001 -68.001 -376.001 -68.001c-186.667 0 -330.167 48 -430.5 144s-150.5 233.333 -150.5 412c0 168.667 48.167 307.334 144.5 416.001s218.833 163 367.5 163c150 0 260.5 -45 331.5 -135s106.5 -230 106.5 -420v-63h-740
c14.667 -246 147.334 -369 398.001 -369c106 0 222.333 25.333 349 76v-156zM356.999 639.999h524v28c0 196 -81.667 294 -245 294c-78.667 0 -142.5 -28.333 -191.5 -85s-78.167 -135.667 -87.5 -237zM301.999 1283l241 321h218l241 -321h-148l-201 202h-2l-201 -202h-148z
" />
    <glyph glyph-name="edieresis" unicode="&#xeb;" 
d="M1098 43c-136.667 -45.333 -262.001 -68.001 -376.001 -68.001c-186.667 0 -330.167 48 -430.5 144s-150.5 233.333 -150.5 412c0 168.667 48.167 307.334 144.5 416.001s218.833 163 367.5 163c150 0 260.5 -45 331.5 -135s106.5 -230 106.5 -420v-63h-740
c14.667 -246 147.334 -369 398.001 -369c106 0 222.333 25.333 349 76v-156zM356.999 639.999h524v28c0 196 -81.667 294 -245 294c-78.667 0 -142.5 -28.333 -191.5 -85s-78.167 -135.667 -87.5 -237zM410.999 1283v173h173v-173h-173zM805.999 1283v173h173v-173h-173z
" />
    <glyph glyph-name="igrave" unicode="&#xec;" 
d="M568 0v938h-395v148h592v-1086h-197zM815 1283h-148l-321 321h228z" />
    <glyph glyph-name="iacute" unicode="&#xed;" 
d="M568 0v938h-395v148h592v-1086h-197zM481 1283l241 321h228l-321 -321h-148z" />
    <glyph glyph-name="icircumflex" unicode="&#xee;" 
d="M568 0v938h-395v148h592v-1086h-197zM318 1283l241 321h218l241 -321h-148l-201 202h-2l-201 -202h-148z" />
    <glyph glyph-name="idieresis" unicode="&#xef;" 
d="M568 0v938h-395v148h592v-1086h-197zM370 1283v173h173v-173h-173zM765 1283v173h173v-173h-173z" />
    <glyph glyph-name="eth" unicode="&#xf0;" 
d="M745 1067c-37.333 66 -105.664 139.667 -204.997 221l-237 -158l-69 103l188 129c-87.333 39.333 -190.333 62.333 -309 69v148h23c166.667 0 314.667 -37.333 444 -112l169 112l71 -101l-130 -89c137.333 -96.667 244.166 -216.5 320.499 -359.5
s114.5 -293.833 114.5 -452.5c0 -181.333 -46.333 -327 -139 -437s-215.334 -165 -368.001 -165c-151.333 0 -273.5 51.667 -366.5 155s-139.5 239.333 -139.5 408c0 162.667 46 295 138 397s211.667 153 359 153c41.333 0 86.666 -7 135.999 -21zM623.002 123
c93.333 0 167.167 37.8311 221.5 113.498s81.5 178.834 81.5 309.501c0 264.667 -99.667 397 -299 397c-95.333 0 -170 -36 -224 -108s-81 -171.333 -81 -298c0 -127.333 27 -228.166 81 -302.499s127.333 -111.5 220 -111.5z" />
    <glyph glyph-name="ntilde" unicode="&#xf1;" 
d="M182 0v1086h197v-204c90.667 152 214 228 370 228c206 0 309 -122.333 309 -367v-743h-197v689c0 84.667 -13.167 144.834 -39.5 180.501s-70.5 53.5 -132.5 53.5c-98.667 0 -202 -71 -310 -213v-710h-197zM281 1283c7.33301 156 69 234 185 234
c48.667 0 93.667 -12.667 135 -38l60 -37c37.333 -23.333 65.666 -35 84.999 -35c46 0 72 36.667 78 110h123c-7.33301 -156 -69 -234 -185 -234c-48.667 0 -93.667 13 -135 39l-60 37c-37.333 22.667 -65.666 34 -84.999 34c-46 0 -72 -36.667 -78 -110h-123z" />
    <glyph glyph-name="ograve" unicode="&#xf2;" 
d="M617 -25c-159.333 0 -284.5 50.5 -375.5 151.5s-136.5 239.833 -136.5 416.5c0 176 45.667 314.5 137 415.5s216.333 151.5 375 151.5c159.333 0 284.5 -50.5 375.5 -151.5s136.5 -239.5 136.5 -415.5c0 -176.667 -45.5 -315.5 -136.5 -416.5
s-216.167 -151.5 -375.5 -151.5zM617 123c94.667 0 168.667 37 222 111s80 177 80 309c0 131.333 -26.667 234 -80 308s-127.333 111 -222 111s-168.667 -37 -222 -111s-80 -176.667 -80 -308c0 -132 26.667 -235 80 -309s127.333 -111 222 -111zM765 1283h-148l-321 321
h228z" />
    <glyph glyph-name="oacute" unicode="&#xf3;" 
d="M617 -25c-159.333 0 -284.5 50.5 -375.5 151.5s-136.5 239.833 -136.5 416.5c0 176 45.667 314.5 137 415.5s216.333 151.5 375 151.5c159.333 0 284.5 -50.5 375.5 -151.5s136.5 -239.5 136.5 -415.5c0 -176.667 -45.5 -315.5 -136.5 -416.5
s-216.167 -151.5 -375.5 -151.5zM617 123c94.667 0 168.667 37 222 111s80 177 80 309c0 131.333 -26.667 234 -80 308s-127.333 111 -222 111s-168.667 -37 -222 -111s-80 -176.667 -80 -308c0 -132 26.667 -235 80 -309s127.333 -111 222 -111zM469 1283l241 321h228
l-321 -321h-148z" />
    <glyph glyph-name="ocircumflex" unicode="&#xf4;" 
d="M617 -25c-159.333 0 -284.5 50.5 -375.5 151.5s-136.5 239.833 -136.5 416.5c0 176 45.667 314.5 137 415.5s216.333 151.5 375 151.5c159.333 0 284.5 -50.5 375.5 -151.5s136.5 -239.5 136.5 -415.5c0 -176.667 -45.5 -315.5 -136.5 -416.5
s-216.167 -151.5 -375.5 -151.5zM617 123c94.667 0 168.667 37 222 111s80 177 80 309c0 131.333 -26.667 234 -80 308s-127.333 111 -222 111s-168.667 -37 -222 -111s-80 -176.667 -80 -308c0 -132 26.667 -235 80 -309s127.333 -111 222 -111zM267 1283l241 321h218
l241 -321h-148l-201 202h-2l-201 -202h-148z" />
    <glyph glyph-name="otilde" unicode="&#xf5;" 
d="M617 -25c-159.333 0 -284.5 50.5 -375.5 151.5s-136.5 239.833 -136.5 416.5c0 176 45.667 314.5 137 415.5s216.333 151.5 375 151.5c159.333 0 284.5 -50.5 375.5 -151.5s136.5 -239.5 136.5 -415.5c0 -176.667 -45.5 -315.5 -136.5 -416.5
s-216.167 -151.5 -375.5 -151.5zM617 123c94.667 0 168.667 37 222 111s80 177 80 309c0 131.333 -26.667 234 -80 308s-127.333 111 -222 111s-168.667 -37 -222 -111s-80 -176.667 -80 -308c0 -132 26.667 -235 80 -309s127.333 -111 222 -111zM284 1283
c7.33301 156 69 234 185 234c48.667 0 93.667 -12.667 135 -38l60 -37c37.333 -23.333 65.666 -35 84.999 -35c46 0 72 36.667 78 110h123c-7.33301 -156 -69 -234 -185 -234c-48.667 0 -93.667 13 -135 39l-60 37c-37.333 22.667 -65.666 34 -84.999 34
c-46 0 -72 -36.667 -78 -110h-123z" />
    <glyph glyph-name="odieresis" unicode="&#xf6;" 
d="M617 -25c-159.333 0 -284.5 50.5 -375.5 151.5s-136.5 239.833 -136.5 416.5c0 176 45.667 314.5 137 415.5s216.333 151.5 375 151.5c159.333 0 284.5 -50.5 375.5 -151.5s136.5 -239.5 136.5 -415.5c0 -176.667 -45.5 -315.5 -136.5 -416.5
s-216.167 -151.5 -375.5 -151.5zM617 123c94.667 0 168.667 37 222 111s80 177 80 309c0 131.333 -26.667 234 -80 308s-127.333 111 -222 111s-168.667 -37 -222 -111s-80 -176.667 -80 -308c0 -132 26.667 -235 80 -309s127.333 -111 222 -111zM333 1283v173h173v-173
h-173zM728 1283v173h173v-173h-173z" />
    <glyph glyph-name="divide" unicode="&#xf7;" 
d="M505 0v222h223v-222h-223zM86 456v149h1061v-149h-1061zM505 839v222h223v-222h-223z" />
    <glyph glyph-name="oslash" unicode="&#xf8;" 
d="M804 888c-54.667 49.333 -117.667 74 -189 74c-96 0 -170 -37.833 -222 -113.5s-78 -183.167 -78 -322.5c0 -68.667 11.333 -134.667 34 -198l8 -23zM105 -25l124.999 163c-83.333 108 -125 243.333 -125 406c0 174.667 45.5 312.667 136.5 414s214.5 152 370.5 152
c116 0 215.333 -27.333 298 -82l64 82h155l-126 -165c84 -103.333 126 -236 126 -398c0 -176.667 -45.167 -316.167 -135.5 -418.5s-213.166 -153.5 -368.499 -153.5c-120.667 0 -221.667 27 -303 81l-62 -81h-155zM428.999 196c49.333 -48.667 112.667 -73 190 -73
c96.667 0 171 38 223 114s78 184.667 78 326c0 76.667 -14.333 149.667 -43 219z" />
    <glyph glyph-name="ugrave" unicode="&#xf9;" 
d="M1052 1086l0.000976562 -1086h-197v204c-90.667 -152.667 -214.334 -229 -371.001 -229c-205.333 0 -308 122.667 -308 368v743h197v-689c0 -85.333 13 -145.833 39 -181.5s70.333 -53.5 133 -53.5c98.667 0 202 71.333 310 214v710h197zM762.001 1283h-148l-321 321h228
z" />
    <glyph glyph-name="uacute" unicode="&#xfa;" 
d="M1052 1086l0.000976562 -1086h-197v204c-90.667 -152.667 -214.334 -229 -371.001 -229c-205.333 0 -308 122.667 -308 368v743h197v-689c0 -85.333 13 -145.833 39 -181.5s70.333 -53.5 133 -53.5c98.667 0 202 71.333 310 214v710h197zM466.001 1283l241 321h228
l-321 -321h-148z" />
    <glyph glyph-name="ucircumflex" unicode="&#xfb;" 
d="M1052 1086l0.000976562 -1086h-197v204c-90.667 -152.667 -214.334 -229 -371.001 -229c-205.333 0 -308 122.667 -308 368v743h197v-689c0 -85.333 13 -145.833 39 -181.5s70.333 -53.5 133 -53.5c98.667 0 202 71.333 310 214v710h197zM264.001 1283l241 321h218
l241 -321h-148l-201 202h-2l-201 -202h-148z" />
    <glyph glyph-name="udieresis" unicode="&#xfc;" 
d="M1052 1086l0.000976562 -1086h-197v204c-90.667 -152.667 -214.334 -229 -371.001 -229c-205.333 0 -308 122.667 -308 368v743h197v-689c0 -85.333 13 -145.833 39 -181.5s70.333 -53.5 133 -53.5c98.667 0 202 71.333 310 214v710h197zM355.001 1283v173h173v-173h-173
zM750.001 1283v173h173v-173h-173z" />
    <glyph glyph-name="yacute" unicode="&#xfd;" 
d="M142 -395l-0.000976562 148h80c74.667 0 129 12 163 36s69.667 75.667 107 155l49 104l-456 1038h204l355 -813l358 813h177l-547 -1225c-42.667 -95.333 -93.667 -161.833 -153 -199.5s-143.666 -56.5 -252.999 -56.5h-84zM495.999 1283l241 321h228l-321 -321h-148z
" />
    <glyph glyph-name="thorn" unicode="&#xfe;" 
d="M179 -395l0.000976562 1974h197v-697c95.333 152 213.666 228 354.999 228c123.333 0 220.5 -47.5 291.5 -142.5s106.5 -224.5 106.5 -388.5c0 -180 -42 -325.667 -126 -437s-194 -167 -330 -167c-116.667 0 -215.667 49.333 -297 148v-518h-197zM376.001 271
c91.333 -98.667 181.332 -147.999 269.999 -147.999c86.667 0 153.834 38.167 201.501 114.5s71.5 183.166 71.5 320.499c0 256 -76.333 384 -229 384c-111.333 0 -216 -69.333 -314 -208v-463z" />
    <glyph glyph-name="ydieresis" unicode="&#xff;" 
d="M142 -395l-0.000976562 148h80c74.667 0 129 12 163 36s69.667 75.667 107 155l49 104l-456 1038h204l355 -813l358 813h177l-547 -1225c-42.667 -95.333 -93.667 -161.833 -153 -199.5s-143.666 -56.5 -252.999 -56.5h-84zM366.999 1283v173h173v-173h-173z
M761.999 1283v173h173v-173h-173z" />
    <glyph glyph-name="Amacron" unicode="&#x100;" 
d="M12 0l506 1283h197l506 -1283h-209l-121 321h-586l-123 -321h-170zM364 469h468l-235 613zM296 1468v148h642v-148h-642z" />
    <glyph glyph-name="amacron" unicode="&#x101;" 
d="M835 131c-119.333 -100 -238.335 -150.003 -357.002 -150.003c-99.333 0 -181.166 28.333 -245.499 85s-96.5 128.334 -96.5 215.001c0 112.667 50 203.334 150 272.001s232 103 396 103h122v93c0 76.667 -17 131.334 -51 164.001s-90.333 49 -169 49
c-114 0 -232 -32 -354 -96v169c140 50 271.333 75 394 75c138 0 235.5 -27.333 292.5 -82s85.5 -149 85.5 -283v-455c0 -65.333 7 -109.833 21 -133.5s40.333 -35.5 79 -35.5c12.667 0 33.334 3.33301 62.001 10l18 -118c-66 -21.333 -116 -32 -150 -32
c-97.333 0 -163 50 -197 150zM803.998 258.997v274h-59c-270 0 -405 -73 -405 -219c0 -52.667 17.333 -95 52 -127s80.667 -48 138 -48c86 0 177.333 40 274 120zM285.998 1283v148h642v-148h-642z" />
    <glyph glyph-name="Abreve" unicode="&#x102;" 
d="M12 0l506 1283h197l506 -1283h-209l-121 321h-586l-123 -321h-170zM364 469h468l-235 613zM283 1616h123c40 -65.333 110 -98 210 -98s170 32.667 210 98h123c-48.667 -148 -159.667 -222 -333 -222s-284.333 74 -333 222z" />
    <glyph glyph-name="abreve" unicode="&#x103;" 
d="M835 131c-119.333 -100 -238.335 -150.003 -357.002 -150.003c-99.333 0 -181.166 28.333 -245.499 85s-96.5 128.334 -96.5 215.001c0 112.667 50 203.334 150 272.001s232 103 396 103h122v93c0 76.667 -17 131.334 -51 164.001s-90.333 49 -169 49
c-114 0 -232 -32 -354 -96v169c140 50 271.333 75 394 75c138 0 235.5 -27.333 292.5 -82s85.5 -149 85.5 -283v-455c0 -65.333 7 -109.833 21 -133.5s40.333 -35.5 79 -35.5c12.667 0 33.334 3.33301 62.001 10l18 -118c-66 -21.333 -116 -32 -150 -32
c-97.333 0 -163 50 -197 150zM803.998 258.997v274h-59c-270 0 -405 -73 -405 -219c0 -52.667 17.333 -95 52 -127s80.667 -48 138 -48c86 0 177.333 40 274 120zM298.998 1579h123.001c21.333 -98.667 91.333 -148 210 -148s188.667 49.333 210 148h123
c-10 -90 -45.333 -161.833 -106 -215.5s-136.334 -80.5 -227.001 -80.5s-166.167 26.833 -226.5 80.5s-95.833 125.5 -106.5 215.5z" />
    <glyph glyph-name="Aogonek" unicode="&#x104;" 
d="M12 0l506 1283h197l506 -1283h-209l-121 321h-586l-123 -321h-170zM364 469h468l-235 613zM1196 -371c-46 -16 -90.333 -24.001 -133 -24.001c-130.667 0 -196 50.667 -196 152c0 74.667 48.667 155.667 146 243h128c-88 -85.333 -132 -154.666 -132 -207.999
c0 -60 37 -90 111 -90c22.667 0 48 4.66699 76 14v-87z" />
    <glyph glyph-name="aogonek" unicode="&#x105;" 
d="M835 131c-119.333 -100 -238.335 -150.003 -357.002 -150.003c-99.333 0 -181.166 28.333 -245.499 85s-96.5 128.334 -96.5 215.001c0 112.667 50 203.334 150 272.001s232 103 396 103h122v93c0 76.667 -17 131.334 -51 164.001s-90.333 49 -169 49
c-114 0 -232 -32 -354 -96v169c140 50 271.333 75 394 75c138 0 235.5 -27.333 292.5 -82s85.5 -149 85.5 -283v-455c0 -65.333 7 -109.833 21 -133.5s40.333 -35.5 79 -35.5c12.667 0 33.334 3.33301 62.001 10l18 -118c-66 -21.333 -116 -32 -150 -32
c-97.333 0 -163 50 -197 150zM803.998 258.997v274h-59c-270 0 -405 -73 -405 -219c0 -52.667 17.333 -95 52 -127s80.667 -48 138 -48c86 0 177.333 40 274 120zM1164 -371.003c-46 -16 -90.333 -24.001 -133 -24.001c-130.667 0 -196 50.667 -196 152
c0 74.667 48.667 155.667 146 243h128c-88 -85.333 -132 -154.666 -132 -207.999c0 -60 37 -90 111 -90c22.667 0 48 4.66699 76 14v-87z" />
    <glyph glyph-name="Cacute" unicode="&#x106;" 
d="M1155 40c-132 -47.333 -256.331 -70.999 -372.998 -70.999c-204 0 -368.333 61.167 -493 183.5s-187 283.166 -187 482.499c0 202 62 365.667 186 491s286 188 486 188c113.333 0 234.666 -19.333 363.999 -58v-181c-132 60.667 -255.333 91 -370 91
c-132.667 0 -241.834 -48.667 -327.501 -146s-128.5 -221.333 -128.5 -372c0 -152 48.333 -276.333 145 -373s221 -145 373 -145c92 0 200.333 24 325 72v-162zM625.002 1394l222 222h271l-333 -222h-160z" />
    <glyph glyph-name="cacute" unicode="&#x107;" 
d="M1103 35c-116.667 -40 -232.998 -60.001 -348.998 -60.001c-189.333 0 -335.166 49.333 -437.499 148s-153.5 238.667 -153.5 420c0 178 50.5 317 151.5 417s241.5 150 421.5 150c114.667 0 230.334 -17.333 347.001 -52v-165c-128.667 46 -238.334 69 -329.001 69
c-118.667 0 -211.834 -37.333 -279.501 -112s-101.5 -177 -101.5 -307c0 -131.333 36.167 -234.166 108.5 -308.499s172.166 -111.5 299.499 -111.5c95.333 0 202.666 22.333 321.999 67v-155zM595.002 1283l241 321h228l-321 -321h-148z" />
    <glyph glyph-name="Ccircumflex" unicode="&#x108;" 
d="M1155 40c-132 -47.333 -256.331 -70.999 -372.998 -70.999c-204 0 -368.333 61.167 -493 183.5s-187 283.166 -187 482.499c0 202 62 365.667 186 491s286 188 486 188c113.333 0 234.666 -19.333 363.999 -58v-181c-132 60.667 -255.333 91 -370 91
c-132.667 0 -241.834 -48.667 -327.501 -146s-128.5 -221.333 -128.5 -372c0 -152 48.333 -276.333 145 -373s221 -145 373 -145c92 0 200.333 24 325 72v-162zM780.002 1526l-197 -132h-160l222 222h271l222 -222h-160z" />
    <glyph glyph-name="ccircumflex" unicode="&#x109;" 
d="M1103 35c-116.667 -40 -232.998 -60.001 -348.998 -60.001c-189.333 0 -335.166 49.333 -437.499 148s-153.5 238.667 -153.5 420c0 178 50.5 317 151.5 417s241.5 150 421.5 150c114.667 0 230.334 -17.333 347.001 -52v-165c-128.667 46 -238.334 69 -329.001 69
c-118.667 0 -211.834 -37.333 -279.501 -112s-101.5 -177 -101.5 -307c0 -131.333 36.167 -234.166 108.5 -308.499s172.166 -111.5 299.499 -111.5c95.333 0 202.666 22.333 321.999 67v-155zM393.002 1283l241 321h218l241 -321h-148l-201 202h-2l-201 -202h-148z" />
    <glyph glyph-name="Cdot" unicode="&#x10a;" 
d="M1155 40c-132 -47.333 -256.331 -70.999 -372.998 -70.999c-204 0 -368.333 61.167 -493 183.5s-187 283.166 -187 482.499c0 202 62 365.667 186 491s286 188 486 188c113.333 0 234.666 -19.333 363.999 -58v-181c-132 60.667 -255.333 91 -370 91
c-132.667 0 -241.834 -48.667 -327.501 -146s-128.5 -221.333 -128.5 -372c0 -152 48.333 -276.333 145 -373s221 -145 373 -145c92 0 200.333 24 325 72v-162zM674.002 1394v222h222v-222h-222z" />
    <glyph glyph-name="cdot" unicode="&#x10b;" 
d="M1103 35c-116.667 -40 -232.998 -60.001 -348.998 -60.001c-189.333 0 -335.166 49.333 -437.499 148s-153.5 238.667 -153.5 420c0 178 50.5 317 151.5 417s241.5 150 421.5 150c114.667 0 230.334 -17.333 347.001 -52v-165c-128.667 46 -238.334 69 -329.001 69
c-118.667 0 -211.834 -37.333 -279.501 -112s-101.5 -177 -101.5 -307c0 -131.333 36.167 -234.166 108.5 -308.499s172.166 -111.5 299.499 -111.5c95.333 0 202.666 22.333 321.999 67v-155zM632.002 1283v222h222v-222h-222z" />
    <glyph glyph-name="Ccaron" unicode="&#x10c;" 
d="M1155 40c-132 -47.333 -256.331 -70.999 -372.998 -70.999c-204 0 -368.333 61.167 -493 183.5s-187 283.166 -187 482.499c0 202 62 365.667 186 491s286 188 486 188c113.333 0 234.666 -19.333 363.999 -58v-181c-132 60.667 -255.333 91 -370 91
c-132.667 0 -241.834 -48.667 -327.501 -146s-128.5 -221.333 -128.5 -372c0 -152 48.333 -276.333 145 -373s221 -145 373 -145c92 0 200.333 24 325 72v-162zM785.002 1485l197 131h160l-222 -222h-271l-222 222h160z" />
    <glyph glyph-name="ccaron" unicode="&#x10d;" 
d="M1103 35c-116.667 -40 -232.998 -60.001 -348.998 -60.001c-189.333 0 -335.166 49.333 -437.499 148s-153.5 238.667 -153.5 420c0 178 50.5 317 151.5 417s241.5 150 421.5 150c114.667 0 230.334 -17.333 347.001 -52v-165c-128.667 46 -238.334 69 -329.001 69
c-118.667 0 -211.834 -37.333 -279.501 -112s-101.5 -177 -101.5 -307c0 -131.333 36.167 -234.166 108.5 -308.499s172.166 -111.5 299.499 -111.5c95.333 0 202.666 22.333 321.999 67v-155zM1093 1604l-241 -321h-218l-241 321h148l201 -202h2l201 202h148z" />
    <glyph glyph-name="Dcaron" unicode="&#x10e;" 
d="M130 0v1283h387c426.667 0 640 -205.333 640 -616c0 -190 -46.333 -343.667 -139 -461c-58 -74 -129.5 -126.833 -214.5 -158.5s-198.167 -47.5 -339.5 -47.5h-334zM327 148h99c188 0 321.833 37.333 401.5 112s119.5 200 119.5 376c0 178.667 -36 306.5 -108 383.5
s-192 115.5 -360 115.5h-152v-987zM517 1485l197 131h160l-222 -222h-271l-222 222h160z" />
    <glyph glyph-name="dcaron" unicode="&#x10f;" 
d="M880 0v204c-96 -152.667 -214.667 -229 -356 -229c-122.667 0 -219.5 47.667 -290.5 143s-106.5 225 -106.5 389c0 180 42 325.5 126 436.5s194 166.5 330 166.5c116.667 0 215.667 -49.333 297 -148v617h197v-1579h-197zM880 814c-92 98.667 -181.999 148 -269.999 148
c-86.667 0 -153.834 -38 -201.501 -114s-71.5 -183 -71.5 -321c0 -255.333 76.333 -383 229 -383c111.333 0 216 69.333 314 208v462zM781.001 1604l-241 -321h-218l-241 321h148l201 -202h2l201 202h148z" />
    <glyph glyph-name="Dmacron" unicode="&#x110;" 
d="M129 1283h387c426.667 0 640 -205.333 640 -616c0 -190 -46.333 -343.667 -139 -461c-58 -74 -129.5 -126.833 -214.5 -158.5s-198.167 -47.5 -339.5 -47.5h-334v598h-123v148h123v537zM326 148h99c188 0 321.833 37.333 401.5 112s119.5 200 119.5 376
c0 178.667 -36 306.5 -108 383.5s-192 115.5 -360 115.5h-152v-389h247v-148h-247v-450z" />
    <glyph glyph-name="dmacron" unicode="&#x111;" 
d="M880 0v204c-96 -152.667 -214.667 -229 -356 -229c-122.667 0 -219.5 47.667 -290.5 143s-106.5 225 -106.5 389c0 180 42 325.5 126 436.5s194 166.5 330 166.5c116.667 0 215.667 -49.333 297 -148v296h-321v124h321v197h197v-197h150v-124h-150v-1258h-197zM880 814
c-92 98.667 -181.999 148 -269.999 148c-86.667 0 -153.834 -38 -201.501 -114s-71.5 -183 -71.5 -321c0 -255.333 76.333 -383 229 -383c111.333 0 216 69.333 314 208v462z" />
    <glyph glyph-name="Emacron" unicode="&#x112;" 
d="M216 0v1283h867v-148h-670v-389h568v-148h-568v-450h716v-148h-913zM315 1468v148h642v-148h-642z" />
    <glyph glyph-name="emacron" unicode="&#x113;" 
d="M1098 43c-136.667 -45.333 -262.001 -68.001 -376.001 -68.001c-186.667 0 -330.167 48 -430.5 144s-150.5 233.333 -150.5 412c0 168.667 48.167 307.334 144.5 416.001s218.833 163 367.5 163c150 0 260.5 -45 331.5 -135s106.5 -230 106.5 -420v-63h-740
c14.667 -246 147.334 -369 398.001 -369c106 0 222.333 25.333 349 76v-156zM356.999 639.999h524v28c0 196 -81.667 294 -245 294c-78.667 0 -142.5 -28.333 -191.5 -85s-78.167 -135.667 -87.5 -237zM337.999 1283v148h642v-148h-642z" />
    <glyph glyph-name="Ebreve" unicode="&#x114;" 
d="M216 0v1283h867v-148h-670v-389h568v-148h-568v-450h716v-148h-913zM315 1616h123c40 -65.333 110 -98 210 -98s170 32.667 210 98h123c-48.667 -148 -159.667 -222 -333 -222s-284.333 74 -333 222z" />
    <glyph glyph-name="ebreve" unicode="&#x115;" 
d="M1098 43c-136.667 -45.333 -262.001 -68.001 -376.001 -68.001c-186.667 0 -330.167 48 -430.5 144s-150.5 233.333 -150.5 412c0 168.667 48.167 307.334 144.5 416.001s218.833 163 367.5 163c150 0 260.5 -45 331.5 -135s106.5 -230 106.5 -420v-63h-740
c14.667 -246 147.334 -369 398.001 -369c106 0 222.333 25.333 349 76v-156zM356.999 639.999h524v28c0 196 -81.667 294 -245 294c-78.667 0 -142.5 -28.333 -191.5 -85s-78.167 -135.667 -87.5 -237zM320.999 1579h123.001c21.333 -98.667 91.333 -148 210 -148
s188.667 49.333 210 148h123c-10 -90 -45.333 -161.833 -106 -215.5s-136.334 -80.5 -227.001 -80.5s-166.167 26.833 -226.5 80.5s-95.833 125.5 -106.5 215.5z" />
    <glyph glyph-name="Edot" unicode="&#x116;" 
d="M216 0v1283h867v-148h-670v-389h568v-148h-568v-450h716v-148h-913zM538 1394v222h222v-222h-222z" />
    <glyph glyph-name="edot" unicode="&#x117;" 
d="M1098 43c-136.667 -45.333 -262.001 -68.001 -376.001 -68.001c-186.667 0 -330.167 48 -430.5 144s-150.5 233.333 -150.5 412c0 168.667 48.167 307.334 144.5 416.001s218.833 163 367.5 163c150 0 260.5 -45 331.5 -135s106.5 -230 106.5 -420v-63h-740
c14.667 -246 147.334 -369 398.001 -369c106 0 222.333 25.333 349 76v-156zM356.999 639.999h524v28c0 196 -81.667 294 -245 294c-78.667 0 -142.5 -28.333 -191.5 -85s-78.167 -135.667 -87.5 -237zM542.999 1283v222h222v-222h-222z" />
    <glyph glyph-name="Eogonek" unicode="&#x118;" 
d="M216 0v1283h867v-148h-670v-389h568v-148h-568v-450h716v-148h-913zM1092 -371c-46 -16 -90.333 -24.001 -133 -24.001c-130.667 0 -196 50.667 -196 152c0 74.667 48.667 155.667 146 243h128c-88 -85.333 -132 -154.666 -132 -207.999c0 -60 37 -90 111 -90
c22.667 0 48 4.66699 76 14v-87z" />
    <glyph glyph-name="eogonek" unicode="&#x119;" 
d="M1098 43c-136.667 -45.333 -262.001 -68.001 -376.001 -68.001c-186.667 0 -330.167 48 -430.5 144s-150.5 233.333 -150.5 412c0 168.667 48.167 307.334 144.5 416.001s218.833 163 367.5 163c150 0 260.5 -45 331.5 -135s106.5 -230 106.5 -420v-63h-740
c14.667 -246 147.334 -369 398.001 -369c106 0 222.333 25.333 349 76v-156zM356.999 639.999h524v28c0 196 -81.667 294 -245 294c-78.667 0 -142.5 -28.333 -191.5 -85s-78.167 -135.667 -87.5 -237zM950.999 -371.001c-46 -16 -90.333 -24.001 -133 -24.001
c-130.667 0 -196 50.667 -196 152c0 74.667 48.667 155.667 146 243h128c-88 -85.333 -132 -154.666 -132 -207.999c0 -60 37 -90 111 -90c22.667 0 48 4.66699 76 14v-87z" />
    <glyph glyph-name="Ecaron" unicode="&#x11a;" 
d="M216 0v1283h867v-148h-670v-389h568v-148h-568v-450h716v-148h-913zM673 1485l197 131h160l-222 -222h-271l-222 222h160z" />
    <glyph glyph-name="ecaron" unicode="&#x11b;" 
d="M1098 43c-136.667 -45.333 -262.001 -68.001 -376.001 -68.001c-186.667 0 -330.167 48 -430.5 144s-150.5 233.333 -150.5 412c0 168.667 48.167 307.334 144.5 416.001s218.833 163 367.5 163c150 0 260.5 -45 331.5 -135s106.5 -230 106.5 -420v-63h-740
c14.667 -246 147.334 -369 398.001 -369c106 0 222.333 25.333 349 76v-156zM356.999 639.999h524v28c0 196 -81.667 294 -245 294c-78.667 0 -142.5 -28.333 -191.5 -85s-78.167 -135.667 -87.5 -237zM1005 1604l-241 -321h-218l-241 321h148l201 -202h2l201 202h148z" />
    <glyph glyph-name="Gcircumflex" unicode="&#x11c;" 
d="M1113 1256l0.00195312 -180.999c-132 60.667 -255.333 91 -370 91c-132.667 0 -241.834 -48.667 -327.501 -146s-128.5 -221.333 -128.5 -372c0 -151.333 48.333 -275.5 145 -372.5s220 -145.5 370 -145.5c34 0 77.333 4 130 12v339h-241v148h438v-596
c-134 -42.667 -261 -64 -381 -64c-198.667 0 -360.167 61.667 -484.5 185s-186.5 283.666 -186.5 480.999c0 202 62 365.667 186 491s286 188 486 188c113.333 0 234.666 -19.333 363.999 -58zM755.002 1526l-197 -132h-160l222 222h271l222 -222h-160z" />
    <glyph glyph-name="gcircumflex" unicode="&#x11d;" 
d="M212 -363l21.001 166c118 -50 227.667 -75 329 -75c210.667 0 316 100.333 316 301l9 196c-82.667 -150 -202.334 -225 -359.001 -225c-124 0 -222.5 47.167 -295.5 141.5s-109.5 221.5 -109.5 381.5c0 174 42.333 315.5 127 424.5s194.667 163.5 330 163.5
c106 0 210.333 -49.667 313 -149v124h185v-869c0 -140.667 -9.33301 -246.5 -28 -317.5s-53.667 -133.833 -105 -188.5c-82 -87.333 -210.333 -131 -385 -131c-102.667 0 -218.667 19 -348 57zM881.001 385l0.000976562 427.001c-88.667 100 -180.334 150 -275.001 150
c-86 0 -153 -37.333 -201 -112s-72 -179.334 -72 -314.001c0 -114 21 -203.167 63 -267.5s100.667 -96.5 176 -96.5c116.667 0 219.667 71 309 213zM280.002 1283l241 321h218l241 -321h-148l-201 202h-2l-201 -202h-148z" />
    <glyph glyph-name="Gbreve" unicode="&#x11e;" 
d="M1113 1256l0.00195312 -180.999c-132 60.667 -255.333 91 -370 91c-132.667 0 -241.834 -48.667 -327.501 -146s-128.5 -221.333 -128.5 -372c0 -151.333 48.333 -275.5 145 -372.5s220 -145.5 370 -145.5c34 0 77.333 4 130 12v339h-241v148h438v-596
c-134 -42.667 -261 -64 -381 -64c-198.667 0 -360.167 61.667 -484.5 185s-186.5 283.666 -186.5 480.999c0 202 62 365.667 186 491s286 188 486 188c113.333 0 234.666 -19.333 363.999 -58zM427.002 1616h123c40 -65.333 110 -98 210 -98s170 32.667 210 98h123
c-48.667 -148 -159.667 -222 -333 -222s-284.333 74 -333 222z" />
    <glyph glyph-name="gbreve" unicode="&#x11f;" 
d="M212 -363l21.001 166c118 -50 227.667 -75 329 -75c210.667 0 316 100.333 316 301l9 196c-82.667 -150 -202.334 -225 -359.001 -225c-124 0 -222.5 47.167 -295.5 141.5s-109.5 221.5 -109.5 381.5c0 174 42.333 315.5 127 424.5s194.667 163.5 330 163.5
c106 0 210.333 -49.667 313 -149v124h185v-869c0 -140.667 -9.33301 -246.5 -28 -317.5s-53.667 -133.833 -105 -188.5c-82 -87.333 -210.333 -131 -385 -131c-102.667 0 -218.667 19 -348 57zM881.001 385l0.000976562 427.001c-88.667 100 -180.334 150 -275.001 150
c-86 0 -153 -37.333 -201 -112s-72 -179.334 -72 -314.001c0 -114 21 -203.167 63 -267.5s100.667 -96.5 176 -96.5c116.667 0 219.667 71 309 213zM292.002 1579h123.001c21.333 -98.667 91.333 -148 210 -148s188.667 49.333 210 148h123
c-10 -90 -45.333 -161.833 -106 -215.5s-136.334 -80.5 -227.001 -80.5s-166.167 26.833 -226.5 80.5s-95.833 125.5 -106.5 215.5z" />
    <glyph glyph-name="Gdot" unicode="&#x120;" 
d="M1113 1256l0.00195312 -180.999c-132 60.667 -255.333 91 -370 91c-132.667 0 -241.834 -48.667 -327.501 -146s-128.5 -221.333 -128.5 -372c0 -151.333 48.333 -275.5 145 -372.5s220 -145.5 370 -145.5c34 0 77.333 4 130 12v339h-241v148h438v-596
c-134 -42.667 -261 -64 -381 -64c-198.667 0 -360.167 61.667 -484.5 185s-186.5 283.666 -186.5 480.999c0 202 62 365.667 186 491s286 188 486 188c113.333 0 234.666 -19.333 363.999 -58zM649.002 1394v222h222v-222h-222z" />
    <glyph glyph-name="gdot" unicode="&#x121;" 
d="M212 -363l21.001 166c118 -50 227.667 -75 329 -75c210.667 0 316 100.333 316 301l9 196c-82.667 -150 -202.334 -225 -359.001 -225c-124 0 -222.5 47.167 -295.5 141.5s-109.5 221.5 -109.5 381.5c0 174 42.333 315.5 127 424.5s194.667 163.5 330 163.5
c106 0 210.333 -49.667 313 -149v124h185v-869c0 -140.667 -9.33301 -246.5 -28 -317.5s-53.667 -133.833 -105 -188.5c-82 -87.333 -210.333 -131 -385 -131c-102.667 0 -218.667 19 -348 57zM881.001 385l0.000976562 427.001c-88.667 100 -180.334 150 -275.001 150
c-86 0 -153 -37.333 -201 -112s-72 -179.334 -72 -314.001c0 -114 21 -203.167 63 -267.5s100.667 -96.5 176 -96.5c116.667 0 219.667 71 309 213zM500.002 1283v222h222v-222h-222z" />
    <glyph glyph-name="Gcedilla" unicode="&#x122;" 
d="M1113 1256l0.00195312 -180.999c-132 60.667 -255.333 91 -370 91c-132.667 0 -241.834 -48.667 -327.501 -146s-128.5 -221.333 -128.5 -372c0 -151.333 48.333 -275.5 145 -372.5s220 -145.5 370 -145.5c34 0 77.333 4 130 12v339h-241v148h438v-596
c-134 -42.667 -261 -64 -381 -64c-198.667 0 -360.167 61.667 -484.5 185s-186.5 283.666 -186.5 480.999c0 202 62 365.667 186 491s286 188 486 188c113.333 0 234.666 -19.333 363.999 -58zM700.002 0.000976562h97l-60 -109c51.333 0 96.5 -15.833 135.5 -47.5
s58.5 -68.5 58.5 -110.5c0 -46 -19.5 -85 -58.5 -117s-86.5 -48 -142.5 -48c-48 0 -96.667 7 -146 21v81c30.667 -10 65.667 -15 105 -15c68.667 0 103 24.667 103 74c0 64 -62.333 96 -187 96z" />
    <glyph glyph-name="gcedilla" unicode="&#x123;" 
d="M212 -363l21.001 166c118 -50 227.667 -75 329 -75c106.667 0 183 22 229 66s75 122.333 87 235l21 196h-12c-82.667 -150 -202.334 -225 -359.001 -225c-124 0 -222.5 47.167 -295.5 141.5s-109.5 221.5 -109.5 381.5c0 174 42.333 315.5 127 424.5
s194.667 163.5 330 163.5c106 0 210.333 -49.667 313 -149h12v124h173v-869c0 -140.667 -9.33301 -246.5 -28 -317.5s-53.667 -133.833 -105 -188.5c-82 -87.333 -210.333 -131 -385 -131c-102.667 0 -218.667 19 -348 57zM881.001 385l0.000976562 427.001
c-88.667 100 -180.334 150 -275.001 150c-86 0 -153 -37.333 -201 -112s-72 -179.334 -72 -314.001c0 -114 21 -203.167 63 -267.5s100.667 -96.5 176 -96.5c116.667 0 219.667 71 309 213zM709.002 1616v-59c-49.333 -15.333 -74 -56 -74 -122v-16h74v-198h-197v172
c0 134.667 65.667 209 197 223z" />
    <glyph glyph-name="Hcircumflex" unicode="&#x124;" 
d="M148 0v1283h197v-561h543v561h198v-1283h-198v574h-543v-574h-197zM616 1526l-197 -132h-160l222 222h271l222 -222h-160z" />
    <glyph glyph-name="hcircumflex" unicode="&#x125;" 
d="M182 0v1579h197v-493v-204c90.667 152 214 228 370 228c206 0 309 -122.333 309 -367v-743h-197v689c0 84.667 -13.167 144.834 -39.5 180.501s-70.5 53.5 -132.5 53.5c-98.667 0 -202 -71 -310 -213v-710h-197zM478 1283l241 321h218l241 -321h-148l-201 202h-2
l-201 -202h-148z" />
    <glyph glyph-name="Hbar" unicode="&#x126;" 
d="M345 722h543v216h-542zM148 0v938h-123v148h123v197h197v-197h543v197h198v-197h123v-148h-123v-938h-198v574h-543v-574h-197z" />
    <glyph glyph-name="hbar" unicode="&#x127;" 
d="M182 1258l-148 -0.000976562v124h148v197h197v-197h297v-124h-297v-172v-204c90.667 152 214 228 370 228c206 0 309 -122.333 309 -367v-743h-197v689c0 84.667 -13.167 144.834 -39.5 180.501s-70.5 53.5 -132.5 53.5c-98.667 0 -202 -71 -310 -213v-710h-197v1258z
" />
    <glyph glyph-name="Itilde" unicode="&#x128;" 
d="M173 0v148h345v987h-345v148h888v-148h-345v-987h345v-148h-888zM284 1394c7.33301 148 71.334 222 192.001 222c45.333 0 89.666 -11.667 132.999 -35l59 -34c36.667 -20 64.667 -30 84 -30c46 0 71 33 75 99h123c-8 -148 -71.667 -222 -191 -222
c-46 0 -90.333 12 -133 36l-60 33c-36 20 -66 30 -90 30c-42 0 -64.667 -33 -68 -99h-124z" />
    <glyph glyph-name="itilde" unicode="&#x129;" 
d="M568 0v938h-395v148h592v-1086h-197zM173 1283c7.33301 156 69 234 185 234c48.667 0 93.667 -12.667 135 -38l60 -37c37.333 -23.333 65.666 -35 84.999 -35c46 0 72 36.667 78 110h123c-7.33301 -156 -69 -234 -185 -234c-48.667 0 -93.667 13 -135 39l-60 37
c-37.333 22.667 -65.666 34 -84.999 34c-46 0 -72 -36.667 -78 -110h-123z" />
    <glyph glyph-name="Imacron" unicode="&#x12a;" 
d="M173 0v148h345v987h-345v148h888v-148h-345v-987h345v-148h-888zM296 1468v148h642v-148h-642z" />
    <glyph glyph-name="imacron" unicode="&#x12b;" 
d="M568 0v938h-395v148h592v-1086h-197zM323 1283v148h642v-148h-642z" />
    <glyph glyph-name="Ibreve" unicode="&#x12c;" 
d="M173 0v148h345v987h-345v148h888v-148h-345v-987h345v-148h-888zM284 1616h123c40 -65.333 110 -98 210 -98s170 32.667 210 98h123c-48.667 -148 -159.667 -222 -333 -222s-284.333 74 -333 222z" />
    <glyph glyph-name="ibreve" unicode="&#x12d;" 
d="M568 0v938h-395v148h592v-1086h-197zM309 1579h123.001c21.333 -98.667 91.333 -148 210 -148s188.667 49.333 210 148h123c-10 -90 -45.333 -161.833 -106 -215.5s-136.334 -80.5 -227.001 -80.5s-166.167 26.833 -226.5 80.5s-95.833 125.5 -106.5 215.5z" />
    <glyph glyph-name="Iogonek" unicode="&#x12e;" 
d="M173 0v148h345v987h-345v148h888v-148h-345v-987h345v-148h-888zM1012 -371c-46 -16 -90.333 -24.001 -133 -24.001c-130.667 0 -196 50.667 -196 152c0 74.667 48.667 155.667 146 243h128c-88 -85.333 -132 -154.666 -132 -207.999c0 -60 37 -90 111 -90
c22.667 0 48 4.66699 76 14v-87z" />
    <glyph glyph-name="iogonek" unicode="&#x12f;" 
d="M568 0v938h-395v148h592v-1086h-197zM543 1332v247h247v-247h-247zM820 -371c-46 -16 -90.333 -24.001 -133 -24.001c-130.667 0 -196 50.667 -196 152c0 74.667 48.667 155.667 146 243h128c-88 -85.333 -132 -154.666 -132 -207.999c0 -60 37 -90 111 -90
c22.667 0 48 4.66699 76 14v-87z" />
    <glyph glyph-name="Idot" unicode="&#x130;" 
d="M173 0v148h345v987h-345v148h888v-148h-345v-987h345v-148h-888zM506 1394v222h222v-222h-222z" />
    <glyph glyph-name="dotlessi" unicode="&#x131;" 
d="M568 0v938h-395v148h592v-1086h-197z" />
    <glyph glyph-name="IJ" unicode="&#x132;" 
d="M49 0v148h136v987h-136v148h469v-148h-136v-987h136v-148h-469zM925 1135h-247v148h445v-750v-183c0 -117.333 -28.667 -207.5 -86 -270.5s-139 -94.5 -245 -94.5c-36.667 0 -82.667 5 -138 15v159c60 -17.333 105.667 -26 137 -26c89.333 0 134 64.333 134 193v809z" />
    <glyph glyph-name="ij" unicode="&#x133;" 
d="M259 0v938h-197v148h395v-1086h-198zM235 1332v247h246v-247h-246zM1037 1086v-1086c0 -279.333 -118 -419 -354 -419c-70.667 0 -146 16.667 -226 50v156c91.333 -38.667 161.333 -58 210 -58c54.667 0 97 14.667 127 44c20 20 32.5 42.667 37.5 68s7.5 78.333 7.5 159
v938h-197v148h395zM815 1332v247h246v-247h-246z" />
    <glyph glyph-name="Jcircumflex" unicode="&#x134;" 
d="M197 17v167l66 -22c91.333 -30 163.666 -45 216.999 -45c94 0 159.833 24.333 197.5 73s56.5 134.667 56.5 258v687h-444v148h641v-730c0 -130 -7.66699 -226.667 -23 -290s-44.666 -119 -87.999 -167c-76 -84.667 -184.667 -127 -326 -127
c-76.667 0 -175.667 16 -297 48zM647 1526l-197 -132h-160l222 222h271l222 -222h-160z" />
    <glyph glyph-name="jcircumflex" unicode="&#x135;" 
d="M148 -367v165.001c102.667 -46.667 204.334 -70 305.001 -70c84 0 141.5 21.167 172.5 63.5s46.5 120.833 46.5 235.5v911h-444v148h641v-1019c0 -168.667 -33.167 -291.834 -99.5 -369.501s-171.833 -116.5 -316.5 -116.5c-94.667 0 -196.334 17.333 -305.001 52z
M228 1283l241 321h218l241 -321h-149l-200 202h-2l-201 -202h-148z" />
    <glyph glyph-name="Kcedilla" unicode="&#x136;" 
d="M170 0v1283h197v-629l537 629h199l-518 -605l617 -678h-236l-599 654v-654h-197zM966 0h97l-60 -109c51.333 0 96.5 -15.833 135.5 -47.5s58.5 -68.5 58.5 -110.5c0 -46 -19.5 -85 -58.5 -117s-86.5 -48 -142.5 -48c-48 0 -96.667 7 -146 21v81
c30.667 -10 65.667 -15 105 -15c68.667 0 103 24.667 103 74c0 64 -62.333 96 -187 96z" />
    <glyph glyph-name="kcedilla" unicode="&#x137;" 
d="M213 0v1579h197v-1011l456 518h213l-429 -489l538 -597h-266l-512 568v-568h-197zM922 0h97l-60 -109c51.333 0 96.5 -15.833 135.5 -47.5s58.5 -68.5 58.5 -110.5c0 -46 -19.5 -85 -58.5 -117s-86.5 -48 -142.5 -48c-48 0 -96.667 7 -146 21v81
c30.667 -10 65.667 -15 105 -15c68.667 0 103 24.667 103 74c0 64 -62.333 96 -187 96z" />
    <glyph glyph-name="kra" unicode="&#x138;" 
d="M442 463v-463.001h-197v1086h197v-475l43 1c63.333 0 107.666 10.167 132.999 30.5s58 72.5 98 156.5l22 46c48 100.667 91.167 166 129.5 196s98.166 45 179.499 45v-148c-39.333 0 -68.666 -9.16699 -87.999 -27.5s-45 -60.833 -77 -127.5l-19 -40l-25 -55
c-29.333 -60.667 -77 -108 -143 -142c54.667 -18.667 96 -43.167 124 -73.5s66 -91.166 114 -182.499l40 -76c46.667 -88.667 88.334 -160 125.001 -214h-218c-18.667 37.333 -39.667 77 -63 119l-54 95c-69.333 124 -127 207 -173 249h-148z" />
    <glyph glyph-name="Lacute" unicode="&#x139;" 
d="M222 0v1283h197v-1135h691v-148h-888zM259 1394l222 222h271l-333 -222h-160z" />
    <glyph glyph-name="lacute" unicode="&#x13a;" 
d="M469 0v1431h-296v148h494v-1579h-198zM765 1283l241 321h228l-321 -321h-148z" />
    <glyph glyph-name="Lcedilla" unicode="&#x13b;" 
d="M222 0v1283h197v-1135h691v-148h-888zM613 0h97l-60 -109c51.333 0 96.5 -15.833 135.5 -47.5s58.5 -68.5 58.5 -110.5c0 -46 -19.5 -85 -58.5 -117s-86.5 -48 -142.5 -48c-48 0 -96.667 7 -146 21v81c30.667 -10 65.667 -15 105 -15c68.667 0 103 24.667 103 74
c0 64 -62.333 96 -187 96z" />
    <glyph glyph-name="lcedilla" unicode="&#x13c;" 
d="M592 0v1431h-419v148h617v-1579h-198zM592 0h97l-60 -109c51.333 0 96.5 -15.833 135.5 -47.5s58.5 -68.5 58.5 -110.5c0 -46 -19.5 -85 -58.5 -117s-86.5 -48 -142.5 -48c-48 0 -96.667 7 -146 21v81c30.667 -10 65.667 -15 105 -15c68.667 0 103 24.667 103 74
c0 64 -62.333 96 -187 96z" />
    <glyph glyph-name="Lcaron" unicode="&#x13d;" 
d="M222 0v1283h197v-1135h691v-148h-888zM716 851v60c50.667 14 76 66.667 76 158v17h-76v197h197v-171c0 -160.667 -65.667 -247.667 -197 -261z" />
    <glyph glyph-name="lcaron" unicode="&#x13e;" 
d="M518 0v1431h-370v148h567v-1579h-197zM913 1147v60c50.667 14 76 66.667 76 158v17h-76v197h197v-171c0 -160.667 -65.667 -247.667 -197 -261z" />
    <glyph glyph-name="Ldot" unicode="&#x13f;" 
d="M222 0v1283h197v-1135h691v-148h-888zM827 642v222h222v-222h-222z" />
    <glyph glyph-name="ldot" unicode="&#x140;" 
d="M592 0v1431h-419v148h617v-1579h-198zM1006 691v222h222v-222h-222z" />
    <glyph glyph-name="Lslash" unicode="&#x141;" 
d="M222 0v491l-222 -121v166l222 123v624h197v-517l247 135v-168l-247 -134v-451h691v-148h-888z" />
    <glyph glyph-name="lslash" unicode="&#x142;" 
d="M592 0v675l-246 -133v168l246 135v586h-419v148h617v-628l247 133v-165l-247 -135v-784h-198z" />
    <glyph glyph-name="Nacute" unicode="&#x143;" 
d="M148 0v1287h186l589 -933h2v929h161v-1283h-182l-593 940h-3v-940h-160zM494 1394l222 222h271l-333 -222h-160z" />
    <glyph glyph-name="nacute" unicode="&#x144;" 
d="M182 0v1086h197v-204c90.667 152 214 228 370 228c206 0 309 -122.333 309 -367v-743h-197v689c0 84.667 -13.167 144.834 -39.5 180.501s-70.5 53.5 -132.5 53.5c-98.667 0 -202 -71 -310 -213v-710h-197zM478 1283l241 321h228l-321 -321h-148z" />
    <glyph glyph-name="Ncedilla" unicode="&#x145;" 
d="M148 0v1287h186l589 -933h2v929h161v-1283h-182l-593 940h-3v-940h-160zM617 0h97l-60 -109c51.333 0 96.5 -15.833 135.5 -47.5s58.5 -68.5 58.5 -110.5c0 -46 -19.5 -85 -58.5 -117s-86.5 -48 -142.5 -48c-48 0 -96.667 7 -146 21v81c30.667 -10 65.667 -15 105 -15
c68.667 0 103 24.667 103 74c0 64 -62.333 96 -187 96z" />
    <glyph glyph-name="ncedilla" unicode="&#x146;" 
d="M182 0v1086h197v-204c90.667 152 214 228 370 228c206 0 309 -122.333 309 -367v-743h-197v689c0 84.667 -13.167 144.834 -39.5 180.501s-70.5 53.5 -132.5 53.5c-98.667 0 -202 -71 -310 -213v-710h-197zM605 -0.000976562h97l-60 -109
c51.333 0 96.5 -15.833 135.5 -47.5s58.5 -68.5 58.5 -110.5c0 -46 -19.5 -85 -58.5 -117s-86.5 -48 -142.5 -48c-48 0 -96.667 7 -146 21v81c30.667 -10 65.667 -15 105 -15c68.667 0 103 24.667 103 74c0 64 -62.333 96 -187 96z" />
    <glyph glyph-name="Ncaron" unicode="&#x147;" 
d="M148 0v1287h186l589 -933h2v929h161v-1283h-182l-593 940h-3v-940h-160zM643 1485l197 131h160l-222 -222h-271l-222 222h160z" />
    <glyph glyph-name="ncaron" unicode="&#x148;" 
d="M182 0v1086h197v-204c90.667 152 214 228 370 228c206 0 309 -122.333 309 -367v-743h-197v689c0 84.667 -13.167 144.834 -39.5 180.501s-70.5 53.5 -132.5 53.5c-98.667 0 -202 -71 -310 -213v-710h-197zM993 1604l-241 -321h-218l-241 321h148l201 -202h2l201 202h148
z" />
    <glyph glyph-name="napostrophe" unicode="&#x149;" 
d="M182 0v1086h197v-204c90.667 152 214 228 370 228c206 0 309 -122.333 309 -367v-743h-197v689c0 84.667 -13.167 144.834 -39.5 180.501s-70.5 53.5 -132.5 53.5c-98.667 0 -202 -71 -310 -213v-710h-197zM83 1172v59c50.667 14.667 76 67.667 76 159v17h-76v197h197
v-171c0 -161.333 -65.667 -248.333 -197 -261z" />
    <glyph glyph-name="Eng" unicode="&#x14a;" 
d="M148 0v1287h186l589 -933h2v929h161v-1283v-55c0 -243.333 -107.333 -365 -322 -365c-48.667 0 -97.667 7 -147 21v154c40.667 -18 93 -27 157 -27c54 0 92.333 16.5 115 49.5s34 88.833 34 167.5v19l-19 36l-593 940h-3v-940h-160z" />
    <glyph glyph-name="eng" unicode="&#x14b;" 
d="M182 0l0.00195312 1086h197v-204c90.667 152 214 228 370 228c206 0 309 -122.333 309 -367v-743v-92c0 -102.667 -28.333 -183 -85 -241s-135.334 -87 -236.001 -87c-48.667 0 -98 7 -148 21v154c41.333 -18 83 -27 125 -27c53.333 0 91.166 16.667 113.499 50
s33.5 89 33.5 167v744c0 84.667 -13.167 144.834 -39.5 180.501s-70.5 53.5 -132.5 53.5c-98.667 0 -202 -71 -310 -213v-710h-197z" />
    <glyph glyph-name="Omacron" unicode="&#x14c;" 
d="M62 642c0 204.667 50.167 367.834 150.5 489.501s235.166 182.5 404.499 182.5s304.166 -60.833 404.499 -182.5s150.5 -284.834 150.5 -489.501c0 -205.333 -50.167 -368.833 -150.5 -490.5s-235.166 -182.5 -404.499 -182.5s-304.166 60.833 -404.499 182.5
s-150.5 285.167 -150.5 490.5zM272 642c0 -168 29.833 -297.5 89.5 -388.5s144.834 -136.5 255.501 -136.5s196 45.5 256 136.5s90 220.5 90 388.5c0 167.333 -30 296.5 -90 387.5s-145.333 136.5 -256 136.5s-195.834 -45.5 -255.501 -136.5s-89.5 -220.167 -89.5 -387.5z
M296 1468v148h642v-148h-642z" />
    <glyph glyph-name="omacron" unicode="&#x14d;" 
d="M617 -25c-159.333 0 -284.5 50.5 -375.5 151.5s-136.5 239.833 -136.5 416.5c0 176 45.667 314.5 137 415.5s216.333 151.5 375 151.5c159.333 0 284.5 -50.5 375.5 -151.5s136.5 -239.5 136.5 -415.5c0 -176.667 -45.5 -315.5 -136.5 -416.5
s-216.167 -151.5 -375.5 -151.5zM617 123c94.667 0 168.667 37 222 111s80 177 80 309c0 131.333 -26.667 234 -80 308s-127.333 111 -222 111s-168.667 -37 -222 -111s-80 -176.667 -80 -308c0 -132 26.667 -235 80 -309s127.333 -111 222 -111zM296 1283v148h642v-148
h-642z" />
    <glyph glyph-name="Obreve" unicode="&#x14e;" 
d="M62 642c0 204.667 50.167 367.834 150.5 489.501s235.166 182.5 404.499 182.5s304.166 -60.833 404.499 -182.5s150.5 -284.834 150.5 -489.501c0 -205.333 -50.167 -368.833 -150.5 -490.5s-235.166 -182.5 -404.499 -182.5s-304.166 60.833 -404.499 182.5
s-150.5 285.167 -150.5 490.5zM272 642c0 -168 29.833 -297.5 89.5 -388.5s144.834 -136.5 255.501 -136.5s196 45.5 256 136.5s90 220.5 90 388.5c0 167.333 -30 296.5 -90 387.5s-145.333 136.5 -256 136.5s-195.834 -45.5 -255.501 -136.5s-89.5 -220.167 -89.5 -387.5z
M284 1616h123c40 -65.333 110 -98 210 -98s170 32.667 210 98h123c-48.667 -148 -159.667 -222 -333 -222s-284.333 74 -333 222z" />
    <glyph glyph-name="obreve" unicode="&#x14f;" 
d="M617 -25c-159.333 0 -284.5 50.5 -375.5 151.5s-136.5 239.833 -136.5 416.5c0 176 45.667 314.5 137 415.5s216.333 151.5 375 151.5c159.333 0 284.5 -50.5 375.5 -151.5s136.5 -239.5 136.5 -415.5c0 -176.667 -45.5 -315.5 -136.5 -416.5
s-216.167 -151.5 -375.5 -151.5zM617 123c94.667 0 168.667 37 222 111s80 177 80 309c0 131.333 -26.667 234 -80 308s-127.333 111 -222 111s-168.667 -37 -222 -111s-80 -176.667 -80 -308c0 -132 26.667 -235 80 -309s127.333 -111 222 -111zM284 1579h123.001
c21.333 -98.667 91.333 -148 210 -148s188.667 49.333 210 148h123c-10 -90 -45.333 -161.833 -106 -215.5s-136.334 -80.5 -227.001 -80.5s-166.167 26.833 -226.5 80.5s-95.833 125.5 -106.5 215.5z" />
    <glyph glyph-name="Odblacute" unicode="&#x150;" 
d="M62 642c0 204.667 50.167 367.834 150.5 489.501s235.166 182.5 404.499 182.5s304.166 -60.833 404.499 -182.5s150.5 -284.834 150.5 -489.501c0 -205.333 -50.167 -368.833 -150.5 -490.5s-235.166 -182.5 -404.499 -182.5s-304.166 60.833 -404.499 182.5
s-150.5 285.167 -150.5 490.5zM272 642c0 -168 29.833 -297.5 89.5 -388.5s144.834 -136.5 255.501 -136.5s196 45.5 256 136.5s90 220.5 90 388.5c0 167.333 -30 296.5 -90 387.5s-145.333 136.5 -256 136.5s-195.834 -45.5 -255.501 -136.5s-89.5 -220.167 -89.5 -387.5z
M333 1394l222 222h198l-296 -222h-124zM703 1394l222 222h198l-296 -222h-124z" />
    <glyph glyph-name="odblacute" unicode="&#x151;" 
d="M617 -25c-159.333 0 -284.5 50.5 -375.5 151.5s-136.5 239.833 -136.5 416.5c0 176 45.667 314.5 137 415.5s216.333 151.5 375 151.5c159.333 0 284.5 -50.5 375.5 -151.5s136.5 -239.5 136.5 -415.5c0 -176.667 -45.5 -315.5 -136.5 -416.5
s-216.167 -151.5 -375.5 -151.5zM617 123c94.667 0 168.667 37 222 111s80 177 80 309c0 131.333 -26.667 234 -80 308s-127.333 111 -222 111s-168.667 -37 -222 -111s-80 -176.667 -80 -308c0 -132 26.667 -235 80 -309s127.333 -111 222 -111zM351 1283l241 321h191
l-321 -321h-111zM703 1283l240 321h191l-320 -321h-111z" />
    <glyph glyph-name="OE" unicode="&#x152;" 
d="M628 1283h531.999v-148h-336v-379h271v-148h-271v-460h392v-148h-586c-79.333 -21.333 -138.666 -32 -177.999 -32c-252 0 -378 224.333 -378 673s130 673 390 673c45.333 0 100 -10.333 164 -31zM625.999 366l1 563c0 90.667 -10.333 153.834 -31 189.501
s-57 53.5 -109 53.5c-72 0 -123.833 -41.5 -155.5 -124.5s-47.5 -218.5 -47.5 -406.5c0 -187.333 15.833 -322.5 47.5 -405.5s83.5 -124.5 155.5 -124.5c53.333 0 89.833 18.167 109.5 54.5s29.5 103.166 29.5 200.499z" />
    <glyph glyph-name="oe" unicode="&#x153;" 
d="M630 122c-53.333 -98 -130.668 -146.999 -232.001 -146.999c-106 0 -190.667 50.833 -254 152.5s-95 237.5 -95 407.5c0 179.333 32 320 96 422s152 153 264 153c54 0 98 -11.833 132 -35.5s67.667 -65.834 101 -126.501c66.667 108 148.667 162 246 162
c212.667 0 319 -180.333 319 -541v-54h-468l-1 -35c0 -235.333 77 -353 231 -353c61.333 0 140 26 236 78v-162c-113.333 -45.333 -210.666 -68 -291.999 -68c-120.667 0 -215 49 -283 147zM401.998 124.001c101.333 0 152 131.333 152 394c0 296 -50.667 444 -152 444
c-104 0 -156 -140.333 -156 -421c0 -278 52 -417 156 -417zM738.998 651.001h282l1 46c0 103.333 -9 173.333 -27 210s-51.667 55 -101 55c-102.667 0 -154 -85.667 -154 -257z" />
    <glyph glyph-name="Racute" unicode="&#x154;" 
d="M184 0l0.000976562 1283h359c149.333 0 253 -12.333 311 -37c124 -51.333 186 -142 186 -272c0 -89.333 -22.333 -163.833 -67 -223.5s-119.334 -115.167 -224.001 -166.5l454 -584h-239l-405 534h-178v-534h-197zM381.001 683h104c106 0 190 23.333 252 70
s93 109.667 93 189c0 74 -23.333 124.667 -70 152s-132.667 41 -258 41h-121v-452zM431.001 1394l222 222h271l-333 -222h-160z" />
    <glyph glyph-name="racute" unicode="&#x155;" 
d="M308 0l0.000976562 1086h197v-204c100 152 234.333 228 403 228c59.333 0 126.666 -8.33301 201.999 -25v-308h-148v151c-29.333 6.66699 -56 10 -80 10c-75.333 0 -141.5 -17.5 -198.5 -52.5s-116.5 -94.5 -178.5 -178.5v-707h-197zM505.001 1283l241 321h228l-321 -321
h-148z" />
    <glyph glyph-name="Rcedilla" unicode="&#x156;" 
d="M184 0l0.000976562 1283h359c149.333 0 253 -12.333 311 -37c124 -51.333 186 -142 186 -272c0 -89.333 -22.333 -163.833 -67 -223.5s-119.334 -115.167 -224.001 -166.5l454 -584h-239l-405 534h-178v-534h-197zM381.001 683h104c106 0 190 23.333 252 70
s93 109.667 93 189c0 74 -23.333 124.667 -70 152s-132.667 41 -258 41h-121v-452zM598.001 0h97l-60 -109c51.333 0 96.5 -15.833 135.5 -47.5s58.5 -68.5 58.5 -110.5c0 -46 -19.5 -85 -58.5 -117s-86.5 -48 -142.5 -48c-48 0 -96.667 7 -146 21v81
c30.667 -10 65.667 -15 105 -15c68.667 0 103 24.667 103 74c0 64 -62.333 96 -187 96z" />
    <glyph glyph-name="rcedilla" unicode="&#x157;" 
d="M308 0l0.000976562 1086h197v-204c100 152 234.333 228 403 228c59.333 0 126.666 -8.33301 201.999 -25v-308h-148v151c-29.333 6.66699 -56 10 -80 10c-75.333 0 -141.5 -17.5 -198.5 -52.5s-116.5 -94.5 -178.5 -178.5v-707h-197zM409.001 0h97l-60 -109
c51.333 0 96.5 -15.833 135.5 -47.5s58.5 -68.5 58.5 -110.5c0 -46 -19.5 -85 -58.5 -117s-86.5 -48 -142.5 -48c-48 0 -96.667 7 -146 21v81c30.667 -10 65.667 -15 105 -15c68.667 0 103 24.667 103 74c0 64 -62.333 96 -187 96z" />
    <glyph glyph-name="Rcaron" unicode="&#x158;" 
d="M184 0l0.000976562 1283h359c149.333 0 253 -12.333 311 -37c124 -51.333 186 -142 186 -272c0 -89.333 -22.333 -163.833 -67 -223.5s-119.334 -115.167 -224.001 -166.5l454 -584h-239l-405 534h-178v-534h-197zM381.001 683h104c106 0 190 23.333 252 70
s93 109.667 93 189c0 74 -23.333 124.667 -70 152s-132.667 41 -258 41h-121v-452zM567.001 1485l197 131h160l-222 -222h-271l-222 222h160z" />
    <glyph glyph-name="rcaron" unicode="&#x159;" 
d="M308 0l0.000976562 1086h197v-204c100 152 234.333 228 403 228c59.333 0 126.666 -8.33301 201.999 -25v-308h-148v151c-29.333 6.66699 -56 10 -80 10c-75.333 0 -141.5 -17.5 -198.5 -52.5s-116.5 -94.5 -178.5 -178.5v-707h-197zM1033 1604l-241 -321h-218l-241 321
h148l201 -202h2l201 202h148z" />
    <glyph glyph-name="Sacute" unicode="&#x15a;" 
d="M1010 1253v-170.997c-144.667 56 -273.334 84 -386.001 84c-178 0 -267 -60 -267 -180c0 -48.667 16.667 -87.834 50 -117.501s95 -60.167 185 -91.5l126 -44l120 -41c186 -65.333 279 -176 279 -332c0 -118.667 -47.5 -213.5 -142.5 -284.5
s-222.167 -106.5 -381.5 -106.5c-110.667 0 -253.667 23.667 -429 71v195c174.667 -78.667 319.667 -118 435 -118c97.333 0 175 19.167 233 57.5s87 89.833 87 154.5c0 49.333 -17.167 88.333 -51.5 117s-105.166 62.667 -212.499 102l-132 48
c-131.333 48.667 -222.5 98.667 -273.5 150s-76.5 119.666 -76.5 204.999c0 115.333 39.167 204.666 117.5 267.999s188.5 95 330.5 95c115.333 0 245 -20.333 389 -61zM465 1394l222 222h271l-333 -222h-160z" />
    <glyph glyph-name="sacute" unicode="&#x15b;" 
d="M187 44v178.001c152.667 -66 284.667 -99 396 -99c80 0 146.167 16.167 198.5 48.5s78.5 73.166 78.5 122.499c0 63.333 -62.333 115 -187 155l-211 69c-164.667 53.333 -247 147.333 -247 282c0 98.667 37.167 175 111.5 229s179.5 81 315.5 81
c102 0 220.333 -15.667 355 -47v-160c-130 39.333 -248.667 59 -356 59c-72 0 -129.5 -13 -172.5 -39s-64.5 -61 -64.5 -105c0 -54 49 -98 147 -132l249 -87c90.667 -32 155.834 -70.167 195.501 -114.5s59.5 -101.833 59.5 -172.5c0 -102.667 -42.333 -184.5 -127 -245.5
s-198.334 -91.5 -341.001 -91.5c-124.667 0 -258 23 -400 69zM478 1283l241 321h228l-321 -321h-148z" />
    <glyph glyph-name="Scircumflex" unicode="&#x15c;" 
d="M1010 1253v-170.997c-144.667 56 -273.334 84 -386.001 84c-178 0 -267 -60 -267 -180c0 -48.667 16.667 -87.834 50 -117.501s95 -60.167 185 -91.5l126 -44l120 -41c186 -65.333 279 -176 279 -332c0 -118.667 -47.5 -213.5 -142.5 -284.5
s-222.167 -106.5 -381.5 -106.5c-110.667 0 -253.667 23.667 -429 71v195c174.667 -78.667 319.667 -118 435 -118c97.333 0 175 19.167 233 57.5s87 89.833 87 154.5c0 49.333 -17.167 88.333 -51.5 117s-105.166 62.667 -212.499 102l-132 48
c-131.333 48.667 -222.5 98.667 -273.5 150s-76.5 119.666 -76.5 204.999c0 115.333 39.167 204.666 117.5 267.999s188.5 95 330.5 95c115.333 0 245 -20.333 389 -61zM637 1526l-197 -132h-160l222 222h271l222 -222h-160z" />
    <glyph glyph-name="scircumflex" unicode="&#x15d;" 
d="M187 44v178.001c152.667 -66 284.667 -99 396 -99c80 0 146.167 16.167 198.5 48.5s78.5 73.166 78.5 122.499c0 63.333 -62.333 115 -187 155l-211 69c-164.667 53.333 -247 147.333 -247 282c0 98.667 37.167 175 111.5 229s179.5 81 315.5 81
c102 0 220.333 -15.667 355 -47v-160c-130 39.333 -248.667 59 -356 59c-72 0 -129.5 -13 -172.5 -39s-64.5 -61 -64.5 -105c0 -54 49 -98 147 -132l249 -87c90.667 -32 155.834 -70.167 195.501 -114.5s59.5 -101.833 59.5 -172.5c0 -102.667 -42.333 -184.5 -127 -245.5
s-198.334 -91.5 -341.001 -91.5c-124.667 0 -258 23 -400 69zM298 1283l241 321h218l241 -321h-148l-201 202h-2l-201 -202h-148z" />
    <glyph glyph-name="Scedilla" unicode="&#x15e;" 
d="M1010 1253v-170.997c-144.667 56 -273.334 84 -386.001 84c-178 0 -267 -60 -267 -180c0 -48.667 16.667 -87.834 50 -117.501s95 -60.167 185 -91.5l126 -44l120 -41c186 -65.333 279 -176 279 -332c0 -118.667 -47.5 -213.5 -142.5 -284.5
s-222.167 -106.5 -381.5 -106.5c-110.667 0 -253.667 23.667 -429 71v195c174.667 -78.667 319.667 -118 435 -118c97.333 0 175 19.167 233 57.5s87 89.833 87 154.5c0 49.333 -17.167 88.333 -51.5 117s-105.166 62.667 -212.499 102l-132 48
c-131.333 48.667 -222.5 98.667 -273.5 150s-76.5 119.666 -76.5 204.999c0 115.333 39.167 204.666 117.5 267.999s188.5 95 330.5 95c115.333 0 245 -20.333 389 -61zM592 0.00292969h97l-60 -109c51.333 0 96.5 -15.833 135.5 -47.5s58.5 -68.5 58.5 -110.5
c0 -46 -19.5 -85 -58.5 -117s-86.5 -48 -142.5 -48c-48 0 -96.667 7 -146 21v81c30.667 -10 65.667 -15 105 -15c68.667 0 103 24.667 103 74c0 64 -62.333 96 -187 96z" />
    <glyph glyph-name="scedilla" unicode="&#x15f;" 
d="M187 44v178.001c152.667 -66 284.667 -99 396 -99c80 0 146.167 16.167 198.5 48.5s78.5 73.166 78.5 122.499c0 63.333 -62.333 115 -187 155l-211 69c-164.667 53.333 -247 147.333 -247 282c0 98.667 37.167 175 111.5 229s179.5 81 315.5 81
c102 0 220.333 -15.667 355 -47v-160c-130 39.333 -248.667 59 -356 59c-72 0 -129.5 -13 -172.5 -39s-64.5 -61 -64.5 -105c0 -54 49 -98 147 -132l249 -87c90.667 -32 155.834 -70.167 195.501 -114.5s59.5 -101.833 59.5 -172.5c0 -102.667 -42.333 -184.5 -127 -245.5
s-198.334 -91.5 -341.001 -91.5c-124.667 0 -258 23 -400 69zM582 0.000976562h97l-60 -109c51.333 0 96.5 -15.833 135.5 -47.5s58.5 -68.5 58.5 -110.5c0 -46 -19.5 -85 -58.5 -117s-86.5 -48 -142.5 -48c-48 0 -96.667 7 -146 21v81c30.667 -10 65.667 -15 105 -15
c68.667 0 103 24.667 103 74c0 64 -62.333 96 -187 96z" />
    <glyph glyph-name="Scaron" unicode="&#x160;" 
d="M1010 1253v-170.997c-144.667 56 -273.334 84 -386.001 84c-178 0 -267 -60 -267 -180c0 -48.667 16.667 -87.834 50 -117.501s95 -60.167 185 -91.5l126 -44l120 -41c186 -65.333 279 -176 279 -332c0 -118.667 -47.5 -213.5 -142.5 -284.5
s-222.167 -106.5 -381.5 -106.5c-110.667 0 -253.667 23.667 -429 71v195c174.667 -78.667 319.667 -118 435 -118c97.333 0 175 19.167 233 57.5s87 89.833 87 154.5c0 49.333 -17.167 88.333 -51.5 117s-105.166 62.667 -212.499 102l-132 48
c-131.333 48.667 -222.5 98.667 -273.5 150s-76.5 119.666 -76.5 204.999c0 115.333 39.167 204.666 117.5 267.999s188.5 95 330.5 95c115.333 0 245 -20.333 389 -61zM626 1485l197 131h160l-222 -222h-271l-222 222h160z" />
    <glyph glyph-name="scaron" unicode="&#x161;" 
d="M187 44v178.001c152.667 -66 284.667 -99 396 -99c80 0 146.167 16.167 198.5 48.5s78.5 73.166 78.5 122.499c0 63.333 -62.333 115 -187 155l-211 69c-164.667 53.333 -247 147.333 -247 282c0 98.667 37.167 175 111.5 229s179.5 81 315.5 81
c102 0 220.333 -15.667 355 -47v-160c-130 39.333 -248.667 59 -356 59c-72 0 -129.5 -13 -172.5 -39s-64.5 -61 -64.5 -105c0 -54 49 -98 147 -132l249 -87c90.667 -32 155.834 -70.167 195.501 -114.5s59.5 -101.833 59.5 -172.5c0 -102.667 -42.333 -184.5 -127 -245.5
s-198.334 -91.5 -341.001 -91.5c-124.667 0 -258 23 -400 69zM995 1604l-241 -321h-218l-241 321h148l201 -202h2l201 202h148z" />
    <glyph glyph-name="Tcedilla" unicode="&#x162;" 
d="M518 0v1135h-493v148h1184v-148h-493v-1135h-198zM580 0h97l-60 -109c51.333 0 96.5 -15.833 135.5 -47.5s58.5 -68.5 58.5 -110.5c0 -46 -19.5 -85 -58.5 -117s-86.5 -48 -142.5 -48c-48 0 -96.667 7 -146 21v81c30.667 -10 65.667 -15 105 -15
c68.667 0 103 24.667 103 74c0 64 -62.333 96 -187 96z" />
    <glyph glyph-name="tcedilla" unicode="&#x163;" 
d="M1102 1c-98.667 -17.333 -194 -26.002 -286 -26.002c-160.667 0 -270 28.833 -328 86.5s-87 166.834 -87 327.501v524h-271v148h271v234h198v-234h481v-148h-481v-556c0 -62 3.83301 -104.667 11.5 -128s24.167 -43.666 49.5 -60.999c45.333 -30 111.333 -45 198 -45
c82 0 163.333 9.33301 244 28v-150zM657 -0.00195312h97l-60 -109c51.333 0 96.5 -15.833 135.5 -47.5s58.5 -68.5 58.5 -110.5c0 -46 -19.5 -85 -58.5 -117s-86.5 -48 -142.5 -48c-48 0 -96.667 7 -146 21v81c30.667 -10 65.667 -15 105 -15c68.667 0 103 24.667 103 74
c0 64 -62.333 96 -187 96z" />
    <glyph glyph-name="Tcaron" unicode="&#x164;" 
d="M518 0v1135h-493v148h1184v-148h-493v-1135h-198zM618 1485l197 131h160l-222 -222h-271l-222 222h160z" />
    <glyph glyph-name="tcaron" unicode="&#x165;" 
d="M1102 1c-98.667 -17.333 -194 -26.002 -286 -26.002c-160.667 0 -270 28.833 -328 86.5s-87 166.834 -87 327.501v524h-271v148h271v234h198v-234h481v-148h-481v-556c0 -62 3.83301 -104.667 11.5 -128s24.167 -43.666 49.5 -60.999c45.333 -30 111.333 -45 198 -45
c82 0 163.333 9.33301 244 28v-150zM883 1172v59c50.667 14.667 76 67.667 76 159v17h-76v197h197v-171c0 -161.333 -65.667 -248.333 -197 -261z" />
    <glyph glyph-name="Tbar" unicode="&#x166;" 
d="M518 0v598h-303v148h303v389h-493v148h1184v-148h-493v-389h303v-148h-303v-598h-198z" />
    <glyph glyph-name="tbar" unicode="&#x167;" 
d="M1102 151v-150.002c-98.667 -17.333 -194 -26 -286 -26c-160.667 0 -270 28.833 -328 86.5s-87 166.834 -87 327.501v179h-209v123h209v222h-271v148h271v234h198v-234h481v-148h-481v-222h358v-123h-358v-211c0 -62 3.83301 -104.667 11.5 -128
s24.167 -43.666 49.5 -60.999c45.333 -30 111.333 -45 198 -45c82 0 163.333 9.33301 244 28z" />
    <glyph glyph-name="Utilde" unicode="&#x168;" 
d="M153 1283h197v-779c0 -136 21.5 -234.5 64.5 -295.5s112.5 -91.5 208.5 -91.5c101.333 0 174.333 30.5 219 91.5s67 161.167 67 300.5v774h172v-745c0 -160.667 -19 -276 -57 -346c-80.667 -148.667 -213.667 -223 -399 -223c-160.667 0 -279.5 44 -356.5 132
s-115.5 223.333 -115.5 406v776zM284 1394c7.33301 148 71.334 222 192.001 222c45.333 0 89.666 -11.667 132.999 -35l59 -34c36.667 -20 64.667 -30 84 -30c46 0 71 33 75 99h123c-8 -148 -71.667 -222 -191 -222c-46 0 -90.333 12 -133 36l-60 33c-36 20 -66 30 -90 30
c-42 0 -64.667 -33 -68 -99h-124z" />
    <glyph glyph-name="utilde" unicode="&#x169;" 
d="M1052 1086l0.000976562 -1086h-197v204c-90.667 -152.667 -214.334 -229 -371.001 -229c-205.333 0 -308 122.667 -308 368v743h197v-689c0 -85.333 13 -145.833 39 -181.5s70.333 -53.5 133 -53.5c98.667 0 202 71.333 310 214v710h197zM281.001 1283
c7.33301 156 69 234 185 234c48.667 0 93.667 -12.667 135 -38l60 -37c37.333 -23.333 65.666 -35 84.999 -35c46 0 72 36.667 78 110h123c-7.33301 -156 -69 -234 -185 -234c-48.667 0 -93.667 13 -135 39l-60 37c-37.333 22.667 -65.666 34 -84.999 34
c-46 0 -72 -36.667 -78 -110h-123z" />
    <glyph glyph-name="Umacron" unicode="&#x16a;" 
d="M153 1283h197v-779c0 -136 21.5 -234.5 64.5 -295.5s112.5 -91.5 208.5 -91.5c101.333 0 174.333 30.5 219 91.5s67 161.167 67 300.5v774h172v-745c0 -160.667 -19 -276 -57 -346c-80.667 -148.667 -213.667 -223 -399 -223c-160.667 0 -279.5 44 -356.5 132
s-115.5 223.333 -115.5 406v776zM296 1468v148h642v-148h-642z" />
    <glyph glyph-name="umacron" unicode="&#x16b;" 
d="M1052 1086l0.000976562 -1086h-197v204c-90.667 -152.667 -214.334 -229 -371.001 -229c-205.333 0 -308 122.667 -308 368v743h197v-689c0 -85.333 13 -145.833 39 -181.5s70.333 -53.5 133 -53.5c98.667 0 202 71.333 310 214v710h197zM293.001 1283v148h642v-148h-642
z" />
    <glyph glyph-name="Ubreve" unicode="&#x16c;" 
d="M153 1283h197v-779c0 -136 21.5 -234.5 64.5 -295.5s112.5 -91.5 208.5 -91.5c101.333 0 174.333 30.5 219 91.5s67 161.167 67 300.5v774h172v-745c0 -160.667 -19 -276 -57 -346c-80.667 -148.667 -213.667 -223 -399 -223c-160.667 0 -279.5 44 -356.5 132
s-115.5 223.333 -115.5 406v776zM297 1616h123c40 -65.333 110 -98 210 -98s170 32.667 210 98h123c-48.667 -148 -159.667 -222 -333 -222s-284.333 74 -333 222z" />
    <glyph glyph-name="ubreve" unicode="&#x16d;" 
d="M1052 1086l0.000976562 -1086h-197v204c-90.667 -152.667 -214.334 -229 -371.001 -229c-205.333 0 -308 122.667 -308 368v743h197v-689c0 -85.333 13 -145.833 39 -181.5s70.333 -53.5 133 -53.5c98.667 0 202 71.333 310 214v710h197zM281.001 1579h123.001
c21.333 -98.667 91.333 -148 210 -148s188.667 49.333 210 148h123c-10 -90 -45.333 -161.833 -106 -215.5s-136.334 -80.5 -227.001 -80.5s-166.167 26.833 -226.5 80.5s-95.833 125.5 -106.5 215.5z" />
    <glyph glyph-name="Uring" unicode="&#x16e;" 
d="M153 1283h197v-779c0 -136 21.5 -234.5 64.5 -295.5s112.5 -91.5 208.5 -91.5c101.333 0 174.333 30.5 219 91.5s67 161.167 67 300.5v774h172v-745c0 -160.667 -19 -276 -57 -346c-80.667 -148.667 -213.667 -223 -399 -223c-160.667 0 -279.5 44 -356.5 132
s-115.5 223.333 -115.5 406v776zM629 1255c-50 0 -92.5 17.667 -127.5 53s-52.5 78 -52.5 128s17.5 92.5 52.5 127.5s77.5 52.5 127.5 52.5s92.667 -17.5 128 -52.5s53 -77.5 53 -127.5s-17.667 -92.667 -53 -128s-78 -53 -128 -53zM629 1329c29.333 0 54.5 10.5 75.5 31.5
s31.5 46.167 31.5 75.5s-10.5 54.333 -31.5 75s-46.167 31 -75.5 31s-54.333 -10.333 -75 -31s-31 -45.667 -31 -75s10.333 -54.5 31 -75.5s45.667 -31.5 75 -31.5z" />
    <glyph glyph-name="uring" unicode="&#x16f;" 
d="M1052 1086l0.000976562 -1086h-197v204c-90.667 -152.667 -214.334 -229 -371.001 -229c-205.333 0 -308 122.667 -308 368v743h197v-689c0 -85.333 13 -145.833 39 -181.5s70.333 -53.5 133 -53.5c98.667 0 202 71.333 310 214v710h197zM614.001 1246
c-51.333 0 -95 18 -131 54s-54 79.667 -54 131s18 95 54 131s79.667 54 131 54s95 -18 131 -54s54 -79.667 54 -131s-18 -95 -54 -131s-79.667 -54 -131 -54zM614.001 1320c30.667 0 56.834 10.833 78.501 32.5s32.5 47.834 32.5 78.501s-10.833 56.834 -32.5 78.501
s-47.834 32.5 -78.501 32.5s-56.834 -10.833 -78.501 -32.5s-32.5 -47.834 -32.5 -78.501s10.833 -56.834 32.5 -78.501s47.834 -32.5 78.501 -32.5z" />
    <glyph glyph-name="Udblacute" unicode="&#x170;" 
d="M153 1283h197v-779c0 -136 21.5 -234.5 64.5 -295.5s112.5 -91.5 208.5 -91.5c101.333 0 174.333 30.5 219 91.5s67 161.167 67 300.5v774h172v-745c0 -160.667 -19 -276 -57 -346c-80.667 -148.667 -213.667 -223 -399 -223c-160.667 0 -279.5 44 -356.5 132
s-115.5 223.333 -115.5 406v776zM350 1394l222 222h198l-296 -222h-124zM720 1394l222 222h198l-296 -222h-124z" />
    <glyph glyph-name="udblacute" unicode="&#x171;" 
d="M1052 1086l0.000976562 -1086h-197v204c-90.667 -152.667 -214.334 -229 -371.001 -229c-205.333 0 -308 122.667 -308 368v743h197v-689c0 -85.333 13 -145.833 39 -181.5s70.333 -53.5 133 -53.5c98.667 0 202 71.333 310 214v710h197zM349.001 1283l241 321h191
l-321 -321h-111zM701.001 1283l240 321h191l-320 -321h-111z" />
    <glyph glyph-name="Uogonek" unicode="&#x172;" 
d="M153 1283h197v-779c0 -136 21.5 -234.5 64.5 -295.5s112.5 -91.5 208.5 -91.5c101.333 0 174.333 30.5 219 91.5s67 161.167 67 300.5v774h172v-745c0 -160.667 -19 -276 -57 -346c-80.667 -148.667 -213.667 -223 -399 -223c-160.667 0 -279.5 44 -356.5 132
s-115.5 223.333 -115.5 406v776zM847 -371c-46 -16 -90.333 -24.001 -133 -24.001c-130.667 0 -196 50.667 -196 152c0 74.667 48.667 155.667 146 243h128c-88 -85.333 -132 -154.666 -132 -207.999c0 -60 37 -90 111 -90c22.667 0 48 4.66699 76 14v-87z" />
    <glyph glyph-name="uogonek" unicode="&#x173;" 
d="M1052 1086l0.000976562 -1086h-197v204c-90.667 -152.667 -214.334 -229 -371.001 -229c-205.333 0 -308 122.667 -308 368v743h197v-689c0 -85.333 13 -145.833 39 -181.5s70.333 -53.5 133 -53.5c98.667 0 202 71.333 310 214v710h197zM1038 -371
c-46 -16 -90.333 -24.001 -133 -24.001c-130.667 0 -196 50.667 -196 152c0 74.667 48.667 155.667 146 243h128c-88 -85.333 -132 -154.666 -132 -207.999c0 -60 37 -90 111 -90c22.667 0 48 4.66699 76 14v-87z" />
    <glyph glyph-name="Wcircumflex" unicode="&#x174;" 
d="M207 0l-191 1283h168l156 -1066h3l185 795h190l182 -783h2l165 1054h150l-211 -1283h-214l-177 753h-2l-178 -753h-228zM625 1526l-197 -132h-160l222 222h271l222 -222h-160z" />
    <glyph glyph-name="wcircumflex" unicode="&#x175;" 
d="M210 0l-198 1086h182l144 -850h2l193 751h191l183 -780h3l160 879h151l-217 -1086h-194l-191 812h-2l-211 -812h-196zM282 1283l241 321h218l241 -321h-148l-201 202h-2l-201 -202h-148z" />
    <glyph glyph-name="Ycircumflex" unicode="&#x176;" 
d="M519 0v525l-487 758h227l373 -592l408 592h187l-511 -758v-525h-197zM649 1526l-197 -132h-160l222 222h271l222 -222h-160z" />
    <glyph glyph-name="ycircumflex" unicode="&#x177;" 
d="M142 -395l-0.000976562 148h80c74.667 0 129 12 163 36s69.667 75.667 107 155l49 104l-456 1038h204l355 -813l358 813h177l-547 -1225c-42.667 -95.333 -93.667 -161.833 -153 -199.5s-143.666 -56.5 -252.999 -56.5h-84zM294.999 1283l241 321h218l241 -321h-148
l-201 202h-2l-201 -202h-148z" />
    <glyph glyph-name="Ydieresis" unicode="&#x178;" 
d="M519 0v525l-487 758h227l373 -592l408 592h187l-511 -758v-525h-197zM317 1443v173h173v-173h-173zM810 1443v173h173v-173h-173z" />
    <glyph glyph-name="Zacute" unicode="&#x179;" 
d="M99 0v148l805 987h-756v148h979v-148l-804 -987h812v-148h-1036zM481 1394l222 222h271l-333 -222h-160z" />
    <glyph glyph-name="zacute" unicode="&#x17a;" 
d="M136 0v148l711 790h-686v148h919v-148l-712 -790h730v-148h-962zM469 1283l241 321h228l-321 -321h-148z" />
    <glyph glyph-name="Zdot" unicode="&#x17b;" 
d="M99 0v148l805 987h-756v148h979v-148l-804 -987h812v-148h-1036zM527 1394v222h222v-222h-222z" />
    <glyph glyph-name="zdot" unicode="&#x17c;" 
d="M136 0v148l711 790h-686v148h919v-148l-712 -790h730v-148h-962zM531 1283v222h222v-222h-222z" />
    <glyph glyph-name="Zcaron" unicode="&#x17d;" 
d="M99 0v148l805 987h-756v148h979v-148l-804 -987h812v-148h-1036zM617 1485l197 131h160l-222 -222h-271l-222 222h160z" />
    <glyph glyph-name="zcaron" unicode="&#x17e;" 
d="M136 0v148l711 790h-686v148h919v-148l-712 -790h730v-148h-962zM1003 1604l-241 -321h-218l-241 321h148l201 -202h2l201 202h148z" />
    <glyph glyph-name="slong" unicode="&#x17f;" 
d="M477 0v913h-222v148h222v115c0 152 35.333 261.333 106 328s186.667 100 348 100c106.667 0 207.667 -14.333 303 -43v-156c-97.333 34 -193.333 51 -288 51c-100.667 0 -171.167 -19.167 -211.5 -57.5s-60.5 -105.5 -60.5 -201.5v-1197h-197z" />
    <glyph glyph-name="fscript" unicode="&#x192;" 
d="M469 938l-196.999 -0.00195312v148h197v130c0 135.333 31.5 233.833 94.5 295.5s163.5 92.5 301.5 92.5c79.333 0 156.666 -11 231.999 -33v-156c-81.333 27.333 -156.333 41 -225 41c-84 0 -139.333 -14.167 -166 -42.5s-40 -87.166 -40 -176.499v-151h296v-148h-296
v-970c0 -135.333 -31.333 -233.666 -94 -294.999s-163 -92 -301 -92c-78.667 0 -156 10.667 -232 32v157c80 -27.333 155 -41 225 -41c83.333 0 138.333 14.167 165 42.5s40 86.833 40 175.5v991z" />
    <glyph glyph-name="Aacutering" unicode="&#x1fa;" 
d="M12 0l506 1283h197l506 -1283h-209l-121 321h-586l-123 -321h-170zM364 469h468l-235 613zM258 1283l241 321h228l-321 -321h-148zM907 1255c-50 0 -92.5 17.667 -127.5 53s-52.5 78 -52.5 128s17.5 92.5 52.5 127.5s77.5 52.5 127.5 52.5s92.667 -17.5 128 -52.5
s53 -77.5 53 -127.5s-17.667 -92.667 -53 -128s-78 -53 -128 -53zM907 1329c29.333 0 54.5 10.5 75.5 31.5s31.5 46.167 31.5 75.5s-10.5 54.333 -31.5 75s-46.167 31 -75.5 31s-54.333 -10.333 -75 -31s-31 -45.667 -31 -75s10.333 -54.5 31 -75.5s45.667 -31.5 75 -31.5z
" />
    <glyph glyph-name="aacutering" unicode="&#x1fb;" 
d="M835 131c-119.333 -100 -238.335 -150.003 -357.002 -150.003c-99.333 0 -181.166 28.333 -245.499 85s-96.5 128.334 -96.5 215.001c0 112.667 50 203.334 150 272.001s232 103 396 103h122v93c0 76.667 -17 131.334 -51 164.001s-90.333 49 -169 49
c-114 0 -232 -32 -354 -96v169c140 50 271.333 75 394 75c138 0 235.5 -27.333 292.5 -82s85.5 -149 85.5 -283v-455c0 -65.333 7 -109.833 21 -133.5s40.333 -35.5 79 -35.5c12.667 0 33.334 3.33301 62.001 10l18 -118c-66 -21.333 -116 -32 -150 -32
c-97.333 0 -163 50 -197 150zM803.998 258.997v274h-59c-270 0 -405 -73 -405 -219c0 -52.667 17.333 -95 52 -127s80.667 -48 138 -48c86 0 177.333 40 274 120zM200.998 1283l241 321h228l-321 -321h-148zM849.998 1246c-51.333 0 -95 18 -131 54s-54 79.667 -54 131
s18 95 54 131s79.667 54 131 54s95 -18 131 -54s54 -79.667 54 -131s-18 -95 -54 -131s-79.667 -54 -131 -54zM849.998 1320c30.667 0 56.834 10.833 78.501 32.5s32.5 47.834 32.5 78.501s-10.833 56.834 -32.5 78.501s-47.834 32.5 -78.501 32.5
s-56.834 -10.833 -78.501 -32.5s-32.5 -47.834 -32.5 -78.501s10.833 -56.834 32.5 -78.501s47.834 -32.5 78.501 -32.5z" />
    <glyph glyph-name="AEacute" unicode="&#x1fc;" 
d="M0 0l565 1283h582v-148h-333v-438h266v-148h-266v-401h383v-148h-568v265h-340l-117 -265h-172zM355 413h274v624zM565 1394l222 222h271l-333 -222h-160z" />
    <glyph glyph-name="aeacute" unicode="&#x1fd;" 
d="M593 126c-78.667 -100.667 -163.667 -151 -255 -151c-84 0 -153.167 29.5 -207.5 88.5s-81.5 133.833 -81.5 224.5c0 102.667 39 189 117 259s174.667 105 290 105h66v116c0 129.333 -53.667 194 -161 194c-64 0 -137 -17.667 -219 -53v150
c90.667 34 181.334 51 272.001 51c113.333 0 194.666 -39.667 243.999 -119c62.667 79.333 136 119 220 119c217.333 0 326 -175.333 326 -526v-68h-496c0 -136.667 17.333 -234.667 52 -294s92 -89 172 -89s168.667 21.333 266 64v-156c-138 -44 -241.333 -66 -310 -66
c-70 0 -127.333 11.5 -172 34.5s-85.667 61.833 -123 116.5zM522 225l0.000976562 304h-48c-68.667 0 -125.834 -20.667 -171.501 -62s-68.5 -93 -68.5 -155c0 -50 14 -90.667 42 -122s64.667 -47 110 -47c37.333 0 75.333 19.667 114 59zM708.001 652h311v47
c0 96 -11 163.833 -33 203.5s-59.667 59.5 -113 59.5c-50.667 0 -90.667 -23.667 -120 -71s-44 -112 -44 -194zM510.001 1283l241 321h228l-321 -321h-148z" />
    <glyph glyph-name="Oslashacute" unicode="&#x1fe;" 
d="M61 -31l140.999 197c-94 136.667 -141 295 -141 475c0 204.667 50.167 368 150.5 490s234.5 183 402.5 183c130 0 240 -35.667 330 -107l76 107h151l-140 -197c93.333 -138 140 -296.667 140 -476c0 -204 -50.167 -367 -150.5 -489s-234.166 -183 -401.499 -183
c-128 0 -238.667 35.333 -332 106l-76 -106h-150zM320.999 333l523.001 733.999c-60.667 66 -136.334 99 -227.001 99c-110 0 -195.167 -45 -255.5 -135s-90.5 -216.333 -90.5 -379c0 -119.333 16.667 -225.666 50 -318.999zM912 949.999l-525 -734
c61.333 -66 138.333 -99 231 -99c110 0 194.833 45.667 254.5 137s89.5 221.333 89.5 390c0 108 -16.667 210 -50 306zM457 1394l222 222h271l-333 -222h-160z" />
    <glyph glyph-name="oslashacute" unicode="&#x1ff;" 
d="M803 888c-54.667 49.333 -117.667 74 -189 74c-96 0 -170 -37.833 -222 -113.5s-78 -183.167 -78 -322.5c0 -68.667 11.333 -134.667 34 -198l8 -23zM104 -25l124.999 163c-83.333 108 -125 243.333 -125 406c0 174.667 45.5 312.667 136.5 414s214.5 152 370.5 152
c116 0 215.333 -27.333 298 -82l64 82h155l-126 -165c84 -103.333 126 -236 126 -398c0 -176.667 -45.167 -316.167 -135.5 -418.5s-213.166 -153.5 -368.499 -153.5c-120.667 0 -221.667 27 -303 81l-62 -81h-155zM427.999 196c49.333 -48.667 112.667 -73 190 -73
c96.667 0 171 38 223 114s78 184.667 78 326c0 76.667 -14.333 149.667 -43 219zM468 1283l241 321h228l-321 -321h-148z" />
    <glyph glyph-name="circumflex" unicode="&#x2c6;" 
d="M616 1526l-197 -132h-160l222 222h271l222 -222h-160z" />
    <glyph glyph-name="caron" unicode="&#x2c7;" 
d="M617 1485l197 131h160l-222 -222h-271l-222 222h160z" />
    <glyph glyph-name="macron" unicode="&#x2c9;" 
d="M296 1468v148h642v-148h-642z" />
    <glyph glyph-name="breve" unicode="&#x2d8;" 
d="M284 1616h123c40 -65.333 110 -98 210 -98s170 32.667 210 98h123c-48.667 -148 -159.667 -222 -333 -222s-284.333 74 -333 222z" />
    <glyph glyph-name="dotaccent" unicode="&#x2d9;" 
d="M506 1394v222h222v-222h-222z" />
    <glyph glyph-name="ring" unicode="&#x2da;" 
d="M616 1255c-50 0 -92.5 17.667 -127.5 53s-52.5 78 -52.5 128s17.5 92.5 52.5 127.5s77.5 52.5 127.5 52.5s92.667 -17.5 128 -52.5s53 -77.5 53 -127.5s-17.667 -92.667 -53 -128s-78 -53 -128 -53zM616 1329c29.333 0 54.5 10.5 75.5 31.5s31.5 46.167 31.5 75.5
s-10.5 54.333 -31.5 75s-46.167 31 -75.5 31s-54.333 -10.333 -75 -31s-31 -45.667 -31 -75s10.333 -54.5 31 -75.5s45.667 -31.5 75 -31.5z" />
    <glyph glyph-name="ogonek" unicode="&#x2db;" 
d="M751 -371c-46 -16 -90.333 -24.001 -133 -24.001c-130.667 0 -196 50.667 -196 152c0 74.667 48.667 155.667 146 243h128c-88 -85.333 -132 -154.666 -132 -207.999c0 -60 37 -90 111 -90c22.667 0 48 4.66699 76 14v-87z" />
    <glyph glyph-name="tilde" unicode="&#x2dc;" 
d="M284 1394c7.33301 148 71.334 222 192.001 222c45.333 0 89.666 -11.667 132.999 -35l59 -34c36.667 -20 64.667 -30 84 -30c46 0 71 33 75 99h123c-8 -148 -71.667 -222 -191 -222c-46 0 -90.333 12 -133 36l-60 33c-36 20 -66 30 -90 30c-42 0 -64.667 -33 -68 -99
h-124z" />
    <glyph glyph-name="hungarumlaut" unicode="&#x2dd;" 
d="M320 1394l222 222h198l-296 -222h-124zM690 1394l222 222h198l-296 -222h-124z" />
    <glyph glyph-name="questiongreek" unicode="&#x37e;" 
d="M469 -321v99c74 8.66699 115 82.667 123 222h-123v296h296v-179c0 -281.333 -98.667 -427.333 -296 -438zM469 790v296h296v-296h-296z" />
    <glyph glyph-name="tonos" unicode="&#x384;" 
d="M543 1283l-25 321h197l-24 -321h-148z" />
    <glyph glyph-name="diaeresistonos" unicode="&#x385;" 
d="M222 1283v173h173v-173h-173zM543 1283l-25 321h197l-24 -321h-148zM839 1283v173h173v-173h-173z" />
    <glyph glyph-name="Alphatonos" unicode="&#x386;" 
d="M12 0l506 1283h197l506 -1283h-209l-121 321h-586l-123 -321h-170zM364 469h468l-235 613zM119 962l-25 321h198l-25 -321h-148z" />
    <glyph glyph-name="anoteleia" unicode="&#x387;" 
d="M493 419v247h247v-247h-247z" />
    <glyph glyph-name="Epsilontonos" unicode="&#x388;" 
d="M326 0v1283h768v-148h-571v-389h469v-148h-469v-450h617v-148h-814zM36 962l-24 321h197l-25 -321h-148z" />
    <glyph glyph-name="Etatonos" unicode="&#x389;" 
d="M271 0v1283h198v-561h481v561h197v-1283h-197v574h-481v-574h-198zM25 962l-25 321h160l-24 -321h-111z" />
    <glyph glyph-name="Iotatonos" unicode="&#x38a;" 
d="M320 0v148h321v987h-321v148h839v-148h-321v-987h321v-148h-839zM36 962l-24 321h197l-25 -321h-148z" />
    <glyph glyph-name="Omicrontonos" unicode="&#x38c;" 
d="M160 642c0 206.667 46.5 370.334 139.5 491.001s219.5 181 379.5 181c159.333 0 285.5 -60.333 378.5 -181s139.5 -284.334 139.5 -491.001c0 -207.333 -46.5 -371.333 -139.5 -492s-219.167 -181 -378.5 -181c-160 0 -286.5 60.333 -379.5 181
s-139.5 284.667 -139.5 492zM370 642c0 -350 103 -525 309 -525c205.333 0 308 175 308 525c0 349.333 -102.667 524 -308 524c-206 0 -309 -174.667 -309 -524zM25 962l-25 321h160l-24 -321h-111z" />
    <glyph glyph-name="Upsilontonos" unicode="&#x38e;" 
d="M591 0l-0.000976562 381c0 186 -31.333 345.333 -94 478s-146 216.334 -250 251.001v173c105.333 0 202.833 -52.333 292.5 -157s149.167 -235.334 178.5 -392.001c40.667 127.333 108.334 244.333 203.001 351s187.667 171 279 193l9 2v-148l-9 -5
c-120 -65.333 -218.5 -167.833 -295.5 -307.5s-115.5 -286.167 -115.5 -439.5v-380h-198zM24.999 962l-25 321h160l-24 -321h-111z" />
    <glyph glyph-name="Omegatonos" unicode="&#x38f;" 
d="M610 148l0.000976562 -148.004h-438v148h277c-185.333 218.667 -278 417.667 -278 597c0 134 37 254.667 111 362c94.667 138 230.667 207 408 207c178 0 314.333 -69 409 -207c74 -107.333 111 -227.666 111 -360.999c0 -179.333 -92.667 -378.666 -278 -597.999h277
v-148h-438v148c90.667 114.667 151.5 211.834 182.5 291.501s46.5 179.834 46.5 300.501c0 133.333 -27.333 237.666 -82 312.999s-130.667 113 -228 113c-96.667 0 -172.334 -37.667 -227.001 -113s-82 -179.666 -82 -312.999c0 -120 15.5 -220 46.5 -300
s91.833 -177.333 182.5 -292zM24.001 961.996l-24 321h160l-25 -321h-111z" />
    <glyph glyph-name="iotadiaeresistonos" unicode="&#x390;" 
d="M1036 27c-90.667 -34.667 -182.333 -52.001 -275 -52.001c-134 0 -226.5 29.333 -277.5 88s-76.5 165 -76.5 319v704h197v-685c0 -119.333 11.167 -195.666 33.5 -228.999s73.833 -50 154.5 -50c72.667 0 154 17.667 244 53v-148zM115.001 1283v173h173v-173h-173z
M436.001 1283l-25 321h197l-24 -321h-148zM732.001 1283v173h173v-173h-173z" />
    <glyph glyph-name="Alpha" unicode="&#x391;" 
d="M12 0l506 1283h197l506 -1283h-209l-121 321h-586l-123 -321h-170zM364 469h468l-235 613z" />
    <glyph glyph-name="Beta" unicode="&#x392;" 
d="M185 0l0.000976562 1283h414c300 0 450 -99.333 450 -298c0 -76 -25.833 -141.5 -77.5 -196.5s-123.834 -94.167 -216.501 -117.5c238 -48.667 357 -161.667 357 -339c0 -101.333 -35 -180.666 -105 -237.999c-45.333 -38 -97 -63.167 -155 -75.5
s-151.333 -18.5 -280 -18.5h-387zM382.001 727.999h68.999c265.333 0 398 74 398 222c0 72.667 -25.667 121.667 -77 147s-150.666 38 -297.999 38h-92v-407zM382 147.999l178 -0.000976562c130 0 219.5 13.333 268.5 40s73.5 75.667 73.5 147
c0 82.667 -40.167 148.334 -120.5 197.001s-189.5 73 -327.5 73h-72v-457z" />
    <glyph glyph-name="Gamma" unicode="&#x393;" 
d="M247 0v1283h913v-148h-716v-1135h-197z" />
    <glyph glyph-name="Delta" unicode="&#x394;" 
d="M12 0v185l502 1098h208l499 -1098v-185h-1209zM182 173h832l-417 913z" />
    <glyph glyph-name="Epsilon" unicode="&#x395;" 
d="M216 0v1283h867v-148h-670v-389h568v-148h-568v-450h716v-148h-913z" />
    <glyph glyph-name="Zeta" unicode="&#x396;" 
d="M99 0v148l805 987h-756v148h979v-148l-804 -987h812v-148h-1036z" />
    <glyph glyph-name="Eta" unicode="&#x397;" 
d="M148 0v1283h197v-561h543v561h198v-1283h-198v574h-543v-574h-197z" />
    <glyph glyph-name="Theta" unicode="&#x398;" 
d="M62 642c0 204.667 50.167 367.834 150.5 489.501s235.166 182.5 404.499 182.5s304.166 -60.833 404.499 -182.5s150.5 -284.834 150.5 -489.501c0 -205.333 -50.167 -368.833 -150.5 -490.5s-235.166 -182.5 -404.499 -182.5s-304.166 60.833 -404.499 182.5
s-150.5 285.167 -150.5 490.5zM272 642c0 -168 29.833 -297.5 89.5 -388.5s144.834 -136.5 255.501 -136.5s196 45.5 256 136.5s90 220.5 90 388.5c0 167.333 -30 296.5 -90 387.5s-145.333 136.5 -256 136.5s-195.834 -45.5 -255.501 -136.5s-89.5 -220.167 -89.5 -387.5z
M364 592v148h506v-148h-506z" />
    <glyph glyph-name="Iota" unicode="&#x399;" 
d="M173 0v148h345v987h-345v148h888v-148h-345v-987h345v-148h-888z" />
    <glyph glyph-name="Kappa" unicode="&#x39a;" 
d="M170 0v1283h197v-629l537 629h199l-518 -605l617 -678h-236l-599 654v-654h-197z" />
    <glyph glyph-name="Lambda" unicode="&#x39b;" 
d="M182 0h-170l506 1283h197l506 -1283h-209l-415 1082z" />
    <glyph glyph-name="Mu" unicode="&#x39c;" 
d="M94 0v1283h237l282 -790h2l277 790h247v-1283h-161v1101h-2l-289 -830h-166l-288 807h-2v-1078h-137z" />
    <glyph glyph-name="Nu" unicode="&#x39d;" 
d="M148 0v1287h186l589 -933h2v929h161v-1283h-182l-593 940h-3v-940h-160z" />
    <glyph glyph-name="Xi" unicode="&#x39e;" 
d="M62 0v185h1111v-185h-1111zM192 580v185h851v-185h-851zM93 1098v185h1049v-185h-1049z" />
    <glyph glyph-name="Omicron" unicode="&#x39f;" 
d="M62 642c0 204.667 50.167 367.834 150.5 489.501s235.166 182.5 404.499 182.5s304.166 -60.833 404.499 -182.5s150.5 -284.834 150.5 -489.501c0 -205.333 -50.167 -368.833 -150.5 -490.5s-235.166 -182.5 -404.499 -182.5s-304.166 60.833 -404.499 182.5
s-150.5 285.167 -150.5 490.5zM272 642c0 -168 29.833 -297.5 89.5 -388.5s144.834 -136.5 255.501 -136.5s196 45.5 256 136.5s90 220.5 90 388.5c0 167.333 -30 296.5 -90 387.5s-145.333 136.5 -256 136.5s-195.834 -45.5 -255.501 -136.5s-89.5 -220.167 -89.5 -387.5z
" />
    <glyph glyph-name="Pi" unicode="&#x3a0;" 
d="M148 0v1283h938v-1283h-198v1135h-543v-1135h-197z" />
    <glyph glyph-name="Rho" unicode="&#x3a1;" 
d="M228 0l-0.000976562 1283h417c148.667 0 254.667 -13.333 318 -40c129.333 -56 194 -164 194 -324c0 -134.667 -52.167 -240.334 -156.5 -317.001s-248.166 -115 -431.499 -115h-144v-487h-197zM424.999 635.001h122.999c266.667 0 400 93.333 400 280
c0 78.667 -25.167 135 -75.5 169s-134.166 51 -251.499 51h-196v-500z" />
    <glyph glyph-name="Sigma" unicode="&#x3a3;" 
d="M71 0v173l569 472l-520 490v148h1018v-148h-745l503 -462l-614 -500h887v-173h-1098z" />
    <glyph glyph-name="Tau" unicode="&#x3a4;" 
d="M518 0v1135h-493v148h1184v-148h-493v-1135h-198z" />
    <glyph glyph-name="Upsilon" unicode="&#x3a5;" 
d="M504 0l-0.000976562 380.999c0 252.667 -69.667 452.334 -209 599.001c-82.667 86.667 -177 130 -283 130v173c100 0 181.5 -13.167 244.5 -39.5s124.167 -73.166 183.5 -140.499c100.667 -114 164.334 -234.333 191.001 -361c151.333 327.333 348 507.666 590 540.999
v-148c-138.667 -31.333 -260.667 -128 -366 -290c-102 -156.667 -153 -311.667 -153 -465v-380h-198z" />
    <glyph glyph-name="Phi" unicode="&#x3a6;" 
d="M519 0v200c-150 0 -270.333 40.167 -361 120.5s-136 187.5 -136 321.5c0 133.333 45.167 240.166 135.5 320.499s210.833 120.5 361.5 120.5v200h197v-200c150.667 0 271.167 -40.167 361.5 -120.5s135.5 -187.5 135.5 -321.5
c0 -133.333 -45.167 -240.166 -135.5 -320.499s-210.833 -120.5 -361.5 -120.5v-200h-197zM519 349v586c-199.333 0 -299 -97.667 -299 -293s99.667 -293 299 -293zM716 349c200 0 300 97.667 300 293s-100 293 -300 293v-586z" />
    <glyph glyph-name="Chi" unicode="&#x3a7;" 
d="M11 0l503 653l-460 630h233l347 -475l367 475h192l-466 -602l492 -681h-234l-379 522l-403 -522h-192z" />
    <glyph glyph-name="Psi" unicode="&#x3a8;" 
d="M715 0h-197v524c-106.667 14 -185.667 45 -237 93s-89.333 126.333 -114 235l-18 81l-17 73c-11.333 52 -24 86.5 -38 103.5s-36.667 25.5 -68 25.5h-14v148h17c92.667 0 157 -18.667 193 -56s67.333 -118 94 -242l16 -74c32 -148.667 94 -228.334 186 -239.001v611h197
v-611c92 10.667 154 90.334 186 239.001l16 74c27.333 124.667 58.833 205.5 94.5 242.5s99.834 55.5 192.501 55.5h17v-148h-14c-31.333 0 -54 -8.5 -68 -25.5s-26.667 -51.5 -38 -103.5l-17 -73l-18 -81c-24 -108.667 -61.833 -187 -113.5 -235s-130.834 -79 -237.501 -93
v-524z" />
    <glyph glyph-name="Omega" unicode="&#x3a9;" 
d="M524 148l-0.00195312 -147.999h-475v148h312c-110 113.333 -187.5 215.166 -232.5 305.499s-67.5 189.166 -67.5 296.499c0 171.333 50.333 308.166 151 410.499s235.667 153.5 405 153.5c168.667 0 303.334 -51.167 404.001 -153.5s151 -239.166 151 -410.499
c0 -107.333 -22.167 -205.833 -66.5 -295.5s-121.833 -191.834 -232.5 -306.501h311v-148h-475v148c98.667 112.667 165.5 208.667 200.5 288s52.5 175.333 52.5 288c0 137.333 -30.667 245.333 -92 324s-145.666 118 -252.999 118s-191.833 -39.167 -253.5 -117.5
s-92.5 -185.166 -92.5 -320.499c0 -114.667 17.333 -211.667 52 -291s101.667 -175.666 201 -288.999z" />
    <glyph glyph-name="Iotadiaeresis" unicode="&#x3aa;" 
d="M173 0v148h345v987h-345v148h888v-148h-345v-987h345v-148h-888zM284 1443v173h173v-173h-173zM777 1443v173h173v-173h-173z" />
    <glyph glyph-name="Upsilondiaeresis" unicode="&#x3ab;" 
d="M504 0l-0.000976562 380.999c0 252.667 -69.667 452.334 -209 599.001c-82.667 86.667 -177 130 -283 130v173c100 0 181.5 -13.167 244.5 -39.5s124.167 -73.166 183.5 -140.499c100.667 -114 164.334 -234.333 191.001 -361c151.333 327.333 348 507.666 590 540.999
v-148c-138.667 -31.333 -260.667 -128 -366 -290c-102 -156.667 -153 -311.667 -153 -465v-380h-198zM297.999 1443v173h173v-173h-173zM790.999 1443v173h173v-173h-173z" />
    <glyph glyph-name="alphatonos" unicode="&#x3ac;" 
d="M871 616c64.667 172.667 97.001 329.334 97.001 470.001h210c-30 -208 -115 -412.333 -255 -613c106.667 -198.667 204 -356.334 292 -473.001h-228c-18.667 30.667 -45.667 80 -81 148l-61 116c-3.33301 6 -12 25.667 -26 59c-70.667 -128 -136.334 -218 -197.001 -270
s-130.667 -78 -210 -78c-100 0 -178.167 42.833 -234.5 128.5s-84.5 204.167 -84.5 355.5c0 185.333 39.333 340.333 118 465s177 187 295 187c74 0 131.333 -25.5 172 -76.5s96 -166.5 166 -346.5zM750.001 446l-44.999 118l-51 139c-36.667 94.667 -67.5 160 -92.5 196
s-52.5 55 -82.5 57c-49.333 3.33301 -91.166 -44 -125.499 -142s-51.5 -218.667 -51.5 -362c0 -219.333 46.667 -329 140 -329c45.333 0 95.666 29 150.999 87s107.666 136.667 156.999 236zM565.002 1283l-25 321h197l-24 -321h-148z" />
    <glyph glyph-name="epsilontonos" unicode="&#x3ad;" 
d="M1071 189v-153.001c-110.667 -40.667 -228 -61 -352 -61c-183.333 0 -323.833 49.667 -421.5 149s-146.5 242 -146.5 428c0 164.667 43 296.334 129 395.001c52 59.333 113 101.333 183 126s162.333 37 277 37c112.667 0 218.667 -12 318 -36v-161
c-121.333 32.667 -226 49 -314 49c-240 0 -368.333 -106.667 -385 -320h638v-149h-638c9.33301 -128.667 45.833 -222.5 109.5 -281.5s160.5 -88.5 290.5 -88.5c107.333 0 211.333 22 312 66zM628 1283l-25 321h197l-24 -321h-148z" />
    <glyph glyph-name="etatonos" unicode="&#x3ae;" 
d="M182 0v753.001c0 121.333 -22 232.333 -66 333h220c18 -58.667 32.333 -127.334 43 -206.001c116.667 153.333 243.667 230 381 230c100.667 0 175.5 -32.833 224.5 -98.5s73.5 -166.5 73.5 -302.5v-1104h-197v1080c0 160 -53.667 240 -161 240
c-119.333 0 -226.333 -72 -321 -216v-709h-197zM563 1283l-25 321h197l-24 -321h-148z" />
    <glyph glyph-name="iotatonos" unicode="&#x3af;" 
d="M1036 27c-90.667 -34.667 -182.333 -52.001 -275 -52.001c-134 0 -226.5 29.333 -277.5 88s-76.5 165 -76.5 319v704h197v-685c0 -119.333 11.167 -195.666 33.5 -228.999s73.833 -50 154.5 -50c72.667 0 154 17.667 244 53v-148zM432.001 1283l-25 321h197l-24 -321
h-148z" />
    <glyph glyph-name="upsilondiaeresistonos" unicode="&#x3b0;" 
d="M179 1086l196.999 0.000976562v-543c0 -174 19.333 -285.667 58 -335c43.333 -56.667 105.333 -85 186 -85c90.667 0 164.334 37.5 221.001 112.5s85 172.833 85 293.5c0 82 -14.667 176 -44 282s-66 197.667 -110 275h202c78.667 -178 118 -363 118 -555
c0 -164.667 -44.167 -298.5 -132.5 -401.5s-203.166 -154.5 -344.499 -154.5c-130.667 0 -238.334 41 -323.001 123c-44 43.333 -73.833 92.666 -89.5 147.999s-23.5 140.333 -23.5 255v585zM218.999 1283v173h173v-173h-173zM539.999 1283l-25 321h197l-24 -321h-148z
M835.999 1283v173h173v-173h-173z" />
    <glyph glyph-name="alpha" unicode="&#x3b1;" 
d="M871 616c64.667 172.667 97.001 329.334 97.001 470.001h210c-30 -208 -115 -412.333 -255 -613c106.667 -198.667 204 -356.334 292 -473.001h-228c-18.667 30.667 -45.667 80 -81 148l-61 116c-3.33301 6 -12 25.667 -26 59c-70.667 -128 -136.334 -218 -197.001 -270
s-130.667 -78 -210 -78c-100 0 -178.167 42.833 -234.5 128.5s-84.5 204.167 -84.5 355.5c0 185.333 39.333 340.333 118 465s177 187 295 187c74 0 131.333 -25.5 172 -76.5s96 -166.5 166 -346.5zM750.001 446l-44.999 118l-51 139c-36.667 94.667 -67.5 160 -92.5 196
s-52.5 55 -82.5 57c-49.333 3.33301 -91.166 -44 -125.499 -142s-51.5 -218.667 -51.5 -362c0 -219.333 46.667 -329 140 -329c45.333 0 95.666 29 150.999 87s107.666 136.667 156.999 236z" />
    <glyph glyph-name="beta" unicode="&#x3b2;" 
d="M197 -395l-0.00195312 1449c0 173.333 39 308.333 117 405s186.667 145 326 145c114.667 0 207.334 -30 278.001 -90s106 -139 106 -237c0 -171.333 -90.333 -304 -271 -398c116 -36.667 208.667 -95.834 278 -177.501s104 -172.5 104 -272.5
c0 -132.667 -46 -241.5 -138 -326.5s-209.667 -127.5 -353 -127.5c-91.333 0 -174.666 14 -249.999 42v-412h-197zM467.998 913.001l36 0.000976562c86.667 0 162 34.5 226 103.5s96 150.5 96 244.5c0 59.333 -18 106.666 -54 141.999s-84.333 53 -145 53
c-155.333 0 -233 -123.667 -233 -371v-897v0l36 -15c70 -33.333 140.333 -50 211 -50c83.333 0 153.5 28.833 210.5 86.5s85.5 128.167 85.5 211.5c0 104 -39.167 187.333 -117.5 250s-182.5 94 -312.5 94h-39v148z" />
    <glyph glyph-name="gamma" unicode="&#x3b3;" 
d="M517 106c-19.333 81.333 -86.668 234 -202.001 458s-216.333 398 -303 522h227c124 -187.333 254.333 -436.333 391 -747c66.667 148 173 346 319 594l78 130l13 23h181c-32 -46 -74.667 -115.333 -128 -208l-138 -241c-113.333 -196 -200.666 -367 -261.999 -513
c24.667 -70 37 -148 37 -234c0 -84.667 -20.667 -179.667 -62 -285h-151l-10 33c-28.667 90 -43 161 -43 213c0 55.333 17.667 140.333 53 255z" />
    <glyph glyph-name="delta" unicode="&#x3b4;" 
d="M502 977c-121.333 63.333 -208.668 122.666 -262.001 177.999s-80 113.666 -80 174.999c0 86 41.167 153.167 123.5 201.5s196.5 72.5 342.5 72.5c92.667 0 178 -9.66699 256 -29v-164c-85.333 30 -177.666 45 -276.999 45c-74.667 0 -134.667 -10 -180 -30
s-68 -46.333 -68 -79c0 -49.333 59 -108.666 177 -177.999l94 -54l108 -66c132 -79.333 227.333 -162.5 286 -249.5s88 -188.833 88 -305.5c0 -151.333 -46.167 -275.666 -138.5 -372.999s-210.833 -146 -355.5 -146c-141.333 0 -258.833 47.5 -352.5 142.5
s-140.5 214.5 -140.5 358.5c0 236 126.333 403 379 501zM648.998 881c-210.667 -73.333 -316 -209.666 -316 -408.999c0 -99.333 27.667 -182.333 83 -249s124.333 -100 207 -100c79.333 0 145.333 34.833 198 104.5s79 156.5 79 260.5
c0 89.333 -18.333 162.666 -55 219.999s-102 115 -196 173z" />
    <glyph glyph-name="epsilon" unicode="&#x3b5;" 
d="M1071 189v-153.001c-110.667 -40.667 -228 -61 -352 -61c-183.333 0 -323.833 49.667 -421.5 149s-146.5 242 -146.5 428c0 164.667 43 296.334 129 395.001c52 59.333 113 101.333 183 126s162.333 37 277 37c112.667 0 218.667 -12 318 -36v-161
c-121.333 32.667 -226 49 -314 49c-240 0 -368.333 -106.667 -385 -320h638v-149h-638c9.33301 -128.667 45.833 -222.5 109.5 -281.5s160.5 -88.5 290.5 -88.5c107.333 0 211.333 22 312 66z" />
    <glyph glyph-name="zeta" unicode="&#x3b6;" 
d="M654 -412l0.000976562 163.999c82 -16 143 -24 183 -24c150 0 225 52 225 156c0 48.667 -15.167 80.167 -45.5 94.5s-96.5 21.5 -198.5 21.5h-75c-188 0 -327.833 41.333 -419.5 124s-137.5 208.334 -137.5 377.001c0 113.333 26.667 235.166 80 365.499
s122.333 242.5 207 336.5c-36 -2.66699 -62 -4 -78 -4c-114 0 -235.333 23.333 -364 70v175c152 -79.333 317 -119 495 -119l70 1c95.333 96.667 182.666 165.167 261.999 205.5s173.333 64.5 282 72.5l48 -135c-154 -148 -332 -236.667 -534 -266
c-80 -109.333 -143.167 -225.833 -189.5 -349.5s-69.5 -237.5 -69.5 -341.5c0 -121.333 29.333 -208.166 88 -260.499s156 -78.5 292 -78.5h46c142.667 0 245.167 -21 307.5 -63s93.5 -111 93.5 -207c0 -215.333 -147 -323 -441 -323c-26.667 0 -69 2.66699 -127 8z" />
    <glyph glyph-name="eta" unicode="&#x3b7;" 
d="M182 0v753.001c0 121.333 -22 232.333 -66 333h220c18 -58.667 32.333 -127.334 43 -206.001c116.667 153.333 243.667 230 381 230c100.667 0 175.5 -32.833 224.5 -98.5s73.5 -166.5 73.5 -302.5v-1104h-197v1080c0 160 -53.667 240 -161 240
c-119.333 0 -226.333 -72 -321 -216v-709h-197z" />
    <glyph glyph-name="theta" unicode="&#x3b8;" 
d="M123 776c0 270 42 475.5 126 616.5s206.333 211.5 367 211.5c160 0 282.333 -70 367 -210s127 -341.333 127 -604c0 -263.333 -42.5 -465 -127.5 -605s-207.167 -210 -366.5 -210c-160 0 -282.167 68.5 -366.5 205.5s-126.5 335.5 -126.5 595.5zM333 876h567
c0 171.333 -26.333 310.833 -79 418.5s-121 161.5 -205 161.5c-83.333 0 -151.333 -53.833 -204 -161.5s-79 -247.167 -79 -418.5zM900 728h-567.001c0 -184.667 25.5 -331.667 76.5 -441s119.5 -164 205.5 -164c84.667 0 153.334 56 206.001 168s79 257.667 79 437z" />
    <glyph glyph-name="iota" unicode="&#x3b9;" 
d="M1036 27c-90.667 -34.667 -182.333 -52.001 -275 -52.001c-134 0 -226.5 29.333 -277.5 88s-76.5 165 -76.5 319v704h197v-685c0 -119.333 11.167 -195.666 33.5 -228.999s73.833 -50 154.5 -50c72.667 0 154 17.667 244 53v-148z" />
    <glyph glyph-name="kappa" unicode="&#x3ba;" 
d="M197 0l0.00195312 1086h197v-532l106 116c151.333 168 266.666 283 345.999 345c58.667 46.667 124.667 70 198 70l23 1v-178c-16.667 2 -28.667 3 -36 3c-58.667 0 -140.334 -52.667 -245.001 -158l-106 -108l-68 -68l566 -577h-237l-547 554v-554h-197z" />
    <glyph glyph-name="lambda" unicode="&#x3bb;" 
d="M508 985l-100.001 230.001c-32.667 75.333 -66.667 126 -102 152s-87.666 39 -156.999 39h-29v173h37c128.667 0 220.5 -19.333 275.5 -58s111.167 -124 168.5 -256l356 -812c64.667 -146.667 131.667 -278.334 201 -395.001l34 -58h-222
c-68 112.667 -129.667 232 -185 358l-185 418l-356 -776h-190z" />
    <glyph glyph-name="mu" unicode="&#x3bc;" 
d="M182 -419l0.00195312 1505h197v-553c0 -88 6.16699 -152.333 18.5 -193s36.166 -77 71.499 -109c47.333 -43.333 101.666 -65 162.999 -65c84 0 162.333 71.333 235 214v706h197v-751c0 -144.667 20 -256.334 60 -335.001h-216c-14 38.667 -26.333 96.334 -37 173.001
c-0.666992 6.66699 -2 16.667 -4 30c-34 -84 -69.333 -143 -106 -177s-83 -51 -139 -51c-49.333 0 -91.833 10.5 -127.5 31.5s-74.167 58.5 -115.5 112.5v-14v-524h-197z" />
    <glyph glyph-name="nu" unicode="&#x3bd;" 
d="M527 0l-16 37.999l-94 228c-48.667 120 -88 212.667 -118 278l-129 285c-50.667 110.667 -93 196.334 -127 257.001h215c11.333 -24.667 17.666 -38.334 18.999 -41.001l93 -193c78 -163.333 167.667 -368.333 269 -615l17 -42c84.667 142.667 154.834 284 210.501 424
s83.5 245 83.5 315c0 58.667 -8.33301 109.334 -25 152.001h194c10.667 -33.333 16 -72 16 -116c0 -152.667 -125 -454.667 -375 -906l-36 -64h-197z" />
    <glyph glyph-name="xi" unicode="&#x3be;" 
d="M561 -410l0.000976562 161.002c78 -14.667 147 -22 207 -22c166.667 0 250 48 250 144c0 84.667 -75 127 -225 127h-104c-179.333 0 -312.333 39.333 -399 118s-130 173.667 -130 285c0 92 32 176.5 96 253.5s151.667 137.167 263 180.5
c-81.333 31.333 -147.166 78.5 -197.499 141.5s-75.5 129.833 -75.5 200.5c0 59.333 24.667 123 74 191c-94.667 0 -197.334 22.333 -308.001 67v161c112 -53.333 254 -86 426 -98l45 -4c120.667 72 245.334 108 374.001 108c45.333 0 92.666 -4.33301 141.999 -13l30 -95
c-116 -85.333 -263 -128 -441 -128l-76 2c-45.333 -52.667 -68 -110.667 -68 -174c0 -92.667 38.833 -167.167 116.5 -223.5s180.167 -84.5 307.5 -84.5h131v-148h-136c-100 0 -173.833 -5.83301 -221.5 -17.5s-96.167 -35.834 -145.5 -72.501
c-84 -63.333 -126 -143 -126 -239c0 -75.333 26.833 -133.833 80.5 -175.5s129.5 -62.5 227.5 -62.5h99c136 0 235.833 -22.333 299.5 -67s95.5 -114.667 95.5 -210c0 -96.667 -41.333 -173.334 -124 -230.001s-194.334 -85 -335.001 -85c-22 0 -52 1.33301 -90 4z" />
    <glyph glyph-name="omicron" unicode="&#x3bf;" 
d="M617 -25c-159.333 0 -284.5 50.5 -375.5 151.5s-136.5 239.833 -136.5 416.5c0 176 45.667 314.5 137 415.5s216.333 151.5 375 151.5c159.333 0 284.5 -50.5 375.5 -151.5s136.5 -239.5 136.5 -415.5c0 -176.667 -45.5 -315.5 -136.5 -416.5
s-216.167 -151.5 -375.5 -151.5zM617 123c94.667 0 168.667 37 222 111s80 177 80 309c0 131.333 -26.667 234 -80 308s-127.333 111 -222 111s-168.667 -37 -222 -111s-80 -176.667 -80 -308c0 -132 26.667 -235 80 -309s127.333 -111 222 -111z" />
    <glyph glyph-name="pi" unicode="&#x3c0;" 
d="M291 0v913h-42c-52 0 -116.333 -23.333 -193 -70v193c68 33.333 135.667 50 203 50h920v-173h-185v-618c0 -112.667 25.667 -211 77 -295h-209c-43.333 97.333 -65 198.333 -65 303v610h-309v-913h-197z" />
    <glyph glyph-name="rho" unicode="&#x3c1;" 
d="M179 -395v812.002c0 256.667 50.333 439.667 151 549c88.667 96 204 144 346 144c138 0 246 -41.333 324 -124s117 -197.334 117 -344.001c0 -184.667 -52.333 -337.834 -157 -459.501s-236.667 -182.5 -396 -182.5c-60 0 -122.667 11.667 -188 35v-430h-197z
M376 226.002c62.667 -52 133.001 -78 211.001 -78c95.333 0 174.666 43.667 237.999 131s95 197 95 329c0 106 -24.667 191.5 -74 256.5s-114.333 97.5 -195 97.5c-87.333 0 -155 -39.667 -203 -119s-72 -192 -72 -338v-279z" />
    <glyph glyph-name="sigmafinal" unicode="&#x3c2;" 
d="M558 -254c63.333 -12 125.668 -18 187.001 -18c176 0 264 50.333 264 151c0 80.667 -80 121 -240 121h-100c-102 -0 -182.833 10.333 -242.5 31s-115.5 57.334 -167.5 110.001c-84 84.667 -126 193.667 -126 327c0 183.333 67.5 336.166 202.5 458.499
s303.833 183.5 506.5 183.5c79.333 0 149.333 -7.33301 210 -22v-153c-69.333 18.667 -141.666 28 -216.999 28c-159.333 0 -282.333 -41.5 -369 -124.5s-130 -201.167 -130 -354.5c0 -109.333 28.667 -188.5 86 -237.5s149.333 -73.5 276 -73.5h70
c263.333 0 395 -92.333 395 -277c0 -97.333 -40.833 -174.333 -122.5 -231s-192.834 -85 -333.501 -85c-48.667 0 -98.334 4.33301 -149.001 13v153z" />
    <glyph glyph-name="sigma" unicode="&#x3c3;" 
d="M720 1086l514.002 -0.000976562v-173h-293c64 -102.667 96 -227 96 -373c0 -176 -43.167 -314.167 -129.5 -414.5s-205.5 -150.5 -357.5 -150.5c-152.667 0 -272.167 50.167 -358.5 150.5s-129.5 239.5 -129.5 417.5c0 176.667 43.167 315.334 129.5 416.001
s205.166 151 356.499 151c51.333 0 108.666 -8 171.999 -24zM550.002 122.999c184.667 0 277 140 277 420c0 279.333 -92.333 419 -277 419c-185.333 0 -278 -139.667 -278 -419c0 -280 92.667 -420 278 -420z" />
    <glyph glyph-name="tau" unicode="&#x3c4;" 
d="M581 0c-28 61.333 -46.333 119.834 -55 175.501s-13 139.5 -13 251.5v486h-206c-92 0 -175.667 -16.667 -251 -50v183c70.667 26.667 158.667 40 264 40h847v-173h-457v-596c0 -130.667 26.333 -236.334 79 -317.001h-208z" />
    <glyph glyph-name="upsilon" unicode="&#x3c5;" 
d="M179 1086l196.999 0.000976562v-543c0 -174 19.333 -285.667 58 -335c43.333 -56.667 105.333 -85 186 -85c90.667 0 164.334 37.5 221.001 112.5s85 172.833 85 293.5c0 82 -14.667 176 -44 282s-66 197.667 -110 275h202c78.667 -178 118 -363 118 -555
c0 -164.667 -44.167 -298.5 -132.5 -401.5s-203.166 -154.5 -344.499 -154.5c-130.667 0 -238.334 41 -323.001 123c-44 43.333 -73.833 92.666 -89.5 147.999s-23.5 140.333 -23.5 255v585z" />
    <glyph glyph-name="phi" unicode="&#x3c6;" 
d="M524 -395v427c-146 0 -261.667 45.667 -347 137s-128 215 -128 371c0 156.667 42.5 280.5 127.5 371.5s200.833 136.5 347.5 136.5v531h185v-531c146.667 0 262.5 -45.5 347.5 -136.5s127.5 -214.833 127.5 -371.5c0 -156 -42.667 -279.667 -128 -371
s-201 -137 -347 -137v-427h-185zM524 898c-193.333 -12.667 -290 -133 -290 -361c0 -109.333 26 -195.833 78 -259.5s122.667 -95.5 212 -95.5v716zM709 898v-716c89.333 0 160 31.833 212 95.5s78 150.167 78 259.5c0 228 -96.667 348.333 -290 361z" />
    <glyph glyph-name="chi" unicode="&#x3c7;" 
d="M504 363l-211.001 359l-46 78l-68 112l-80 130l-34 44h229c64.667 -88.667 128.334 -187.667 191.001 -297l57 -101l79 -133l320 531h171l-406 -677l256 -441l66 -109l69 -113c22 -36 52.333 -83 91 -141h-227l-13 21l-182 293l-175 297l-368 -611h-173z" />
    <glyph glyph-name="psi" unicode="&#x3c8;" 
d="M531 -395v395c-159.333 16.667 -272.166 74 -338.499 172s-99.5 256 -99.5 474v153c0 115.333 -16.333 211 -49 287h187c3.33301 -12.667 5.66602 -20.667 6.99902 -24l25 -75c10 -31.333 15 -89.666 15 -174.999v-153c0 -208 32.667 -349.667 98 -425
c46 -53.333 97.667 -82 155 -86v1135h185v-1135c185.333 23.333 278 191.333 278 504c0 174.667 -26.333 319.334 -79 434.001h184c53.333 -136 80 -288.667 80 -458c0 -186.667 -41.5 -336.334 -124.5 -449.001s-195.833 -172.334 -338.5 -179.001v-395h-185z" />
    <glyph glyph-name="omega" unicode="&#x3c9;" 
d="M621 277c-54 -201.333 -141.334 -302.001 -262.001 -302.001c-96 0 -173.667 49.167 -233 147.5s-89 226.833 -89 385.5c0 102 13.167 205.5 39.5 310.5s61.5 194.167 105.5 267.5h201c-49.333 -70 -88.5 -157.667 -117.5 -263s-43.5 -211.666 -43.5 -318.999
c0 -106 14.667 -193.333 44 -262s67 -104 113 -106c68 -3.33301 123.333 106.667 166 330c-31.333 82 -47 165.667 -47 251c0 93.333 15.667 181.333 47 264h156c31.333 -82.667 47 -170.667 47 -264c0 -85.333 -15.667 -169 -47 -251c37.333 -220 92.333 -330 165 -330
c42.667 0 77.5 34.667 104.5 104s40.5 158.666 40.5 267.999c0 244.667 -49.333 437.334 -148 578.001h200c89.333 -132 134 -311.333 134 -538c0 -168 -30.167 -305.5 -90.5 -412.5s-137.833 -160.5 -232.5 -160.5c-131.333 0 -215.666 100.667 -252.999 302z" />
    <glyph glyph-name="iotadiaeresis" unicode="&#x3ca;" 
d="M1036 27c-90.667 -34.667 -182.333 -52.001 -275 -52.001c-134 0 -226.5 29.333 -277.5 88s-76.5 165 -76.5 319v704h197v-685c0 -119.333 11.167 -195.666 33.5 -228.999s73.833 -50 154.5 -50c72.667 0 154 17.667 244 53v-148zM222.001 1283v173h173v-173h-173z
M715.001 1283v173h173v-173h-173z" />
    <glyph glyph-name="upsilondiaeresis" unicode="&#x3cb;" 
d="M179 1086l196.999 0.000976562v-543c0 -174 19.333 -285.667 58 -335c43.333 -56.667 105.333 -85 186 -85c90.667 0 164.334 37.5 221.001 112.5s85 172.833 85 293.5c0 82 -14.667 176 -44 282s-66 197.667 -110 275h202c78.667 -178 118 -363 118 -555
c0 -164.667 -44.167 -298.5 -132.5 -401.5s-203.166 -154.5 -344.499 -154.5c-130.667 0 -238.334 41 -323.001 123c-44 43.333 -73.833 92.666 -89.5 147.999s-23.5 140.333 -23.5 255v585zM300.999 1283v173h173v-173h-173zM793.999 1283v173h173v-173h-173z" />
    <glyph glyph-name="omicrontonos" unicode="&#x3cc;" 
d="M617 -25c-159.333 0 -284.5 50.5 -375.5 151.5s-136.5 239.833 -136.5 416.5c0 176 45.667 314.5 137 415.5s216.333 151.5 375 151.5c159.333 0 284.5 -50.5 375.5 -151.5s136.5 -239.5 136.5 -415.5c0 -176.667 -45.5 -315.5 -136.5 -416.5
s-216.167 -151.5 -375.5 -151.5zM617 123c94.667 0 168.667 37 222 111s80 177 80 309c0 131.333 -26.667 234 -80 308s-127.333 111 -222 111s-168.667 -37 -222 -111s-80 -176.667 -80 -308c0 -132 26.667 -235 80 -309s127.333 -111 222 -111zM543 1283l-25 321h197
l-24 -321h-148z" />
    <glyph glyph-name="upsilontonos" unicode="&#x3cd;" 
d="M179 1086l196.999 0.000976562v-543c0 -174 19.333 -285.667 58 -335c43.333 -56.667 105.333 -85 186 -85c90.667 0 164.334 37.5 221.001 112.5s85 172.833 85 293.5c0 82 -14.667 176 -44 282s-66 197.667 -110 275h202c78.667 -178 118 -363 118 -555
c0 -164.667 -44.167 -298.5 -132.5 -401.5s-203.166 -154.5 -344.499 -154.5c-130.667 0 -238.334 41 -323.001 123c-44 43.333 -73.833 92.666 -89.5 147.999s-23.5 140.333 -23.5 255v585zM510.999 1283l-25 321h197l-24 -321h-148z" />
    <glyph glyph-name="omegatonos" unicode="&#x3ce;" 
d="M621 277c-54 -201.333 -141.334 -302.001 -262.001 -302.001c-96 0 -173.667 49.167 -233 147.5s-89 226.833 -89 385.5c0 102 13.167 205.5 39.5 310.5s61.5 194.167 105.5 267.5h201c-49.333 -70 -88.5 -157.667 -117.5 -263s-43.5 -211.666 -43.5 -318.999
c0 -106 14.667 -193.333 44 -262s67 -104 113 -106c68 -3.33301 123.333 106.667 166 330c-31.333 82 -47 165.667 -47 251c0 93.333 15.667 181.333 47 264h156c31.333 -82.667 47 -170.667 47 -264c0 -85.333 -15.667 -169 -47 -251c37.333 -220 92.333 -330 165 -330
c42.667 0 77.5 34.667 104.5 104s40.5 158.666 40.5 267.999c0 244.667 -49.333 437.334 -148 578.001h200c89.333 -132 134 -311.333 134 -538c0 -168 -30.167 -305.5 -90.5 -412.5s-137.833 -160.5 -232.5 -160.5c-131.333 0 -215.666 100.667 -252.999 302zM549.999 1283
l-25 321h197l-24 -321h-148z" />
    <glyph glyph-name="Io" unicode="&#x401;" 
d="M216 0v1283h867v-148h-670v-389h568v-148h-568v-450h716v-148h-913zM339 1443v173h173v-173h-173zM832 1443v173h173v-173h-173z" />
    <glyph glyph-name="Dje" unicode="&#x402;" 
d="M531 713c91.333 88.667 193.999 133 307.999 133c107.333 0 193.833 -37.833 259.5 -113.5s98.5 -175.5 98.5 -299.5c0 -132 -35.667 -239.167 -107 -321.5s-164 -123.5 -278 -123.5c-39.333 0 -75.666 4 -108.999 12v144c20 -5.33301 44.667 -8 74 -8
c140.667 0 211 91.333 211 274c0 171.333 -66 257 -198 257c-94.667 0 -181 -43.667 -259 -131v-536h-198v1135h-321v148h852v-148h-333v-422z" />
    <glyph glyph-name="Gje" unicode="&#x403;" 
d="M247 0v1283h913v-148h-716v-1135h-197zM537 1394l222 222h271l-333 -222h-160z" />
    <glyph glyph-name="Ecyril" unicode="&#x404;" 
d="M1148 26c-116.667 -38 -236 -56.999 -358 -56.999c-224.667 0 -395 58.667 -511 176s-174 289.666 -174 516.999c0 207.333 58.5 367.833 175.5 481.5s282.5 170.5 496.5 170.5c118.667 0 236 -19.333 352 -58v-162c-130 48 -241 72 -333 72
c-132 0 -240.667 -37.5 -326 -112.5s-134.333 -176.5 -147 -304.5h565v-148h-565c0 -142.667 43.667 -258 131 -346s202 -132 344 -132c118 0 234.667 28.333 350 85v-182z" />
    <glyph glyph-name="Dze" unicode="&#x405;" 
d="M1010 1253v-170.997c-144.667 56 -273.334 84 -386.001 84c-178 0 -267 -60 -267 -180c0 -48.667 16.667 -87.834 50 -117.501s95 -60.167 185 -91.5l126 -44l120 -41c186 -65.333 279 -176 279 -332c0 -118.667 -47.5 -213.5 -142.5 -284.5
s-222.167 -106.5 -381.5 -106.5c-110.667 0 -253.667 23.667 -429 71v195c174.667 -78.667 319.667 -118 435 -118c97.333 0 175 19.167 233 57.5s87 89.833 87 154.5c0 49.333 -17.167 88.333 -51.5 117s-105.166 62.667 -212.499 102l-132 48
c-131.333 48.667 -222.5 98.667 -273.5 150s-76.5 119.666 -76.5 204.999c0 115.333 39.167 204.666 117.5 267.999s188.5 95 330.5 95c115.333 0 245 -20.333 389 -61z" />
    <glyph glyph-name="Icyril" unicode="&#x406;" 
d="M173 0v148h345v987h-345v148h888v-148h-345v-987h345v-148h-888z" />
    <glyph glyph-name="Yi" unicode="&#x407;" 
d="M173 0v148h345v987h-345v148h888v-148h-345v-987h345v-148h-888zM284 1443v173h173v-173h-173zM777 1443v173h173v-173h-173z" />
    <glyph glyph-name="Je" unicode="&#x408;" 
d="M197 17v167l66 -22c91.333 -30 163.666 -45 216.999 -45c94 0 159.833 24.333 197.5 73s56.5 134.667 56.5 258v687h-444v148h641v-730c0 -130 -7.66699 -226.667 -23 -290s-44.666 -119 -87.999 -167c-76 -84.667 -184.667 -127 -326 -127
c-76.667 0 -175.667 16 -297 48z" />
    <glyph glyph-name="Lje" unicode="&#x409;" 
d="M0 0v148h22c60 0 99.333 15.167 118 45.5s28 94.5 28 192.5l1 151v239v507h593v-518h14c288.667 0 433 -119.333 433 -358c0 -125.333 -40 -224.5 -120 -297.5s-189 -109.5 -327 -109.5h-185v1135h-223v-258c0 -304 -3.83301 -500.333 -11.5 -589s-26.5 -153 -56.5 -193
c-48 -63.333 -143.333 -95 -286 -95zM762 148h11c170.667 0 256 77.333 256 232c0 158 -84.667 237 -254 237h-13v-469z" />
    <glyph glyph-name="Nje" unicode="&#x40a;" 
d="M749 1283v-518h15c288.667 0 433 -119.333 433 -358c0 -125.333 -40.167 -224.5 -120.5 -297.5s-189.5 -109.5 -327.5 -109.5h-197v617h-243v-617h-198v1283h198v-518h243v518h197zM749 148h12c170 0 255 77.333 255 232c0 158 -84.667 237 -254 237h-13v-469z" />
    <glyph glyph-name="Tshe" unicode="&#x40b;" 
d="M506 0h-198v1135h-302v148h802v-148h-302v-427c133.333 95.333 255.333 143 366 143c200 0 300 -114.333 300 -343v-508h-198v455c0 80 -13 137 -39 171s-70 51 -132 51c-87.333 0 -186.333 -46.667 -297 -140v-537z" />
    <glyph glyph-name="Kje" unicode="&#x40c;" 
d="M402 586v-585.999h-197v1283h197v-549c72 0 122.5 8.16699 151.5 24.5s64.833 56.833 107.5 121.5l45 67l57 95c63.333 104.667 114 171 152 199s96 42 174 42h23v-148c-42 0 -74.167 -8.33301 -96.5 -25s-49.5 -52.334 -81.5 -107.001l-37 -63l-31 -49l-38 -63
c-46.667 -74 -108.334 -124.667 -185.001 -152c61.333 -18 108.5 -40.833 141.5 -68.5s68.833 -74.167 107.5 -139.5l58 -98l63 -104l56 -96l79 -130l24 -40h-223l-21 31l-71 119l-87 143c-71.333 116 -118.666 187.833 -141.999 215.5s-58.333 53.5 -105 77.5h-121z
M468 1394l222 222h271l-333 -222h-160z" />
    <glyph glyph-name="Ucyrilbreve" unicode="&#x40e;" 
d="M492 371l-455 912h235l350 -703l422 703h190l-608 -1026c-66 -111.333 -129 -182 -189 -212s-167.667 -45 -323 -45h-14v148h16c102.667 0 176 10.167 220 30.5s83.667 62.5 119 126.5zM322 1616h123c40 -65.333 110 -98 210 -98s170 32.667 210 98h123
c-48.667 -148 -159.667 -222 -333 -222s-284.333 74 -333 222z" />
    <glyph glyph-name="Dzhe" unicode="&#x40f;" 
d="M123 0v1283h198v-1135h592v1135h197v-1283h-395v-296h-197v296h-395z" />
    <glyph glyph-name="Acyril" unicode="&#x410;" 
d="M12 0l506 1283h197l506 -1283h-209l-121 321h-586l-123 -321h-170zM364 469h468l-235 613z" />
    <glyph glyph-name="Be" unicode="&#x411;" 
d="M210 0v1283h833v-148h-636v-389h132c200 0 338.333 -21.667 415 -65c108.667 -62 163 -158.667 163 -290c0 -139.333 -64.333 -246.666 -193 -321.999c-78.667 -46 -225 -69 -439 -69h-275zM407 147.999h93c145.333 0 249.5 17.667 312.5 53s94.5 93.333 94.5 174
s-29 138 -87 172s-155 51 -291 51h-122v-450z" />
    <glyph glyph-name="Ve" unicode="&#x412;" 
d="M185 0l0.000976562 1283h414c300 0 450 -99.333 450 -298c0 -76 -25.833 -141.5 -77.5 -196.5s-123.834 -94.167 -216.501 -117.5c238 -48.667 357 -161.667 357 -339c0 -101.333 -35 -180.666 -105 -237.999c-45.333 -38 -97 -63.167 -155 -75.5
s-151.333 -18.5 -280 -18.5h-387zM382.001 727.999h68.999c265.333 0 398 74 398 222c0 72.667 -25.667 121.667 -77 147s-150.666 38 -297.999 38h-92v-407zM382 147.999l178 -0.000976562c130 0 219.5 13.333 268.5 40s73.5 75.667 73.5 147
c0 82.667 -40.167 148.334 -120.5 197.001s-189.5 73 -327.5 73h-72v-457z" />
    <glyph glyph-name="Ge" unicode="&#x413;" 
d="M247 0v1283h913v-148h-716v-1135h-197z" />
    <glyph glyph-name="De" unicode="&#x414;" 
d="M28 -296l0.000976562 444h99c77.333 124 131.666 260.833 162.999 410.5s47 345.5 47 587.5v137h694v-1135h148v-444h-198v296h-755v-296h-198zM833.001 148v987h-299v-31c0 -409.333 -62.333 -728 -187 -956h486z" />
    <glyph glyph-name="Ie" unicode="&#x415;" 
d="M216 0v1283h867v-148h-670v-389h568v-148h-568v-450h716v-148h-913z" />
    <glyph glyph-name="Zhe" unicode="&#x416;" 
d="M531 0l0.000976562 598h-26c-50 -86 -102 -187.333 -156 -304l-80 -171l-48 -98c-2.66699 -5.33301 -6.33398 -13.666 -11.001 -24.999h-204c35.333 66.667 63.666 122.334 84.999 167.001l45 94l44 92l56 117c46.667 95.333 112.334 164 197.001 206
c-49.333 14.667 -85.5 34.5 -108.5 59.5s-53.5 76.833 -91.5 155.5l-38 79l-32 65c-22 45.333 -39.833 73.333 -53.5 84s-38.167 16 -73.5 16h-17v148h15h12c78.667 0 135.667 -14.5 171 -43.5s79 -97.167 131 -204.5l33 -70l31 -64
c51.333 -106.667 91 -163.334 119 -170.001v552h172v-552c27.333 6.66699 67 63.334 119 170.001l31 64l33 70c52 107.333 95.5 175.5 130.5 204.5s92.167 43.5 171.5 43.5h9h18v-148h-17c-35.333 0 -59.833 -5.33301 -73.5 -16s-31.5 -38.667 -53.5 -84l-33 -65l-38 -79
c-37.333 -78.667 -67.5 -130.5 -90.5 -155.5s-59.167 -44.833 -108.5 -59.5c84.667 -42 150.334 -110.667 197.001 -206l56 -117l44 -92l45 -94l85 -167h-204c-4.66699 11.333 -8.33398 19.666 -11.001 24.999l-48 98l-80 171c-54 115.333 -106 216.666 -156 303.999h-26
v-598h-172z" />
    <glyph glyph-name="Ze" unicode="&#x417;" 
d="M96 17v177c136 -51.333 260.333 -77 373 -77c118.667 0 210.667 20.833 276 62.5s98 100.5 98 176.5c0 168 -152.333 252 -457 252h-74v148h73c150.667 0 258.5 16.333 323.5 49s97.5 86.667 97.5 162c0 132.667 -105.333 199 -316 199
c-139.333 0 -262.333 -22.667 -369 -68v158c125.333 38.667 263 58 413 58c316.667 0 475 -106.667 475 -320c0 -135.333 -81 -233.666 -243 -294.999c91.333 -22.667 162 -63.834 212 -123.501s75 -132.167 75 -217.5c0 -122.667 -49 -218.167 -147 -286.5
s-235.333 -102.5 -412 -102.5c-141.333 0 -274 16 -398 48z" />
    <glyph glyph-name="Ii" unicode="&#x418;" 
d="M1086 0h-173v926l-589 -926h-176v1283h173v-925l587 925h178v-1283z" />
    <glyph glyph-name="Iibreve" unicode="&#x419;" 
d="M1086 0h-173v926l-589 -926h-176v1283h173v-925l587 925h178v-1283zM298 1616h123c40 -65.333 110 -98 210 -98s170 32.667 210 98h123c-48.667 -148 -159.667 -222 -333 -222s-284.333 74 -333 222z" />
    <glyph glyph-name="Ka" unicode="&#x41a;" 
d="M402 586v-585.999h-197v1283h197v-549c72 0 122.5 8.16699 151.5 24.5s64.833 56.833 107.5 121.5l45 67l57 95c63.333 104.667 114 171 152 199s96 42 174 42h23v-148c-42 0 -74.167 -8.33301 -96.5 -25s-49.5 -52.334 -81.5 -107.001l-37 -63l-31 -49l-38 -63
c-46.667 -74 -108.334 -124.667 -185.001 -152c61.333 -18 108.5 -40.833 141.5 -68.5s68.833 -74.167 107.5 -139.5l58 -98l63 -104l56 -96l79 -130l24 -40h-223l-21 31l-71 119l-87 143c-71.333 116 -118.666 187.833 -141.999 215.5s-58.333 53.5 -105 77.5h-121z" />
    <glyph glyph-name="El" unicode="&#x41b;" 
d="M25 0v148.002c112.667 0 190.834 29.833 234.501 89.5s65.5 166.167 65.5 319.5l6 194l2 160v372h762v-1283h-198v1135h-367v-122c0 -250.667 -7.5 -440.334 -22.5 -569.001s-40.167 -220.334 -75.5 -275.001c-74.667 -112.667 -210.334 -169 -407.001 -169z" />
    <glyph glyph-name="Em" unicode="&#x41c;" 
d="M94 0v1283h237l282 -790h2l277 790h247v-1283h-161v1101h-2l-289 -830h-166l-288 807h-2v-1078h-137z" />
    <glyph glyph-name="En" unicode="&#x41d;" 
d="M148 0v1283h197v-561h543v561h198v-1283h-198v574h-543v-574h-197z" />
    <glyph glyph-name="Ocyril" unicode="&#x41e;" 
d="M62 642c0 204.667 50.167 367.834 150.5 489.501s235.166 182.5 404.499 182.5s304.166 -60.833 404.499 -182.5s150.5 -284.834 150.5 -489.501c0 -205.333 -50.167 -368.833 -150.5 -490.5s-235.166 -182.5 -404.499 -182.5s-304.166 60.833 -404.499 182.5
s-150.5 285.167 -150.5 490.5zM272 642c0 -168 29.833 -297.5 89.5 -388.5s144.834 -136.5 255.501 -136.5s196 45.5 256 136.5s90 220.5 90 388.5c0 167.333 -30 296.5 -90 387.5s-145.333 136.5 -256 136.5s-195.834 -45.5 -255.501 -136.5s-89.5 -220.167 -89.5 -387.5z
" />
    <glyph glyph-name="Pecyril" unicode="&#x41f;" 
d="M148 0v1283h938v-1283h-198v1135h-543v-1135h-197z" />
    <glyph glyph-name="Er" unicode="&#x420;" 
d="M228 0l-0.000976562 1283h417c148.667 0 254.667 -13.333 318 -40c129.333 -56 194 -164 194 -324c0 -134.667 -52.167 -240.334 -156.5 -317.001s-248.166 -115 -431.499 -115h-144v-487h-197zM424.999 635.001h122.999c266.667 0 400 93.333 400 280
c0 78.667 -25.167 135 -75.5 169s-134.166 51 -251.499 51h-196v-500z" />
    <glyph glyph-name="Es" unicode="&#x421;" 
d="M1155 40c-132 -47.333 -256.331 -70.999 -372.998 -70.999c-204 0 -368.333 61.167 -493 183.5s-187 283.166 -187 482.499c0 202 62 365.667 186 491s286 188 486 188c113.333 0 234.666 -19.333 363.999 -58v-181c-132 60.667 -255.333 91 -370 91
c-132.667 0 -241.834 -48.667 -327.501 -146s-128.5 -221.333 -128.5 -372c0 -152 48.333 -276.333 145 -373s221 -145 373 -145c92 0 200.333 24 325 72v-162z" />
    <glyph glyph-name="Te" unicode="&#x422;" 
d="M518 0v1135h-493v148h1184v-148h-493v-1135h-198z" />
    <glyph glyph-name="Ucyril" unicode="&#x423;" 
d="M492 371l-455 912h235l350 -703l422 703h190l-608 -1026c-66 -111.333 -129 -182 -189 -212s-167.667 -45 -323 -45h-14v148h16c102.667 0 176 10.167 220 30.5s83.667 62.5 119 126.5z" />
    <glyph glyph-name="Ef" unicode="&#x424;" 
d="M519 0v200c-150 0 -270.333 40.167 -361 120.5s-136 187.5 -136 321.5c0 133.333 45.167 240.166 135.5 320.499s210.833 120.5 361.5 120.5v200h197v-200c150.667 0 271.167 -40.167 361.5 -120.5s135.5 -187.5 135.5 -321.5
c0 -133.333 -45.167 -240.166 -135.5 -320.499s-210.833 -120.5 -361.5 -120.5v-200h-197zM519 349v586c-199.333 0 -299 -97.667 -299 -293s99.667 -293 299 -293zM716 349c200 0 300 97.667 300 293s-100 293 -300 293v-586z" />
    <glyph glyph-name="Kha" unicode="&#x425;" 
d="M11 0l503 653l-460 630h233l347 -475l367 475h192l-466 -602l492 -681h-234l-379 522l-403 -522h-192z" />
    <glyph glyph-name="Tse" unicode="&#x426;" 
d="M120 0v1283h198v-1135h536v1135h198v-1135h148v-444h-198v296h-882z" />
    <glyph glyph-name="Che" unicode="&#x427;" 
d="M835 0v551c-133.333 -95.333 -259 -143 -377 -143c-100 0 -177.167 32 -231.5 96s-81.5 154.667 -81.5 272v507h197v-454c0 -93.333 12.5 -157 37.5 -191s71.833 -51 140.5 -51c59.333 0 110.333 10 153 30s96.667 59.333 162 118v548h198v-1283h-198z" />
    <glyph glyph-name="Sha" unicode="&#x428;" 
d="M1160 0h-1086v1283h179v-1135h277v1135h173v-1135h278v1135h179v-1283z" />
    <glyph glyph-name="Shcha" unicode="&#x429;" 
d="M74 0v1283h179v-1135h277v1135h173v-1135h278v1135h179v-1135h74v-444h-198v296h-962z" />
    <glyph glyph-name="Hard" unicode="&#x42a;" 
d="M352 0v1135h-333v148h531v-537h70c200 0 338.667 -21.333 416 -64c107.333 -58.667 161 -153.334 161 -284.001c0 -152 -61.667 -263 -185 -333c-76 -43.333 -225 -65 -447 -65h-213zM550 148.001l31 -0.00195312c159.333 0 267 15.833 323 47.5s84 92.834 84 183.501
c0 82.667 -27.5 139.834 -82.5 171.501s-153.833 47.5 -296.5 47.5h-59v-450z" />
    <glyph glyph-name="Yeri" unicode="&#x42b;" 
d="M296 148h58c170 0 255 79.333 255 238c0 158 -84.667 237 -254 237h-59v-475zM1135 0h-197v1283h197v-1283zM99 1283l197 -0.000976562v-512h61l36 1c120 0 216.167 -32.667 288.5 -98s108.5 -152 108.5 -260c0 -131.333 -43.333 -233.166 -130 -305.499
s-208 -108.5 -364 -108.5h-197v1283z" />
    <glyph glyph-name="Soft" unicode="&#x42c;" 
d="M228 0l-0.00195312 1283h197v-537h169c194.667 0 332.334 -22 413.001 -66c110 -60.667 165 -157.334 165 -290.001c0 -136 -63.333 -241 -190 -315c-85.333 -50 -232.666 -75 -441.999 -75h-312zM424.998 148.001h129.999c271.333 0 407 77.667 407 233
c0 78 -29.167 133.667 -87.5 167s-155.166 50 -290.499 50h-159v-450z" />
    <glyph glyph-name="Ecyrilrev" unicode="&#x42d;" 
d="M86 26l-0.00292969 182c114.667 -56.667 227.334 -85 338.001 -85c196 0 334.333 74.333 415 223c48 88 72 173 72 255h-566v148h566c-13.333 128 -62.666 229.5 -147.999 304.5s-193.666 112.5 -324.999 112.5c-92 0 -203 -24 -333 -72v162
c115.333 38.667 232 58 350 58c216 0 382.333 -55.833 499 -167.5s175 -270.5 175 -476.5c0 -222 -60.333 -394.333 -181 -517s-290 -184 -508 -184c-119.333 0 -237.333 19 -354 57z" />
    <glyph glyph-name="Iu" unicode="&#x42e;" 
d="M376 605l-148 -0.000976562v-605h-185v1283h185v-530h151c28.667 374 169.667 561 423 561c137.333 0 242.5 -57.667 315.5 -173s109.5 -281.666 109.5 -498.999s-36.5 -383.833 -109.5 -499.5s-178.167 -173.5 -315.5 -173.5c-264 0 -406 212 -426 636zM802 116.999
c144 0 216.001 175 216.001 525c0 181.333 -17.333 314 -52 398s-89.334 126 -164.001 126s-129.334 -42.167 -164.001 -126.5s-52 -216.833 -52 -397.5c0 -182 17.333 -315 52 -399s89.334 -126 164.001 -126z" />
    <glyph glyph-name="Ia" unicode="&#x42f;" 
d="M863 531h-141.001c-32 -32.667 -72.333 -77.667 -121 -135l-105 -125l-109 -135l-75 -100c-3.33301 -4.66699 -12.666 -16.667 -27.999 -36h-272c40 44 73.333 82 100 114l66 81l41 49l30 38l57 71c65.333 82 109.5 133.833 132.5 155.5s54.833 41.834 95.5 60.501
c-108 15.333 -192.333 53.166 -253 113.499s-91 137.5 -91 231.5c0 124.667 48 220 144 286c79.333 55.333 211.333 83 396 83h330v-1283h-197v531zM862.999 1135h-131c-122 0 -207.833 -16.667 -257.5 -50s-74.5 -91.333 -74.5 -174c0 -154.667 128.333 -232 385 -232h78
v456z" />
    <glyph glyph-name="acyril" unicode="&#x430;" 
d="M835 131c-119.333 -100 -238.335 -150.003 -357.002 -150.003c-99.333 0 -181.166 28.333 -245.499 85s-96.5 128.334 -96.5 215.001c0 112.667 50 203.334 150 272.001s232 103 396 103h122v93c0 76.667 -17 131.334 -51 164.001s-90.333 49 -169 49
c-114 0 -232 -32 -354 -96v169c140 50 271.333 75 394 75c138 0 235.5 -27.333 292.5 -82s85.5 -149 85.5 -283v-455c0 -65.333 7 -109.833 21 -133.5s40.333 -35.5 79 -35.5c12.667 0 33.334 3.33301 62.001 10l18 -118c-66 -21.333 -116 -32 -150 -32
c-97.333 0 -163 50 -197 150zM803.998 258.997v274h-59c-270 0 -405 -73 -405 -219c0 -52.667 17.333 -95 52 -127s80.667 -48 138 -48c86 0 177.333 40 274 120z" />
    <glyph glyph-name="be" unicode="&#x431;" 
d="M320 847c101.333 159.333 233.332 239.001 395.999 239.001c124.667 0 224.667 -48.833 300 -146.5s113 -226.834 113 -387.501c0 -172.667 -46.5 -312 -139.5 -418s-215.5 -159 -367.5 -159c-332.667 0 -499 243.333 -499 730c0 306 46.167 528.167 138.5 666.5
s240.5 207.5 444.5 207.5h42c104 0 192 12.333 264 37v-159c-89.333 -17.333 -169.666 -26 -240.999 -26h-24c-145.333 0 -248.833 -42.167 -310.5 -126.5s-100.5 -236.833 -116.5 -457.5zM321.999 710.001l-0.999023 -33.999c0 -368.667 104 -553 312 -553
c88 0 157.833 37.667 209.5 113s77.5 176.666 77.5 303.999c0 244.667 -85.667 367 -257 367c-120.667 0 -234.334 -65.667 -341.001 -197z" />
    <glyph glyph-name="ve" unicode="&#x432;" 
d="M187 0v1086h477c130 0 224 -19.333 282 -58s87 -101.667 87 -189c0 -130 -76.667 -220.667 -230 -272c182.667 -48.667 274 -144.667 274 -288c0 -186 -124.667 -279 -374 -279h-516zM385 148h178.999c120.667 0 201.834 9.66699 243.501 29s62.5 57 62.5 113
c0 137.333 -98 206 -294 206h-191v-348zM384.999 626l197.001 0.00195312c73.333 0 133.166 16.167 179.499 48.5s69.5 74.166 69.5 125.499s-17.5 87.166 -52.5 107.499s-96.833 30.5 -185.5 30.5h-208v-312z" />
    <glyph glyph-name="ge" unicode="&#x433;" 
d="M247 0v1086h888v-148h-691v-938h-197z" />
    <glyph glyph-name="de" unicode="&#x434;" 
d="M52 -247v395h101c78 116.667 133 239.5 165 368.5s48 290.167 48 483.5v86h617v-938h198v-395h-185v247h-759v-247h-185zM786 148v790h-238v-24c0 -280 -61.333 -535.333 -184 -766h422z" />
    <glyph glyph-name="ie" unicode="&#x435;" 
d="M1098 43c-136.667 -45.333 -262.001 -68.001 -376.001 -68.001c-186.667 0 -330.167 48 -430.5 144s-150.5 233.333 -150.5 412c0 168.667 48.167 307.334 144.5 416.001s218.833 163 367.5 163c150 0 260.5 -45 331.5 -135s106.5 -230 106.5 -420v-63h-740
c14.667 -246 147.334 -369 398.001 -369c106 0 222.333 25.333 349 76v-156zM356.999 639.999h524v28c0 196 -81.667 294 -245 294c-78.667 0 -142.5 -28.333 -191.5 -85s-78.167 -135.667 -87.5 -237z" />
    <glyph glyph-name="zhe" unicode="&#x436;" 
d="M525 1086h185.003v-488c22.667 0 39.667 5.66699 51 17s24.666 35.666 39.999 72.999l27 61l24 58l22 55c37.333 89.333 72.166 149 104.499 179s78.833 45 139.5 45h11v-148h-10c-36.667 0 -71 -39.667 -103 -119l-20 -49l-19 -45c-23.333 -56.667 -43.5 -95 -60.5 -115
s-45.833 -40 -86.5 -60c64.667 -18 117.667 -66.333 159 -145l40 -76l52 -99l46 -86c30 -57.333 57 -105.333 81 -144h-203l-14 27l-46 88l-61 122c-4.66699 9.33301 -27 50.666 -67 123.999l-67 126h-40v-487h-185v487h-41l-66 -126c-38.667 -70 -61 -111.333 -67 -124
l-62 -122c-3.33301 -7.33301 -18.666 -36.666 -45.999 -87.999l-14 -27h-203c23.333 36.667 50.666 84.667 81.999 144l45 86l52 99l40 76c42 78.667 95 127 159 145c-40.667 20 -69.334 40 -86.001 60s-37 58.333 -61 115l-18 45c-5.33301 12 -12 28.333 -20 49
c-32 79.333 -66.667 119 -104 119h-10v148h11c60.667 0 107.5 -15.167 140.5 -45.5s67.833 -89.833 104.5 -178.5l22 -55l23 -58l27 -61c16 -37.333 29.667 -61.666 41 -72.999s28.333 -17 51 -17v488z" />
    <glyph glyph-name="ze" unicode="&#x437;" 
d="M188 30v166c109.333 -48.667 240.333 -73 393 -73c174 0 261 68.333 261 205c0 71.333 -25.667 121.833 -77 151.5s-138 44.5 -260 44.5h-101v148h101c91.333 0 152.333 3 183 9s57.667 20.333 81 43c28 27.333 42 61.666 42 102.999c0 50 -19.333 85 -58 105
s-106.667 30 -204 30c-112.667 0 -220.667 -20.667 -324 -62v154c118.667 37.333 241.334 56 368.001 56c143.333 0 248.5 -19 315.5 -57s100.5 -98 100.5 -180c0 -113.333 -60.333 -202.333 -181 -267c145.333 -56.667 218 -154 218 -292
c0 -107.333 -42 -190.666 -126 -249.999s-201.333 -89 -352 -89c-154.667 0 -281.334 18.333 -380.001 55z" />
    <glyph glyph-name="ii" unicode="&#x438;" 
d="M163 0v1086h191v-804l531 804h185v-1086h-185v793l-523 -793h-199z" />
    <glyph glyph-name="iibreve" unicode="&#x439;" 
d="M163 0v1086h191v-804l531 804h185v-1086h-185v793l-523 -793h-199zM283 1579h123.001c21.333 -98.667 91.333 -148 210 -148s188.667 49.333 210 148h123c-10 -90 -45.333 -161.833 -106 -215.5s-136.334 -80.5 -227.001 -80.5s-166.167 26.833 -226.5 80.5
s-95.833 125.5 -106.5 215.5z" />
    <glyph glyph-name="ka" unicode="&#x43a;" 
d="M442 463v-463.001h-197v1086h197v-475l43 1c63.333 0 107.666 10.167 132.999 30.5s58 72.5 98 156.5l22 46c48 100.667 91.167 166 129.5 196s98.166 45 179.499 45v-148c-39.333 0 -68.666 -9.16699 -87.999 -27.5s-45 -60.833 -77 -127.5l-19 -40l-25 -55
c-29.333 -60.667 -77 -108 -143 -142c54.667 -18.667 96 -43.167 124 -73.5s66 -91.166 114 -182.499l40 -76c46.667 -88.667 88.334 -160 125.001 -214h-218c-18.667 37.333 -39.667 77 -63 119l-54 95c-69.333 124 -127 207 -173 249h-148z" />
    <glyph glyph-name="el" unicode="&#x43b;" 
d="M43 0v147.999c53.333 3.33301 93.833 18 121.5 44s51.5 71.667 71.5 137c48 160.667 72 377.334 72 650.001v107h728v-1086h-197v938h-340v-19c0 -305.333 -36 -535.333 -108 -690c-71.333 -152.667 -187.333 -229 -348 -229z" />
    <glyph glyph-name="em" unicode="&#x43c;" 
d="M120 0v1086h217l282 -849l265 849h229v-1086h-185v865l-249 -791h-171l-234 705v-779h-154z" />
    <glyph glyph-name="en" unicode="&#x43d;" 
d="M179 0v1086h197v-441h481v441h198v-1086h-198v497h-481v-497h-197z" />
    <glyph glyph-name="ocyril" unicode="&#x43e;" 
d="M617 -25c-159.333 0 -284.5 50.5 -375.5 151.5s-136.5 239.833 -136.5 416.5c0 176 45.667 314.5 137 415.5s216.333 151.5 375 151.5c159.333 0 284.5 -50.5 375.5 -151.5s136.5 -239.5 136.5 -415.5c0 -176.667 -45.5 -315.5 -136.5 -416.5
s-216.167 -151.5 -375.5 -151.5zM617 123c94.667 0 168.667 37 222 111s80 177 80 309c0 131.333 -26.667 234 -80 308s-127.333 111 -222 111s-168.667 -37 -222 -111s-80 -176.667 -80 -308c0 -132 26.667 -235 80 -309s127.333 -111 222 -111z" />
    <glyph glyph-name="pecyril" unicode="&#x43f;" 
d="M197 0v1086h839v-1086h-198v938h-444v-938h-197z" />
    <glyph glyph-name="er" unicode="&#x440;" 
d="M179 -395l0.000976562 1481h197v-204c95.333 152 213.666 228 354.999 228c123.333 0 220.5 -47.5 291.5 -142.5s106.5 -224.5 106.5 -388.5c0 -180 -42 -325.667 -126 -437s-194 -167 -330 -167c-116.667 0 -215.667 49.333 -297 148v-518h-197zM376.001 271
c91.333 -98.667 181.332 -147.999 269.999 -147.999c86.667 0 153.834 38.167 201.501 114.5s71.5 183.166 71.5 320.499c0 256 -76.333 384 -229 384c-111.333 0 -216 -69.333 -314 -208v-463z" />
    <glyph glyph-name="es" unicode="&#x441;" 
d="M1103 35c-116.667 -40 -232.998 -60.001 -348.998 -60.001c-189.333 0 -335.166 49.333 -437.499 148s-153.5 238.667 -153.5 420c0 178 50.5 317 151.5 417s241.5 150 421.5 150c114.667 0 230.334 -17.333 347.001 -52v-165c-128.667 46 -238.334 69 -329.001 69
c-118.667 0 -211.834 -37.333 -279.501 -112s-101.5 -177 -101.5 -307c0 -131.333 36.167 -234.166 108.5 -308.499s172.166 -111.5 299.499 -111.5c95.333 0 202.666 22.333 321.999 67v-155z" />
    <glyph glyph-name="te" unicode="&#x442;" 
d="M519 0v938h-445v148h1086v-148h-444v-938h-197z" />
    <glyph glyph-name="ucyril" unicode="&#x443;" 
d="M142 -395l-0.000976562 148h80c74.667 0 129 12 163 36s69.667 75.667 107 155l49 104l-456 1038h204l355 -813l358 813h177l-547 -1225c-42.667 -95.333 -93.667 -161.833 -153 -199.5s-143.666 -56.5 -252.999 -56.5h-84z" />
    <glyph glyph-name="ef" unicode="&#x444;" 
d="M531 -395l0.00292969 457c-47.333 -58 -106.333 -87 -177 -87c-91.333 0 -162.833 50.333 -214.5 151s-77.5 239.667 -77.5 417s25.833 316.166 77.5 416.499s123.167 150.5 214.5 150.5c65.333 0 117.666 -21.333 156.999 -64l20 -22v456h173v-456l19 22
c39.333 42.667 91.666 64 156.999 64c91.333 0 162.833 -50.167 214.5 -150.5s77.5 -239.166 77.5 -416.499s-25.833 -316.333 -77.5 -417s-122.834 -151 -213.501 -151c-72 0 -131 29 -177 87v-457h-173zM531.003 208l-0.000976562 677.001c-46 55.333 -91.667 83 -137 83
c-106 0 -159 -139.333 -159 -418c0 -144.667 13.5 -251.334 40.5 -320.001s69.5 -103 127.5 -103c42.667 0 85.334 27 128.001 81zM704.002 208.001c42 -54 84.333 -81 127 -81c58 0 100.667 34.167 128 102.5s41 174.833 41 319.5c0 143.333 -13 249 -39 317
s-66.333 102 -121 102c-44.667 0 -90 -27.667 -136 -83v-677z" />
    <glyph glyph-name="kha" unicode="&#x445;" 
d="M93 0l404 549l-402 537h247l300 -401l275 401h195l-369 -536l411 -550h-246l-311 415l-305 -415h-199z" />
    <glyph glyph-name="tse" unicode="&#x446;" 
d="M160 0v1086h197v-938h432v938h198v-938h197v-395h-185v247h-839z" />
    <glyph glyph-name="che" unicode="&#x447;" 
d="M795 0l0.000976562 456c-116 -53.333 -214 -80 -294 -80c-124.667 0 -221.334 36 -290.001 108c-34.667 36.667 -58 79.167 -70 127.5s-18 124.5 -18 228.5v246h197v-284c0 -72 3 -120.167 9 -144.5s20.667 -47.833 44 -70.5c42 -42 98.667 -63 170 -63
c68 0 152 29 252 87v475h198v-1086h-198z" />
    <glyph glyph-name="sha" unicode="&#x448;" 
d="M1160 0h-1086v1086h179v-938h277v938h173v-938h278v938h179v-1086z" />
    <glyph glyph-name="shcha" unicode="&#x449;" 
d="M74 0v1086h179v-938h277v938h173v-938h278v938h179v-938h74v-444h-185v296h-975z" />
    <glyph glyph-name="hard" unicode="&#x44a;" 
d="M339 0l-0.000976562 938h-296v148h493v-438h107c164.667 0 284.834 -25.333 360.501 -76s113.5 -130.667 113.5 -240c0 -113.333 -41 -197 -123 -251s-208.667 -81 -380 -81h-275zM535.999 148h91c186.667 0 280 60 280 180c0 62 -20 105 -60 129s-112 36 -216 36h-95
v-345z" />
    <glyph glyph-name="yeri" unicode="&#x44b;" 
d="M99 0v1086h185v-414h70c299.333 0 449 -109 449 -327c0 -131.333 -51.667 -226.333 -155 -285c-69.333 -40 -189.333 -60 -360 -60h-189zM284 148h62c164.667 0 247 64 247 192c0 63.333 -19.333 108.833 -58 136.5s-101.667 41.5 -189 41.5h-62v-370zM938 0v1086h198
v-1086h-198z" />
    <glyph glyph-name="soft" unicode="&#x44c;" 
d="M259 0l0.000976562 1086h197v-414h144c175.333 0 300.166 -25 374.499 -75s111.5 -134.667 111.5 -254c0 -120 -40.667 -207.167 -122 -261.5s-212.333 -81.5 -393 -81.5h-312zM456.001 148l128 0.000976562c108 0 183.833 13.667 227.5 41s65.5 74.333 65.5 141
c0 65.333 -19.667 114.666 -59 147.999c-20.667 17.333 -44.5 28.333 -71.5 33s-80.167 7 -159.5 7h-131v-370z" />
    <glyph glyph-name="ecyrilrev" unicode="&#x44d;" 
d="M148 34v177.001c105.333 -50.667 228 -76 368 -76c109.333 0 191.833 26.833 247.5 80.5s92.5 142.167 110.5 265.5h-467v148h467c0 222 -111.333 333 -334 333c-114.667 0 -233 -26 -355 -78v163c112 42 233 63 363 63c193.333 0 331.333 -53 414 -159
c78.667 -100 118 -228.333 118 -385c0 -184.667 -49.667 -329.334 -149 -434.001s-236.333 -157 -411 -157c-128.667 0 -252.667 19.667 -372 59z" />
    <glyph glyph-name="iu" unicode="&#x44e;" 
d="M434 469l-175 -0.000976562v-469h-185v1086h185v-469h176c10.667 162 49 284.667 115 368s158.333 125 277 125c126 0 223.167 -49.167 291.5 -147.5s102.5 -238.166 102.5 -419.499s-34.167 -321.333 -102.5 -420s-165.5 -148 -291.5 -148
c-237.333 0 -368.333 164.667 -393 494zM629 542.999c0 -280 65 -420 195 -420c133.333 0 200 140 200 420c0 279.333 -65 419 -195 419c-133.333 0 -200 -139.667 -200 -419z" />
    <glyph glyph-name="ia" unicode="&#x44f;" 
d="M824 438l-210.999 0.000976562c-47.333 -46 -96 -112.667 -146 -200l-63 -110c-28 -48.667 -51.667 -91.334 -71 -128.001h-222c38.667 57.333 81 128 127 212l26 49l45 82c38.667 68 85 117.667 139 149c-165.333 45.333 -248 141 -248 287
c0 123.333 55.667 212 167 266c57.333 27.333 161.666 41 312.999 41h341v-1086h-197v438zM824.001 938.001h-179c-156.667 0 -235 -57 -235 -171c0 -120.667 82 -181 246 -181h168v352z" />
    <glyph glyph-name="io" unicode="&#x451;" 
d="M1098 43c-136.667 -45.333 -262.001 -68.001 -376.001 -68.001c-186.667 0 -330.167 48 -430.5 144s-150.5 233.333 -150.5 412c0 168.667 48.167 307.334 144.5 416.001s218.833 163 367.5 163c150 0 260.5 -45 331.5 -135s106.5 -230 106.5 -420v-63h-740
c14.667 -246 147.334 -369 398.001 -369c106 0 222.333 25.333 349 76v-156zM356.999 639.999h524v28c0 196 -81.667 294 -245 294c-78.667 0 -142.5 -28.333 -191.5 -85s-78.167 -135.667 -87.5 -237zM410.999 1283v173h173v-173h-173zM805.999 1283v173h173v-173h-173z
" />
    <glyph glyph-name="dje" unicode="&#x452;" 
d="M380 882c90.667 152 214.001 228.002 370.001 228.002c205.333 0 308 -122.333 308 -367v-743v-92c0 -96.667 -30.167 -175.334 -90.5 -236.001s-138.5 -91 -234.5 -91c-45.333 0 -93.333 6.66699 -144 20v155c41.333 -18 83 -27 125 -27
c53.333 0 91.166 16.5 113.499 49.5s33.5 88.833 33.5 167.5v743c0 85.333 -13 145.666 -39 180.999s-70.333 53 -133 53c-98.667 0 -201.667 -71 -309 -213v-710h-198v1258h-148v124h148v197h198v-197h320v-124h-320v-172v-204z" />
    <glyph glyph-name="gje" unicode="&#x453;" 
d="M247 0v1086h888v-148h-691v-938h-197zM554 1283l241 321h228l-321 -321h-148z" />
    <glyph glyph-name="ecyril" unicode="&#x454;" 
d="M1086 195v-153c-122 -44.667 -246.333 -67 -373 -67c-180.667 0 -319 49 -415 147s-144 239.667 -144 425c0 184.667 48.167 324.667 144.5 420s237.833 143 424.5 143c117.333 0 234.333 -14 351 -42v-161c-138 36.667 -255.333 55 -352 55
c-222.667 0 -342.667 -106.667 -360 -320h465v-149h-465c16.667 -246.667 142 -370 376 -370c122 0 238 24 348 72z" />
    <glyph glyph-name="dze" unicode="&#x455;" 
d="M187 44v178.001c152.667 -66 284.667 -99 396 -99c80 0 146.167 16.167 198.5 48.5s78.5 73.166 78.5 122.499c0 63.333 -62.333 115 -187 155l-211 69c-164.667 53.333 -247 147.333 -247 282c0 98.667 37.167 175 111.5 229s179.5 81 315.5 81
c102 0 220.333 -15.667 355 -47v-160c-130 39.333 -248.667 59 -356 59c-72 0 -129.5 -13 -172.5 -39s-64.5 -61 -64.5 -105c0 -54 49 -98 147 -132l249 -87c90.667 -32 155.834 -70.167 195.501 -114.5s59.5 -101.833 59.5 -172.5c0 -102.667 -42.333 -184.5 -127 -245.5
s-198.334 -91.5 -341.001 -91.5c-124.667 0 -258 23 -400 69z" />
    <glyph glyph-name="icyril" unicode="&#x456;" 
d="M568 0v938h-395v148h592v-1086h-197zM543 1332v247h247v-247h-247z" />
    <glyph glyph-name="yi" unicode="&#x457;" 
d="M568 0v938h-395v148h592v-1086h-197zM370 1283v173h173v-173h-173zM765 1283v173h173v-173h-173z" />
    <glyph glyph-name="je" unicode="&#x458;" 
d="M148 -367v165.001c102.667 -46.667 204.334 -70 305.001 -70c84 0 141.5 21.167 172.5 63.5s46.5 120.833 46.5 235.5v911h-444v148h641v-1019c0 -168.667 -33.167 -291.834 -99.5 -369.501s-171.833 -116.5 -316.5 -116.5c-94.667 0 -196.334 17.333 -305.001 52z
M647 1332v247h247v-247h-247z" />
    <glyph glyph-name="lje" unicode="&#x459;" 
d="M12 0l0.000976562 173.003c67.333 8 116.166 49.167 146.499 123.5s45.5 190.833 45.5 349.5l7 205l5 128v107h549v-414h57c258 0 387 -105.333 387 -316c0 -130.667 -33 -222.667 -99 -276s-180 -80 -342 -80h-188v938h-179v-19c0 -12.667 -1.33301 -45.334 -4 -98.001
l-14 -295c-8 -178.667 -41.167 -309.334 -99.5 -392.001s-148.833 -127.334 -271.5 -134.001zM765.001 148.003h49c132 0 198 61.333 198 184c0 124 -66 186 -198 186h-49v-370z" />
    <glyph glyph-name="nje" unicode="&#x45a;" 
d="M580 497l-303 -0.000976562v-497h-185v1086h185v-441h303v441h185v-414h58c257.333 0 386 -105 386 -315c0 -131.333 -33 -223.666 -99 -276.999s-179.667 -80 -341 -80h-189v497zM765 147.999h50c131.333 0 197 61.667 197 185s-65.667 185 -197 185h-50v-370z" />
    <glyph glyph-name="tshe" unicode="&#x45b;" 
d="M182 1258l-148 -0.000976562v124h148v197h197v-197h297v-124h-297v-172v-204c90.667 152 214 228 370 228c206 0 309 -122.333 309 -367v-743h-197v689c0 84.667 -13.167 144.834 -39.5 180.501s-70.5 53.5 -132.5 53.5c-98.667 0 -202 -71 -310 -213v-710h-197v1258z
" />
    <glyph glyph-name="kje" unicode="&#x45c;" 
d="M442 463v-463.001h-197v1086h197v-475l43 1c63.333 0 107.666 10.167 132.999 30.5s58 72.5 98 156.5l22 46c48 100.667 91.167 166 129.5 196s98.166 45 179.499 45v-148c-39.333 0 -68.666 -9.16699 -87.999 -27.5s-45 -60.833 -77 -127.5l-19 -40l-25 -55
c-29.333 -60.667 -77 -108 -143 -142c54.667 -18.667 96 -43.167 124 -73.5s66 -91.166 114 -182.499l40 -76c46.667 -88.667 88.334 -160 125.001 -214h-218c-18.667 37.333 -39.667 77 -63 119l-54 95c-69.333 124 -127 207 -173 249h-148zM491 1283l241 321h228
l-321 -321h-148z" />
    <glyph glyph-name="ucyrilbreve" unicode="&#x45e;" 
d="M142 -395l-0.000976562 148h80c74.667 0 129 12 163 36s69.667 75.667 107 155l49 104l-456 1038h204l355 -813l358 813h177l-547 -1225c-42.667 -95.333 -93.667 -161.833 -153 -199.5s-143.666 -56.5 -252.999 -56.5h-84zM310.999 1579h123.001
c21.333 -98.667 91.333 -148 210 -148s188.667 49.333 210 148h123c-10 -90 -45.333 -161.833 -106 -215.5s-136.334 -80.5 -227.001 -80.5s-166.167 26.833 -226.5 80.5s-95.833 125.5 -106.5 215.5z" />
    <glyph glyph-name="dzhe" unicode="&#x45f;" 
d="M197 0v1086h198v-938h444v938h197v-1086h-327v-247h-185v247h-327z" />
    <glyph glyph-name="Geupturn" unicode="&#x490;" 
d="M247 0v1283h716v296h197v-296v-148h-716v-1135h-197z" />
    <glyph glyph-name="geupturn" unicode="&#x491;" 
d="M247 0v1086h703v246h185v-246v-148h-691v-938h-197z" />
    <glyph glyph-name="Wgrave" unicode="&#x1e80;" 
d="M207 0l-191 1283h168l156 -1066h3l185 795h190l182 -783h2l165 1054h150l-211 -1283h-214l-177 753h-2l-178 -753h-228zM783 1394h-160l-333 222h271z" />
    <glyph glyph-name="wgrave" unicode="&#x1e81;" 
d="M210 0l-198 1086h182l144 -850h2l193 751h191l183 -780h3l160 879h151l-217 -1086h-194l-191 812h-2l-211 -812h-196zM777 1283h-148l-321 321h228z" />
    <glyph glyph-name="Wacute" unicode="&#x1e82;" 
d="M207 0l-191 1283h168l156 -1066h3l185 795h190l182 -783h2l165 1054h150l-211 -1283h-214l-177 753h-2l-178 -753h-228zM462 1394l222 222h271l-333 -222h-160z" />
    <glyph glyph-name="wacute" unicode="&#x1e83;" 
d="M210 0l-198 1086h182l144 -850h2l193 751h191l183 -780h3l160 879h151l-217 -1086h-194l-191 812h-2l-211 -812h-196zM480 1283l241 321h228l-321 -321h-148z" />
    <glyph glyph-name="Wdieresis" unicode="&#x1e84;" 
d="M207 0l-191 1283h168l156 -1066h3l185 795h190l182 -783h2l165 1054h150l-211 -1283h-214l-177 753h-2l-178 -753h-228zM292 1443v173h173v-173h-173zM785 1443v173h173v-173h-173z" />
    <glyph glyph-name="wdieresis" unicode="&#x1e85;" 
d="M210 0l-198 1086h182l144 -850h2l193 751h191l183 -780h3l160 879h151l-217 -1086h-194l-191 812h-2l-211 -812h-196zM347 1283v173h173v-173h-173zM742 1283v173h173v-173h-173z" />
    <glyph glyph-name="Ygrave" unicode="&#x1ef2;" 
d="M519 0v525l-487 758h227l373 -592l408 592h187l-511 -758v-525h-197zM792 1394h-160l-333 222h271z" />
    <glyph glyph-name="ygrave" unicode="&#x1ef3;" 
d="M142 -395l-0.000976562 148h80c74.667 0 129 12 163 36s69.667 75.667 107 155l49 104l-456 1038h204l355 -813l358 813h177l-547 -1225c-42.667 -95.333 -93.667 -161.833 -153 -199.5s-143.666 -56.5 -252.999 -56.5h-84zM791.999 1283h-148l-321 321h228z" />
    <glyph glyph-name="endash" unicode="&#x2013;" 
d="M136 543v123h962v-123h-962z" />
    <glyph glyph-name="emdash" unicode="&#x2014;" 
d="M62 543v123h1110v-123h-1110z" />
    <glyph glyph-name="quotedash" unicode="&#x2015;" 
d="M99 543v123h1036v-123h-1036z" />
    <glyph glyph-name="underscoredbl" unicode="&#x2017;" 
d="M0 -136v136h1234v-136h-1234zM0 -420v136h1234v-136h-1234z" />
    <glyph glyph-name="quoteleft" unicode="&#x2018;" 
d="M765 1579v-99.001c-74 -8.66699 -115 -82.667 -123 -222h123v-296h-296v180c0 280.667 98.667 426.334 296 437.001z" />
    <glyph glyph-name="quoteright" unicode="&#x2019;" 
d="M469 962v99c74 9.33301 115 83.333 123 222h-123v296h296v-179c0 -280.667 -98.667 -426.667 -296 -438z" />
    <glyph glyph-name="quotesinglbase" unicode="&#x201a;" 
d="M469 -321v99c74 8.66699 115 82.667 123 222h-123v296h296v-179c0 -281.333 -98.667 -427.333 -296 -438z" />
    <glyph glyph-name="quotedblleft" unicode="&#x201c;" 
d="M247 1036v222c0 214 82.333 321 247 321v-99c-70 0 -105 -48.333 -105 -145v-52h105v-247h-247zM740 1036v222c0 214 82.333 321 247 321v-99c-70 0 -105 -48.333 -105 -145v-52h105v-247h-247z" />
    <glyph glyph-name="quotedblright" unicode="&#x201d;" 
d="M494 1579v-222c0 -214 -82.333 -321 -247 -321v99c70 0 105 48.333 105 145v52h-105v247h247zM987 1579v-222c0 -214 -82.333 -321 -247 -321v99c70 0 105 48.333 105 145v52h-105v247h247z" />
    <glyph glyph-name="quotedblbase" unicode="&#x201e;" 
d="M494 247v-222c0 -214 -82.333 -321 -247 -321v99c70 0 105 48.333 105 145v52h-105v247h247zM987 247v-222c0 -214 -82.333 -321 -247 -321v99c70 0 105 48.333 105 145v52h-105v247h247z" />
    <glyph glyph-name="dagger" unicode="&#x2020;" 
d="M518 -296l24 1135l-345 -25v148l345 -24l-24 542h197l-25 -542l346 24v-148l-346 25l25 -1135h-197z" />
    <glyph glyph-name="daggerdbl" unicode="&#x2021;" 
d="M518 -296l24 543l-345 -25v148l345 -25v494l-345 -25v148l345 -24l-24 542h197l-25 -542l346 24v-148l-346 25v-494l346 25v-148l-346 25l25 -543h-197z" />
    <glyph glyph-name="bullet" unicode="&#x2022;" 
d="M617 290c-82 0 -151.833 28.833 -209.5 86.5s-86.5 127.5 -86.5 209.5s28.833 151.833 86.5 209.5s127.5 86.5 209.5 86.5s151.833 -28.833 209.5 -86.5s86.5 -127.5 86.5 -209.5s-28.833 -151.833 -86.5 -209.5s-127.5 -86.5 -209.5 -86.5z" />
    <glyph glyph-name="ellipsis" unicode="&#x2026;" 
d="M107 0v197h197v-197h-197zM518 0v197h198v-197h-198zM929 0v197h198v-197h-198z" />
    <glyph glyph-name="perthousand" unicode="&#x2030;" 
d="M0 -37l670 1554h134l-670 -1554h-134zM207 839c-127.333 0 -191 107 -191 321c0 213.333 63.667 320 191 320c128 0 192 -106.667 192 -320c0 -214 -64 -321 -192 -321zM207 938c45.333 0 68 74 68 222s-22.667 222 -68 222c-44.667 0 -67 -74 -67 -222
s22.333 -222 67 -222zM598 0c-127.333 0 -191 107 -191 321s63.667 321 191 321c128 0 192 -107 192 -321s-64 -321 -192 -321zM598 99c45.333 0 68 74 68 222s-23 222 -69 222c-44.667 0 -67 -74 -67 -222s22.667 -222 68 -222zM1042 0c-127.333 0 -191 107 -191 321
s63.667 321 191 321c128 0 192 -107 192 -321s-64 -321 -192 -321zM1042 99c45.333 0 68 74 68 222s-22.667 222 -68 222c-44.667 0 -67 -74 -67 -222s22.333 -222 67 -222z" />
    <glyph glyph-name="guilsinglleft" unicode="&#x2039;" 
d="M790 993l96 -82l-315 -374l313 -371l-91 -80l-446 451z" />
    <glyph glyph-name="guilsinglright" unicode="&#x203a;" 
d="M443 86l-96 82l315 375l-313 371l91 79l446 -450z" />
    <glyph glyph-name="exclamdbl" unicode="&#x203c;" 
d="M320 419l-24 765v296h197v-296l-25 -765h-148zM271 0v222h247v-222h-247zM764 419l-24 765v296h197v-296l-24 -765h-149zM715 0v222h247v-222h-247z" />
    <glyph glyph-name="overscore1" unicode="&#x203e;" 
d="M0 1493v123h1234v-123h-1234z" />
    <glyph glyph-name="fraction1" unicode="&#x2044;" 
d="M0 -37l1055 1554h179l-1055 -1554h-179z" />
    <glyph glyph-name="nsuperior" unicode="&#x207f;" 
d="M259 728v771h173v-154c84.667 115.333 181 173 289 173c169.333 0 254 -92.667 254 -278v-512h-173v471c0 116.667 -44.333 175 -133 175c-77.333 0 -156.333 -53.333 -237 -160v-486h-173z" />
    <glyph glyph-name="franc" unicode="&#x20a3;" 
d="M247 0v247h-222v148h222v1085h913v-148h-716v-534h611v-148h-611v-255h247v-148h-247v-247h-197z" />
    <glyph glyph-name="lira" unicode="&#x20a4;" 
d="M477 173l590 -0.000976562v-173h-816v173c132.667 50.667 199 153.667 199 309v92h-173v123h173v149h-173v123h173v110c0 143.333 33 252.166 99 326.499s162.333 111.5 289 111.5c63.333 0 134.666 -9.66699 213.999 -29v-168c-89.333 32.667 -162.666 49 -219.999 49
c-123.333 0 -185 -70.667 -185 -212v-188h198v-123h-198v-149h198v-123h-198c0 -91.333 -11 -163.166 -33 -215.499s-67.667 -114.166 -137 -185.499z" />
    <glyph glyph-name="pesetas" unicode="&#x20a7;" 
d="M25 0l0.000976562 1480l256 1c150.667 0 262.167 -26.833 334.5 -80.5s108.5 -136.167 108.5 -247.5c0 -122.667 -42.333 -218 -127 -286s-203.334 -102 -356.001 -102h-31v-765h-185zM210.001 913h39.999c106.667 0 180.834 15.333 222.501 46s62.5 85.667 62.5 165
c0 138.667 -65.667 208 -197 208h-97h-31v-419zM556 407l-173 -0.000976562v124h173v234h160v-234h148c-6 23.333 -9 43.333 -9 60c0 60 21 107.167 63 141.5s100 51.5 174 51.5c34 0 66.667 -5.66699 98 -17v-129c-33.333 14.667 -65.333 22 -96 22
c-65.333 0 -98 -28.333 -98 -85c0 -28 18 -60.333 54 -97l34 -34l42 -42c41.333 -42 68 -74.667 80 -98s18 -54.333 18 -93c0 -72 -20.167 -128.333 -60.5 -169s-96.5 -61 -168.5 -61c-33.333 0 -67 6.66699 -101 20v126c33.333 -14.667 67 -22 101 -22
c58.667 0 88 26.333 88 79c0 34.667 -23 75.334 -69 122.001l-38 38l-60 63h-200v-180c0 -48.667 5 -81.167 15 -97.5s30 -24.5 60 -24.5c6 0 15.333 0.666992 28 2v-113c-32 -8.66699 -59.333 -13 -82 -13c-69.333 0 -116.833 20 -142.5 60s-38.5 113.667 -38.5 221v145z
" />
    <glyph glyph-name="Euro" unicode="&#x20ac;" horiz-adv-x="1235" 
d="M375 543l2 -6c27.333 -122.667 82.166 -222.334 164.499 -299.001s174.833 -115 277.5 -115c86.667 0 184.334 40.333 293.001 121l18 -168c-116.667 -75.333 -235.334 -113 -356.001 -113c-52 0 -102.167 6 -150.5 18s-93.666 29.667 -135.999 53
s-81.5 51.666 -117.5 84.999s-68 71.333 -96 114s-54 95.834 -78 159.501s-36 111.834 -36 144.501v6h-142l31 147h96v101h-127l31 147h113l2 6c31.333 174 101.666 313.167 210.999 417.5s239 156.5 389 156.5c108 0 218.667 -35 332 -105v-180
c-113.333 90 -222.666 135 -327.999 135c-38 0 -74.667 -6.5 -110 -19.5s-68.333 -31.667 -99 -56s-58.5 -53.833 -83.5 -88.5s-48.667 -79.667 -71 -135s-33.5 -97 -33.5 -125v-6h569l-31 -147h-555v-101h537l-33 -147h-483z" />
    <glyph glyph-name="numero" unicode="&#x2116;" 
d="M759 691c0 263.333 74 395 222 395s222 -131.667 222 -395s-74 -395 -222 -395s-222 131.667 -222 395zM894 690c0 -104 6.66699 -177.167 20 -219.5s36 -63.5 68 -63.5c56.667 0 85 94.667 85 284c0 104.667 -6.5 178.167 -19.5 220.5s-35.5 63.5 -67.5 63.5
c-57.333 0 -86 -95 -86 -285zM746 0v148h457v-148h-457zM648 0h-148l-314 1120v-1120h-124v1480h148l314 -1116v1116h124v-1480z" />
    <glyph glyph-name="trademark" unicode="&#x2122;" 
d="M255 740v617h-159v123h636l127 -393l123 393h156v-740h-148v479l-111 -355h-95l-101 312v-436h-111v617h-169v-617h-148z" />
    <glyph glyph-name="ohm" unicode="&#x2126;" 
d="M555 148l-0.000976562 -148h-506v148h324c-208 245.333 -312 486 -312 722c0 182.667 53.333 336.167 160 460.5s238.334 186.5 395.001 186.5c157.333 0 289.333 -62 396 -186s160 -277.667 160 -461c0 -236 -104 -476.667 -312 -722h324v-148h-506v148
c187.333 182 281 412 281 690c0 164.667 -30.5 294.334 -91.5 389.001s-144.833 142 -251.5 142c-106 0 -189.5 -47.333 -250.5 -142s-91.5 -224.334 -91.5 -389.001c0 -278 93.667 -508 281 -690z" />
    <glyph glyph-name="oneeighth" unicode="&#x215b;" 
d="M136 740v617h-136v123l308 37v-777h-172zM15 -37l813 1554h167l-813 -1554h-167zM750 384c-88.667 43.333 -133.002 99.0029 -133.002 167.003c0 66.667 26 119 78 157s123.667 57 215 57c88.667 0 158.667 -17 210 -51s77 -80.667 77 -140
c0 -38.667 -10 -71.334 -30 -98.001s-59.667 -59.334 -119 -98.001c107.333 -53.333 161 -113.333 161 -180c0 -68.667 -31.167 -125 -93.5 -169s-142.166 -66 -239.499 -66c-91.333 0 -164.166 18.5 -218.499 55.5s-81.5 86.5 -81.5 148.5c0 81.333 58 153.666 174 216.999
zM920.998 448.003c66.667 38 100 76.333 100 115c0 52.667 -39.333 79 -118 79c-80 0 -120 -27.333 -120 -82c0 -30 36 -62.667 108 -98zM845.998 328.003c-66.667 -54 -99.999 -102.667 -99.999 -146c0 -64 46 -96 138 -96c43.333 0 78.666 9 105.999 27s41 41.333 41 70
c0 34.667 -44 74 -132 118z" />
    <glyph glyph-name="threeeighths" unicode="&#x215c;" 
d="M95 -37l813 1554h154l-812 -1554h-155zM15 875c80 -25.333 140.999 -38 182.999 -38c86 0 129 34.333 129 103c0 88.667 -77.333 133 -232 133v122h27c138 0 207 39.333 207 118c0 58.667 -43.333 88 -130 88c-37.333 0 -98.666 -14 -183.999 -42v128
c85.333 20.667 154 31 206 31c90.667 0 161.167 -16.167 211.5 -48.5s75.5 -77.5 75.5 -135.5c0 -92.667 -64.667 -159.667 -194 -201c131.333 -25.333 197 -90 197 -194c0 -69.333 -28 -124 -84 -164s-132.667 -60 -230 -60c-57.333 0 -118 9.66699 -182 29v131z
M776.999 382c-84 45.333 -126.001 101.666 -126.001 168.999c0 65.333 25.167 117.333 75.5 156s118.5 58 204.5 58c84 0 150.833 -17.333 200.5 -52s74.5 -81 74.5 -139c0 -66 -49.333 -131 -148 -195c106.667 -56 160 -120 160 -192c0 -64 -30.667 -117.333 -92 -160
s-137.666 -64 -228.999 -64c-86 0 -155.333 17.833 -208 53.5s-79 82.834 -79 141.501c0 77.333 55.667 152 167 224zM938.998 451l19 15c45.333 37.333 68 71.333 68 102c0 49.333 -34.333 74 -103 74c-66.667 0 -100 -27.667 -100 -83c0 -36 30.333 -68.333 91 -97z
M878.998 328c-66 -58 -99 -107.667 -99 -149c0 -26 12.5 -48 37.5 -66s56.167 -27 93.5 -27c35.333 0 65 9.5 89 28.5s36 42.167 36 69.5c0 38 -37.333 77.667 -112 119z" />
    </font>
</defs>
</svg>
