<svg id="icon" xmlns="http://www.w3.org/2000/svg" viewBox="0 0 32.79 31.42"><defs><style>.cls-1{stroke:#ccc;stroke-linecap:round;stroke-linejoin:round;stroke-width:1.91px;}</style></defs><title>settings-icon</title><path class="cls-1" d="M955.79,528.82l1.89-2.71a1.49,1.49,0,0,1,1.22-.64h2.68a1.52,1.52,0,0,1,1.22.63l1.87,2.66m-8.88.06a2.52,2.52,0,0,1-2.28,1m2.28-1a2.51,2.51,0,0,1-2.28,1m0,0-3.34-.21a1.47,1.47,0,0,0-1.24.54l-1.69,2.06a1.48,1.48,0,0,0-.26,1.4l1,3m0,0a2.57,2.57,0,0,1,0,1.32m0-1.32a2.57,2.57,0,0,1,0,1.32m0,0a2.51,2.51,0,0,1-.61,1.16M948,538h0m-.6,1.16-2.21,2.37a1.5,1.5,0,0,0-.36,1.36l.6,2.48a1.53,1.53,0,0,0,.93,1l3,1.11a2.56,2.56,0,0,1,1.06.76m-3.05-9.13A2.37,2.37,0,0,0,948,538m2.46,10.28a2.54,2.54,0,0,1,.53,1.18m-.53-1.18a2.44,2.44,0,0,1,.53,1.18m-.53-1.18h0l-.06-.07m.59,1.25.52,3.17a1.48,1.48,0,0,0,.84,1.11l2.42,1.12a1.5,1.5,0,0,0,1.35-.05l2.84-1.59m0,0a2.59,2.59,0,0,1,1.27-.33m-1.27.33a2.33,2.33,0,0,1,.49-.21,2.61,2.61,0,0,1,.79-.12m0,0a2.59,2.59,0,0,1,.68.09,3.13,3.13,0,0,1,.6.24m-1.28-.33a2.65,2.65,0,0,1,1.28.33m0,0,3,1.61a1.46,1.46,0,0,0,1.35,0l2.4-1.15a1.48,1.48,0,0,0,.83-1.12l.46-3.08m0,0a2.48,2.48,0,0,1,.53-1.19m-.53,1.19a2.48,2.48,0,0,1,.53-1.19m0,0a2.54,2.54,0,0,1,1.05-.77m-1.05.77a2.54,2.54,0,0,1,1.05-.77m0,0,3.06-1.2a1.48,1.48,0,0,0,.91-1.05l.57-2.51a1.47,1.47,0,0,0-.36-1.34l-2.22-2.4m0,0a2.53,2.53,0,0,1-.63-1.14m.63,1.14a2.23,2.23,0,0,1-.37-.5,2.53,2.53,0,0,1-.26-.64m0,0a2.42,2.42,0,0,1,0-1.28l1-3.08a1.46,1.46,0,0,0-.27-1.38l-1.65-2a1.51,1.51,0,0,0-1.26-.54l-3.3.24m0,0a2.57,2.57,0,0,1-1.29-.24m1.29.24a2.57,2.57,0,0,1-1.29-.24m0,0a2.65,2.65,0,0,1-1-.84m1,.84a2.57,2.57,0,0,1-1-.84M948,538h0m17.26,2.36a5.12,5.12,0,1,1-5.12-5A5.06,5.06,0,0,1,965.26,540.33Z" transform="translate(-943.84 -524.51)"/></svg>