<svg width="40" height="40" viewBox="-25 -25 70 70" fill="none" xmlns="http://www.w3.org/2000/svg">
<path stroke-width="1" d="M8.46692 12.8823L7.82048 12.1194L7.82047 12.1194L8.46692 12.8823ZM8.51973 12.8318L7.80725 12.1301L7.80646 12.1309L8.51973 12.8318ZM6.29801 14.7201L5.65156 13.9571L5.65156 13.9571L6.29801 14.7201ZM6.1792 14.8452L7.00001 15.4164L7.00001 15.4164L6.1792 14.8452ZM17.6926 12.9591L17 13.6805L17.6926 12.9591ZM15.8414 11.1821L15.1489 11.9034L15.1489 11.9034L15.8414 11.1821ZM15.154 11.1772L14.4717 10.4462L14.4692 10.4485L15.154 11.1772ZM11.7253 14.3997L12.4076 15.1308L12.4101 15.1284L11.7253 14.3997ZM11.0273 14.3845L10.3113 15.0826L10.3128 15.0841L11.0273 14.3845ZM11.0183 14.3752L10.3016 15.0727L10.3023 15.0734L11.0183 14.3752ZM10.9693 14.3277L11.624 13.5718L11.624 13.5718L10.9693 14.3277ZM9.29897 12.8809L9.95369 12.125L9.95368 12.125L9.29897 12.8809ZM9.24978 12.8331L9.96667 12.1359L9.96599 12.1352L9.24978 12.8331ZM9.24097 12.8241L9.95719 12.1262L9.95584 12.1248L9.24097 12.8241ZM8.52922 12.8221L7.81815 12.119L7.81673 12.1204L8.52922 12.8221ZM16.3196 6.5997V5.5997C15.7673 5.5997 15.3196 6.04742 15.3196 6.5997H16.3196ZM16.6627 6.5997H17.6627C17.6627 6.04742 17.215 5.5997 16.6627 5.5997V6.5997ZM16.6627 6.89033V7.89033C17.215 7.89033 17.6627 7.44261 17.6627 6.89033H16.6627ZM16.3196 6.89033H15.3196C15.3196 7.44261 15.7673 7.89033 16.3196 7.89033V6.89033ZM1.40002 5.9999V17.9999H3.40002V5.9999H1.40002ZM6.00002 22.5999H18V20.5999H6.00002V22.5999ZM22.6 17.9999V5.9999H20.6V17.9999H22.6ZM18 1.3999H6.00002V3.3999H18V1.3999ZM22.6 5.9999C22.6 3.45939 20.5405 1.3999 18 1.3999V3.3999C19.436 3.3999 20.6 4.56396 20.6 5.9999H22.6ZM18 22.5999C20.5405 22.5999 22.6 20.5404 22.6 17.9999H20.6C20.6 19.4358 19.436 20.5999 18 20.5999V22.5999ZM1.40002 17.9999C1.40002 20.5404 3.45952 22.5999 6.00002 22.5999V20.5999C4.56408 20.5999 3.40002 19.4358 3.40002 17.9999H1.40002ZM3.40002 5.9999C3.40002 4.56396 4.56408 3.3999 6.00002 3.3999V1.3999C3.45951 1.3999 1.40002 3.45939 1.40002 5.9999H3.40002ZM9.11336 13.6453C9.1726 13.5951 9.2213 13.5446 9.233 13.5327L7.80646 12.1309C7.80186 12.1356 7.79957 12.1379 7.79762 12.1399C7.79588 12.1416 7.7958 12.1417 7.79676 12.1407C7.79845 12.1391 7.80702 12.1308 7.82048 12.1194L9.11336 13.6453ZM6.94447 15.483L9.11337 13.6453L7.82047 12.1194L5.65156 13.9571L6.94447 15.483ZM7.00001 15.4164C6.97966 15.4456 6.96179 15.4653 6.95208 15.4753C6.94269 15.4849 6.93841 15.4881 6.94447 15.483L5.65156 13.9571C5.5788 14.0188 5.46279 14.1239 5.35839 14.274L7.00001 15.4164ZM7.00002 15.4163L7.00001 15.4164L5.35839 14.274C5.12587 14.6081 5.00002 15.0065 5.00002 15.4163H7.00002ZM7.00002 17.4999V15.4163H5.00002V17.4999H7.00002ZM6.50002 16.9999C6.77616 16.9999 7.00002 17.2238 7.00002 17.4999H5.00002C5.00002 18.3283 5.6716 18.9999 6.50002 18.9999V16.9999ZM17.5 16.9999H6.50002V18.9999H17.5V16.9999ZM17 17.4999C17 17.2238 17.2239 16.9999 17.5 16.9999V18.9999C18.3284 18.9999 19 18.3283 19 17.4999H17ZM17 13.6805V17.4999H19V13.6805H17ZM17 13.6805H19C19 13.1359 18.7779 12.6149 18.3851 12.2377L17 13.6805ZM15.1489 11.9034L17 13.6805L18.3851 12.2377L16.534 10.4607L15.1489 11.9034ZM15.8363 11.9083C15.6423 12.0894 15.3404 12.0873 15.1489 11.9034L16.534 10.4607C15.9594 9.9091 15.054 9.90273 14.4717 10.4462L15.8363 11.9083ZM12.4101 15.1284L15.8389 11.9059L14.4692 10.4485L11.0404 13.671L12.4101 15.1284ZM10.3128 15.0841C10.8773 15.6607 11.8074 15.691 12.4076 15.1308L11.043 13.6687C11.2433 13.4817 11.5531 13.4921 11.7418 13.6849L10.3128 15.0841ZM10.3023 15.0734L10.3113 15.0826L11.7433 13.6863L11.7343 13.6771L10.3023 15.0734ZM10.3146 15.0835C10.3021 15.0728 10.2942 15.065 10.2926 15.0634C10.2917 15.0626 10.2918 15.0626 10.2934 15.0643C10.2952 15.0661 10.2974 15.0683 10.3016 15.0727L11.7349 13.6778C11.7241 13.6667 11.6788 13.6193 11.624 13.5718L10.3146 15.0835ZM8.64426 13.6368L10.3146 15.0836L11.624 13.5718L9.95369 12.125L8.64426 13.6368ZM8.53289 13.5303C8.54381 13.5415 8.58924 13.5891 8.64426 13.6368L9.95368 12.125C9.96618 12.1358 9.97415 12.1437 9.97572 12.1452C9.97661 12.1461 9.97654 12.146 9.97492 12.1444C9.97309 12.1425 9.97096 12.1404 9.96667 12.1359L8.53289 13.5303ZM8.52476 13.522L8.53357 13.531L9.96599 12.1352L9.95719 12.1262L8.52476 13.522ZM9.24028 13.5253C9.04307 13.7247 8.7225 13.7241 8.52611 13.5234L9.95584 12.1248C9.37023 11.5262 8.40625 11.5243 7.81815 12.119L9.24028 13.5253ZM9.23221 13.5335L9.2417 13.5238L7.81673 12.1204L7.80725 12.1301L9.23221 13.5335ZM16.3196 7.5997H16.6627V5.5997H16.3196V7.5997ZM15.6627 6.5997V6.89033H17.6627V6.5997H15.6627ZM16.6627 5.89033H16.3196V7.89033H16.6627V5.89033ZM17.3196 6.89033V6.5997H15.3196V6.89033H17.3196Z" fill="#5e5670"/>
</svg>
