<svg id="icon" xmlns="http://www.w3.org/2000/svg" viewBox="0 0 36.49 34.89"><defs><style>.cls-1{fill:none;stroke:#ccc;stroke-linecap:round;stroke-linejoin:round;stroke-width:1.76px;}</style></defs><title>fav-icon</title><path class="cls-1" d="M959.38,524.2a1,1,0,0,1,1.74,0l4.61,9.35a.94.94,0,0,0,.73.53l10.31,1.5a1,1,0,0,1,.54,1.66l-7.46,7.28a1,1,0,0,0-.28.86l1.76,10.27a1,1,0,0,1-1.41,1l-9.23-4.85a1,1,0,0,0-.9,0l-9.23,4.85a1,1,0,0,1-1.41-1l1.76-10.27a1,1,0,0,0-.28-.86l-7.46-7.28a1,1,0,0,1,.54-1.66l10.31-1.5a1,1,0,0,0,.73-.53Z" transform="translate(-941.99 -522.78)"/></svg>