<svg id="Слой_1" data-name="Слой 1" xmlns="http://www.w3.org/2000/svg" viewBox="0 0 33 26.98"><defs><style>.cls-1{fill:none;stroke:#ccc;stroke-linecap:round;stroke-linejoin:round;stroke-width:1.91px;}</style></defs><title>lib-icon</title><path class="cls-1" d="M973.09,537.7v-5a1.65,1.65,0,0,0-1.65-1.65h-11a1.65,1.65,0,0,1-1.17-.48l-2.37-2.37a1.65,1.65,0,0,0-1.17-.48h-9.36a1.65,1.65,0,0,0-1.65,1.65V551.1a1.65,1.65,0,0,0,1.65,1.65h1.94a1.41,1.41,0,0,0,1.41-1.41h0a1.43,1.43,0,0,1,.09-.5l4.52-12.05a1.64,1.64,0,0,1,1.55-1.07h18.28a1.66,1.66,0,0,1,1.57,2.18l-3.91,11.73a1.65,1.65,0,0,1-1.57,1.13H948" transform="translate(-943.73 -526.73)"/></svg>