<svg id="icon-start" xmlns="http://www.w3.org/2000/svg" viewBox="0 0 35.82 34.26"><title>star-icon</title><path d="M959.37,524.49a1,1,0,0,1,1.71,0l4.53,9.18a1,1,0,0,0,.72.52l10.13,1.47a1,1,0,0,1,.53,1.63l-7.33,7.14a.94.94,0,0,0-.27.84l1.73,10.09a1,1,0,0,1-1.38,1l-9.06-4.76a.94.94,0,0,0-.89,0l-9.06,4.76a1,1,0,0,1-1.38-1l1.73-10.09a1,1,0,0,0-.27-.84l-7.33-7.14a1,1,0,0,1,.53-1.63l10.13-1.47a1,1,0,0,0,.72-.52Z" transform="translate(-942.32 -523.09)" style="fill:none;stroke:#ccc;stroke-linecap:round;stroke-linejoin:round;stroke-width:1.73259997367859px"/></svg>